<svg width="50" height="50" viewBox="0 0 50 50" fill="none" xmlns="http://www.w3.org/2000/svg">
<g clip-path="url(#clip0_76_1514)">
<path d="M48.7161 20.7218L44.9243 20.4602C44.4078 18.0696 43.4779 15.8234 42.1525 13.7669L44.6483 10.9014C44.9303 10.5776 44.9135 10.091 44.6101 9.78767L39.9912 5.16875C39.6878 4.86413 39.2001 4.84814 38.8774 5.13047L36.0119 7.62631C33.9554 6.30082 31.7093 5.37088 29.3186 4.85446L29.0571 1.06261C29.0276 0.634432 28.6715 0.302246 28.2424 0.302246H21.7107C21.2817 0.302246 20.9255 0.634432 20.896 1.0627L20.6344 4.85456C18.2438 5.37097 15.9976 6.30082 13.9411 7.62631L11.0757 5.13047C10.7531 4.84929 10.2662 4.86489 9.96189 5.16875L5.34307 9.78767C5.03959 10.0911 5.02284 10.5776 5.30479 10.9015L7.80063 13.767C6.47514 15.8235 5.54519 18.0696 5.02887 20.4603L1.23702 20.7218C0.808748 20.7512 0.476562 21.1073 0.476562 21.5364V28.0681C0.476562 28.4972 0.808748 28.8533 1.23702 28.8828L5.02887 29.1444C5.54529 31.5353 6.47514 33.7816 7.80063 35.8377L5.30479 38.7031C5.02284 39.0269 5.03959 39.5134 5.34307 39.8169L9.96199 44.4357C10.2655 44.7396 10.7523 44.7556 11.0758 44.474L13.9413 41.9782C15.9978 43.3037 18.2439 44.2336 20.6346 44.7499L20.8962 48.5418C20.9256 48.9701 21.2818 49.3022 21.7109 49.3022H28.2426C28.6717 49.3022 29.0278 48.9701 29.0573 48.5418L29.3189 44.7499C31.7095 44.2335 33.9557 43.3036 36.0122 41.9782L38.8777 44.474C39.2011 44.7563 39.6888 44.7404 39.9915 44.4357L44.6103 39.8169C44.9138 39.5134 44.9306 39.027 44.6486 38.7031L42.1528 35.8376C43.4783 33.7816 44.4082 31.5353 44.9245 29.1443L48.7164 28.8827C49.1447 28.8533 49.4768 28.4972 49.4768 28.068V21.5363C49.4766 21.1073 49.1444 20.7512 48.7161 20.7218ZM47.8432 27.3056L44.1897 27.5581C43.8176 27.5837 43.5102 27.858 43.4429 28.2249C42.9632 30.8308 41.9578 33.2585 40.4545 35.4405C40.2432 35.7475 40.2663 36.159 40.5116 36.4402L42.9161 39.2009L39.3751 42.7419L36.6144 40.3373C36.3325 40.0917 35.9214 40.0686 35.6147 40.2803C33.4323 41.7836 31.0042 42.789 28.3991 43.2686C28.0323 43.336 27.7579 43.6435 27.7323 44.0155L27.4799 47.669H22.473L22.2206 44.0155C22.195 43.6434 21.9208 43.336 21.5538 43.2686C18.9487 42.789 16.5206 41.7836 14.3382 40.2803C14.0303 40.0685 13.6193 40.0917 13.3385 40.3373L10.578 42.7418L7.03701 39.2008L9.44155 36.4401C9.68684 36.159 9.7099 35.7475 9.49859 35.4404C7.99529 33.2584 6.98993 30.8307 6.51026 28.2248C6.44289 27.858 6.13539 27.5836 5.76339 27.558L2.10993 27.3056V22.2987L5.76339 22.0463C6.13549 22.0207 6.44289 21.7464 6.51026 21.3795C6.99002 18.7744 7.99529 16.3463 9.49859 14.1639C9.7099 13.8565 9.68636 13.4453 9.44155 13.1642L7.03701 10.4037L10.578 6.8627L13.3387 9.26724C13.6194 9.51166 14.0305 9.53482 14.3384 9.32428C16.5208 7.82097 18.9489 6.81561 21.554 6.33595C21.9209 6.26857 22.1952 5.96108 22.2208 5.58908L22.4732 1.93561H27.4801L27.7325 5.58908C27.7581 5.96117 28.0324 6.26857 28.3993 6.33595C31.0044 6.81571 33.4325 7.82097 35.6149 9.32428C35.9216 9.53482 36.3327 9.51166 36.6146 9.26724L39.3751 6.8627L42.9161 10.4037L40.5116 13.1644C40.2668 13.4455 40.2432 13.8566 40.4545 14.1641C41.9578 16.3465 42.9632 18.7746 43.4429 21.3797C43.5102 21.7465 43.8177 22.0209 44.1897 22.0465L47.8432 22.2989V27.3056Z" fill="#224D99"/>
<path d="M24.9759 8.46875C15.9699 8.46875 8.64258 15.7961 8.64258 24.8021C8.64258 29.5778 10.7156 33.8678 13.9941 36.8571C14.0474 36.9268 14.1134 36.9823 14.1865 37.0319C17.0675 39.5768 20.8388 41.1355 24.9759 41.1355C29.2721 41.1355 33.1743 39.4555 36.0932 36.734C36.1322 36.703 36.1689 36.673 36.2015 36.6355C39.3395 33.6572 41.3093 29.4596 41.3093 24.8022C41.3093 15.7961 33.982 8.46875 24.9759 8.46875ZM15.4815 36.0055L16.461 22.3354H19.6067L20.7894 38.8866C18.8144 38.2983 17.0145 37.3067 15.4815 36.0055ZM16.5782 20.702L16.7531 18.2608H19.3156L19.49 20.702H16.5782ZM34.7759 35.7278C32.1721 38.0659 28.7427 39.5021 24.9759 39.5021C24.1147 39.5021 23.2755 39.4127 22.4545 39.2698L21.8064 30.2001L24.4177 26.8549L24.9903 31.4367C25.0314 31.7669 25.2691 32.0393 25.5908 32.1246C25.9134 32.2108 26.254 32.0915 26.4538 31.8256L29.884 27.2521V31.3355C29.884 31.6872 30.1089 31.9995 30.4426 32.1103C30.7759 32.2211 31.1432 32.1063 31.3542 31.8252L34.7759 27.2554V35.7278ZM36.4093 34.0214V24.8021C36.4093 24.4504 36.1844 24.1381 35.8507 24.0273C35.5174 23.9156 35.15 24.0313 34.9391 24.3124L31.5173 28.8822V24.8021C31.5173 24.4504 31.2924 24.1386 30.9591 24.0273C30.6265 23.9165 30.2589 24.0313 30.0475 24.312L26.3602 29.228L25.7944 24.7009C25.7537 24.3735 25.5196 24.1027 25.2014 24.015C24.8812 23.9277 24.5435 24.0393 24.3405 24.2997L21.6327 27.7686L21.1879 21.544C21.1882 21.5351 21.1931 21.5276 21.1931 21.5186C21.1931 21.4999 21.1836 21.4841 21.1824 21.4656L20.8909 17.3859C20.8601 16.9584 20.5045 16.6274 20.0761 16.6274H15.9928C15.5645 16.6274 15.2088 16.9584 15.178 17.3859L14.8831 21.5021C14.883 21.5079 14.8797 21.5127 14.8797 21.5186C14.8797 21.5214 14.8813 21.5237 14.8814 21.5265L13.9522 34.494C11.6717 31.9036 10.2759 28.5165 10.2759 24.8021C10.2759 16.6964 16.8703 10.1021 24.9759 10.1021C33.0816 10.1021 39.6759 16.6964 39.6759 24.8021C39.6759 28.2919 38.4484 31.4975 36.4093 34.0214Z" fill="#224D99"/>
<path d="M34.7759 35.7278C32.1721 38.0659 28.7427 39.5021 24.9759 39.5021C24.1147 39.5021 23.2755 39.4127 22.4545 39.2698L21.8064 30.2001L24.4177 26.8549L24.9903 31.4367C25.0314 31.7669 25.2691 32.0393 25.5908 32.1246C25.9134 32.2108 26.254 32.0915 26.4538 31.8256L29.884 27.2521V31.3355C29.884 31.6872 30.1089 31.9995 30.4426 32.1103C30.7759 32.2211 31.1432 32.1063 31.3542 31.8252L34.7759 27.2554V35.7278Z" fill="#224D99"/>
<path d="M15.4815 36.0055L16.461 22.3354H19.6067L20.7894 38.8866C18.8144 38.2983 17.0145 37.3067 15.4815 36.0055Z" fill="#224D99"/>
<path d="M16.5782 20.702L16.7531 18.2608H19.3156L19.49 20.702H16.5782Z" fill="#224D99"/>
</g>
<defs>
<clipPath id="clip0_76_1514">
<rect width="49" height="49" fill="white" transform="translate(0.476562 0.302246)"/>
</clipPath>
</defs>
</svg>
