<svg width="51" height="51" viewBox="0 0 51 51" fill="none" xmlns="http://www.w3.org/2000/svg">
<g clip-path="url(#clip0_8_3522)">
<path d="M8.22559 47.7656H11.1553C10.6428 47.7654 10.1353 47.6642 9.66198 47.4677C9.18863 47.2712 8.75867 46.9834 8.39668 46.6205C8.03469 46.2577 7.74778 45.8271 7.55236 45.3533C7.35695 44.8796 7.25686 44.3719 7.25782 43.8594V19.3496C7.25682 18.837 7.35687 18.3292 7.55225 17.8553C7.74763 17.3814 8.0345 16.9506 8.39647 16.5877C8.75845 16.2247 9.18841 15.9366 9.66179 15.7399C10.1352 15.5433 10.6427 15.4418 11.1553 15.4414H8.22559C7.71298 15.4418 7.20548 15.5433 6.7321 15.7399C6.25873 15.9366 5.82876 16.2247 5.46679 16.5877C5.10482 16.9506 4.81794 17.3814 4.62256 17.8553C4.42718 18.3292 4.32713 18.837 4.32813 19.3496V43.8594C4.32717 44.3719 4.42726 44.8796 4.62268 45.3533C4.81809 45.8271 5.105 46.2577 5.46699 46.6205C5.82898 46.9834 6.25895 47.2712 6.7323 47.4677C7.20564 47.6642 7.71309 47.7654 8.22559 47.7656Z" fill="#D4E1F4"/>
<path d="M14.0093 30.4384C13.8901 31.5694 13.9197 32.7111 14.0972 33.8343L12.6974 35.1766C12.6108 35.2596 12.5518 35.3672 12.5283 35.4849C12.5049 35.6025 12.5181 35.7245 12.5662 35.8344L14.1902 39.546C14.2389 39.6571 14.3208 39.7503 14.4246 39.8129C14.5284 39.8755 14.6491 39.9044 14.77 39.8956L16.7068 39.7532C17.4091 40.6507 18.2387 41.4409 19.1693 42.0988L19.1124 44.033C19.1088 44.1542 19.1429 44.2735 19.21 44.3745C19.2771 44.4755 19.3739 44.5532 19.4871 44.5968L23.265 46.055C23.3776 46.0985 23.501 46.106 23.6181 46.0767C23.7352 46.0474 23.8404 45.9826 23.9193 45.8912L25.1744 44.4361C26.3053 44.5553 27.4469 44.5258 28.5702 44.3482L29.9125 45.7478C29.9955 45.8343 30.1031 45.8933 30.2207 45.9168C30.3383 45.9403 30.4603 45.9272 30.5703 45.8791L34.2819 44.2552C34.393 44.2066 34.4862 44.1248 34.5488 44.0209C34.6114 43.9171 34.6403 43.7964 34.6314 43.6754L34.489 41.7387C35.3865 41.0364 36.1767 40.2068 36.8346 39.2762L38.7689 39.3332C38.8901 39.3367 39.0094 39.3025 39.1104 39.2354C39.2114 39.1683 39.289 39.0715 39.3327 38.9584L40.7908 35.1804C40.8342 35.0678 40.8418 34.9445 40.8125 34.8273C40.7832 34.7102 40.7184 34.605 40.627 34.5261L39.173 33.271C39.2922 32.1401 39.2627 30.9984 39.0851 29.8751L40.4847 28.5329C40.5713 28.4498 40.6303 28.3423 40.6538 28.2246C40.6772 28.107 40.664 27.985 40.616 27.8751L38.9921 24.1635C38.9434 24.0525 38.8615 23.9593 38.7577 23.8967C38.6539 23.8341 38.5333 23.8052 38.4124 23.8139L36.4756 23.9563C35.7733 23.0588 34.9437 22.2686 34.0131 21.6107L34.0701 19.6765C34.0736 19.5553 34.0395 19.436 33.9724 19.335C33.9053 19.234 33.8085 19.1563 33.6954 19.1126L29.9173 17.6544C29.8047 17.611 29.6814 17.6035 29.5642 17.6328C29.4471 17.6621 29.3419 17.7269 29.263 17.8183L28.0081 19.2734C26.8769 19.154 25.735 19.1835 24.6116 19.3613L23.2691 17.9613C23.1861 17.8747 23.0785 17.8157 22.9609 17.7922C22.8433 17.7688 22.7213 17.782 22.6114 17.83L18.8997 19.4539C18.7886 19.5025 18.6953 19.5843 18.6327 19.6882C18.5701 19.792 18.5413 19.9127 18.5501 20.0336L18.6925 21.9705C17.795 22.6727 17.0048 23.5023 16.347 24.4329L14.4127 24.3759C14.2916 24.3729 14.1725 24.4073 14.0717 24.4743C13.9708 24.5414 13.893 24.6379 13.8489 24.7507L12.3908 28.5287C12.3473 28.6413 12.3398 28.7646 12.3691 28.8818C12.3984 28.9989 12.4632 29.1041 12.5546 29.183L14.0093 30.4384ZM14.7928 25.5595L16.6318 25.6136C16.7311 25.6164 16.8295 25.594 16.9178 25.5484C17.0061 25.5028 17.0814 25.4356 17.1366 25.353C17.8147 24.3348 18.6647 23.4422 19.6486 22.7153C19.7281 22.6565 19.7915 22.5785 19.8327 22.4886C19.874 22.3987 19.8919 22.2999 19.8846 22.2012L19.7493 20.3613L22.7064 19.0675L23.9806 20.3962C24.0477 20.4661 24.1311 20.5183 24.2233 20.5481C24.3155 20.5779 24.4136 20.5844 24.5089 20.567C25.7179 20.3457 26.954 20.3137 28.1728 20.4723C28.269 20.4849 28.3668 20.4733 28.4574 20.4387C28.548 20.4041 28.6286 20.3475 28.6919 20.2741L29.8805 18.8963L32.8866 20.0566L32.8325 21.8956C32.8295 21.9949 32.8519 22.0933 32.8975 22.1817C32.9431 22.27 33.0104 22.3452 33.0931 22.4003C34.1114 23.0784 35.0039 23.9284 35.7308 24.9124C35.7897 24.9918 35.8676 25.0552 35.9575 25.0964C36.0474 25.1377 36.1462 25.1556 36.2449 25.1484L38.0848 25.013L39.3786 27.9702L38.0499 29.2444C37.9799 29.3115 37.9277 29.3948 37.8979 29.487C37.8681 29.5792 37.8616 29.6774 37.8791 29.7727C38.1005 30.9815 38.1324 32.2174 37.9738 33.436C37.9613 33.5321 37.9728 33.6299 38.0074 33.7205C38.042 33.8111 38.0985 33.8917 38.1719 33.955L39.5489 35.1439L38.3886 38.15L36.5497 38.0958C36.4503 38.0931 36.352 38.1156 36.2637 38.1611C36.1754 38.2067 36.1001 38.2739 36.0449 38.3565C35.3668 39.3747 34.5168 40.2673 33.5329 40.9942C33.4533 41.053 33.39 41.131 33.3488 41.2209C33.3075 41.3108 33.2897 41.4096 33.2969 41.5083L33.4322 43.3482L30.4751 44.6419L29.2013 43.3128C29.1342 43.2429 29.0509 43.1907 28.9587 43.1609C28.8665 43.1311 28.7683 43.1246 28.673 43.142C27.4642 43.3635 26.2283 43.3954 25.0097 43.2368C24.9135 43.2243 24.8158 43.2358 24.7252 43.2704C24.6345 43.305 24.5539 43.3616 24.4906 43.435L23.302 44.8127L20.296 43.6529L20.3501 41.8139C20.3531 41.7146 20.3307 41.6161 20.2851 41.5278C20.2394 41.4395 20.1721 41.3643 20.0894 41.3091C19.0712 40.6311 18.1787 39.7811 17.4518 38.7971C17.393 38.7176 17.3151 38.6542 17.2252 38.6129C17.1353 38.5717 17.0364 38.5539 16.9377 38.5612L15.0977 38.6964L13.8039 35.7393L15.132 34.4651C15.2019 34.398 15.2541 34.3146 15.2839 34.2224C15.3137 34.1302 15.3202 34.0321 15.3028 33.9368C15.0814 32.728 15.0494 31.4921 15.2081 30.2735C15.2205 30.1773 15.209 30.0796 15.1744 29.989C15.1398 29.8984 15.0832 29.8178 15.0098 29.7544L13.6322 28.5656L14.7928 25.5595Z" fill="#1AE5BE"/>
<path d="M26.5907 38.9324C27.9727 38.9324 29.3236 38.5226 30.4726 37.7548C31.6217 36.9871 32.5173 35.8958 33.0461 34.619C33.5749 33.3422 33.7133 31.9373 33.4436 30.5819C33.174 29.2265 32.5085 27.9815 31.5313 27.0044C30.5541 26.0272 29.309 25.3618 27.9536 25.0922C26.5982 24.8227 25.1933 24.9611 23.9166 25.49C22.6398 26.0189 21.5486 26.9145 20.7809 28.0636C20.0132 29.2127 19.6034 30.5637 19.6035 31.9456C19.6057 33.798 20.3426 35.5739 21.6525 36.8837C22.9624 38.1936 24.7383 38.9303 26.5907 38.9324ZM26.5907 26.1297C27.7409 26.1297 28.8652 26.4707 29.8215 27.1097C30.7778 27.7487 31.5232 28.6569 31.9633 29.7195C32.4035 30.782 32.5187 31.9513 32.2944 33.0793C32.07 34.2074 31.5162 35.2436 30.703 36.0569C29.8898 36.8702 28.8536 37.4241 27.7256 37.6485C26.5976 37.873 25.4283 37.7579 24.3657 37.3179C23.3031 36.8778 22.3948 36.1325 21.7557 35.1763C21.1167 34.22 20.7755 33.0957 20.7754 31.9456C20.777 30.4038 21.3903 28.9255 22.4805 27.8353C23.5707 26.745 25.0489 26.1317 26.5907 26.13V26.1297Z" fill="#1AE5BE"/>
<path d="M26.5918 41.6621C28.5136 41.6621 30.3922 41.0922 31.9902 40.0245C33.5881 38.9568 34.8335 37.4393 35.5689 35.6638C36.3044 33.8883 36.4968 31.9345 36.1219 30.0497C35.747 28.1648 34.8215 26.4334 33.4626 25.0745C32.1037 23.7156 30.3723 22.7902 28.4875 22.4152C26.6026 22.0403 24.6489 22.2327 22.8733 22.9682C21.0978 23.7036 19.5803 24.949 18.5126 26.547C17.4449 28.1449 16.875 30.0235 16.875 31.9453C16.8779 34.5215 17.9026 36.9913 19.7242 38.8129C21.5458 40.6345 24.0156 41.6592 26.5918 41.6621ZM18.5611 31.3594H18.0674C18.1867 29.4997 18.9201 27.7322 20.1524 26.3344L20.4989 26.6809C20.6088 26.7908 20.7579 26.8525 20.9133 26.8525C21.0687 26.8525 21.2177 26.7908 21.3276 26.6809C21.4375 26.571 21.4993 26.4219 21.4993 26.2665C21.4993 26.1111 21.4375 25.962 21.3276 25.8522L20.9825 25.5057C22.3809 24.2733 24.1487 23.5399 26.0088 23.4205V23.9144C26.0088 24.0698 26.0705 24.2188 26.1804 24.3287C26.2903 24.4386 26.4393 24.5003 26.5947 24.5003C26.7501 24.5003 26.8992 24.4386 27.009 24.3287C27.1189 24.2188 27.1807 24.0698 27.1807 23.9144V23.4205C29.0399 23.5398 30.8068 24.2733 32.204 25.5057L31.8567 25.8521C31.8 25.9059 31.7546 25.9706 31.7233 26.0422C31.692 26.1139 31.6753 26.1911 31.6743 26.2693C31.6732 26.3475 31.6879 26.4251 31.7173 26.4975C31.7467 26.57 31.7904 26.6358 31.8457 26.6912C31.9009 26.7465 31.9667 26.7902 32.0392 26.8197C32.1116 26.8492 32.1892 26.8639 32.2674 26.8629C32.3456 26.8619 32.4228 26.8453 32.4945 26.814C32.5662 26.7828 32.6309 26.7374 32.6848 26.6808L33.0312 26.3344C34.2636 27.7323 34.9969 29.4997 35.1162 31.3594H34.6221C34.4667 31.3594 34.3176 31.4211 34.2078 31.531C34.0979 31.6409 34.0361 31.7899 34.0361 31.9453C34.0361 32.1007 34.0979 32.2498 34.2078 32.3596C34.3176 32.4695 34.4667 32.5313 34.6221 32.5313H35.1158C34.9965 34.3908 34.2631 36.1582 33.0308 37.5559L32.6843 37.2093C32.6301 37.1537 32.5655 37.1093 32.4941 37.0789C32.4227 37.0485 32.346 37.0325 32.2684 37.032C32.1907 37.0315 32.1138 37.0464 32.042 37.0758C31.9702 37.1053 31.9049 37.1487 31.8501 37.2036C31.7952 37.2585 31.7517 37.3237 31.7223 37.3955C31.6928 37.4673 31.6779 37.5442 31.6784 37.6219C31.6789 37.6995 31.6949 37.7762 31.7253 37.8476C31.7557 37.919 31.8 37.9837 31.8557 38.0378L32.2036 38.3844C30.8065 39.6166 29.0397 40.35 27.1807 40.4694V39.9756C27.1807 39.8202 27.1189 39.6712 27.009 39.5613C26.8992 39.4514 26.7501 39.3897 26.5947 39.3897C26.4393 39.3897 26.2903 39.4514 26.1804 39.5613C26.0705 39.6712 26.0088 39.8202 26.0088 39.9756V40.4694C24.1487 40.3501 22.3809 39.6167 20.9825 38.3844L21.3283 38.0378C21.4382 37.9278 21.4999 37.7787 21.4998 37.6233C21.4998 37.4678 21.438 37.3188 21.328 37.2089C21.2736 37.1545 21.209 37.1113 21.1378 37.0819C21.0667 37.0525 20.9905 37.0373 20.9135 37.0374C20.7581 37.0374 20.609 37.0992 20.4991 37.2092L20.1525 37.5559C18.9202 36.1582 18.1867 34.3908 18.0674 32.5313H18.5611C18.7165 32.5313 18.8656 32.4695 18.9755 32.3596C19.0853 32.2498 19.1471 32.1007 19.1471 31.9453C19.1471 31.7899 19.0853 31.6409 18.9755 31.531C18.8656 31.4211 18.7165 31.3594 18.5611 31.3594Z" fill="#1AE5BE"/>
<path d="M26.5998 34.2109C26.5964 34.2109 26.5932 34.2109 26.5901 34.2109C26.5869 34.2109 26.5835 34.2109 26.5803 34.2109C26.355 34.2082 26.1398 34.1168 25.9813 33.9566C25.8228 33.7963 25.7338 33.5801 25.7335 33.3548C25.7345 33.2773 25.7201 33.2004 25.6912 33.1285C25.6622 33.0566 25.6193 32.9912 25.5648 32.9361C25.5104 32.8809 25.4455 32.8371 25.374 32.8072C25.3025 32.7774 25.2258 32.762 25.1483 32.762C25.0708 32.762 24.9941 32.7774 24.9226 32.8072C24.8511 32.8371 24.7863 32.8809 24.7318 32.9361C24.6774 32.9912 24.6344 33.0566 24.6055 33.1285C24.5765 33.2004 24.5621 33.2773 24.5631 33.3548C24.5552 33.7925 24.6926 34.2205 24.9538 34.5718C25.215 34.9231 25.5854 35.1779 26.0069 35.2963V35.6562C26.0069 35.8117 26.0686 35.9607 26.1785 36.0706C26.2884 36.1805 26.4374 36.2422 26.5928 36.2422C26.7482 36.2422 26.8972 36.1805 27.0071 36.0706C27.117 35.9607 27.1787 35.8117 27.1787 35.6562V35.2968C27.6 35.1783 27.97 34.9234 28.2308 34.5721C28.4916 34.2207 28.6285 33.7928 28.62 33.3553C28.6192 32.8174 28.4052 32.3017 28.0247 31.9214C27.6443 31.5411 27.1286 31.3273 26.5907 31.3268C26.4212 31.3269 26.2555 31.2768 26.1145 31.1827C25.9735 31.0886 25.8636 30.9549 25.7986 30.7984C25.7337 30.6418 25.7166 30.4695 25.7496 30.3033C25.7826 30.1371 25.8641 29.9843 25.9839 29.8645C26.1037 29.7446 26.2564 29.6629 26.4226 29.6298C26.5888 29.5967 26.7611 29.6136 26.9177 29.6784C27.0743 29.7433 27.2081 29.8531 27.3023 29.994C27.3964 30.1349 27.4467 30.3005 27.4467 30.47C27.4467 30.6256 27.5085 30.7748 27.6185 30.8848C27.7285 30.9948 27.8778 31.0566 28.0333 31.0566C28.1889 31.0566 28.3381 30.9948 28.4481 30.8848C28.5582 30.7748 28.62 30.6256 28.62 30.47C28.6286 30.0324 28.4918 29.6044 28.2309 29.2529C27.9701 28.9015 27.6001 28.6465 27.1787 28.528V28.2344C27.1787 28.079 27.117 27.9299 27.0071 27.8201C26.8972 27.7102 26.7482 27.6484 26.5928 27.6484C26.4374 27.6484 26.2884 27.7102 26.1785 27.8201C26.0686 27.9299 26.0069 28.079 26.0069 28.2344V28.5281C25.5853 28.6465 25.2149 28.9012 24.9536 29.2525C24.6923 29.6038 24.5549 30.0319 24.5628 30.4696C24.5633 31.0074 24.777 31.523 25.1572 31.9033C25.5374 32.2836 26.0529 32.4976 26.5907 32.4982C26.8164 32.4991 27.0327 32.5891 27.1925 32.7486C27.3522 32.9082 27.4426 33.1243 27.4438 33.3501C27.445 33.5759 27.357 33.793 27.1989 33.9542C27.0409 34.1154 26.8256 34.2076 26.5998 34.2109Z" fill="#1AE5BE"/>
<path d="M44.9561 14.8555H36.0664V12.1201C36.0699 11.6477 35.9801 11.1793 35.802 10.7418C35.6239 10.3042 35.3611 9.90618 35.0287 9.57051C34.6963 9.23484 34.3009 8.96816 33.8651 8.78578C33.4294 8.60341 32.9618 8.50894 32.4895 8.50781H20.6926C20.2205 8.50902 19.7532 8.60357 19.3178 8.78604C18.8824 8.96851 18.4873 9.23528 18.1554 9.57101C17.8235 9.90674 17.5612 10.3048 17.3837 10.7423C17.2062 11.1798 17.1169 11.648 17.1211 12.1201V14.8555H8.22568C7.03537 14.8578 5.89462 15.3324 5.05398 16.1751C4.21334 17.0179 3.74154 18.1598 3.74219 19.3501V43.8594C3.74149 45.0495 4.21335 46.1912 5.05407 47.0335C5.89479 47.8759 7.03557 48.35 8.22568 48.3516H44.9561C46.1468 48.3502 47.2883 47.8763 48.1299 47.0341C48.9716 46.1919 49.4447 45.0501 49.4453 43.8594V19.3501C49.4447 18.1592 48.9717 17.0171 48.1301 16.1745C47.2885 15.3318 46.147 14.8575 44.9561 14.8555ZM32.7461 14.8555H20.4414V12.1201C20.4414 11.9585 20.5307 11.8281 20.6923 11.8281H32.4892C32.5257 11.8288 32.5618 11.8372 32.5949 11.8526C32.6281 11.868 32.6577 11.8901 32.6819 11.9176C32.7061 11.945 32.7243 11.9772 32.7353 12.0121C32.7464 12.047 32.75 12.0837 32.7461 12.1201V14.8555ZM41.1445 16.0273V47.1797H12.043V16.0273H41.1445ZM18.293 12.1201C18.2886 11.8019 18.3474 11.486 18.466 11.1906C18.5845 10.8953 18.7604 10.6263 18.9836 10.3994C19.2067 10.1725 19.4726 9.992 19.7659 9.86847C20.0592 9.74493 20.374 9.68077 20.6923 9.67969H32.4892C32.8078 9.68056 33.123 9.74453 33.4167 9.86791C33.7105 9.9913 33.9769 10.1716 34.2005 10.3986C34.4241 10.6255 34.6006 10.8944 34.7197 11.1899C34.8389 11.4854 34.8983 11.8015 34.8945 12.1201V14.8555H33.918V12.1201C33.9217 11.9298 33.8876 11.7407 33.8176 11.5637C33.7476 11.3867 33.643 11.2254 33.5101 11.0892C33.3772 10.953 33.2185 10.8445 33.0433 10.7702C32.868 10.6959 32.6798 10.6571 32.4895 10.6562H20.6926C20.5025 10.6572 20.3145 10.6959 20.1396 10.7703C19.9647 10.8447 19.8064 10.9533 19.6739 11.0896C19.5414 11.2258 19.4374 11.3872 19.3679 11.5641C19.2985 11.7411 19.2651 11.9301 19.2695 12.1201V14.8555H18.293V12.1201ZM4.91406 43.8594V19.3501C4.91297 18.4704 5.26117 17.6263 5.88214 17.0033C6.5031 16.3802 7.34603 16.0292 8.22568 16.0273H10.8711V47.1797H8.22568C7.34627 47.1784 6.50337 46.8279 5.88234 46.2053C5.26132 45.5826 4.91303 44.7388 4.91406 43.8594ZM48.2734 43.8594C48.2732 44.7394 47.9236 45.5833 47.3017 46.2058C46.6797 46.8284 45.8361 47.1786 44.9561 47.1797H42.3164V16.0273H44.9561C45.8363 16.029 46.6799 16.3798 47.3019 17.0027C47.9238 17.6256 48.2732 18.4698 48.2734 19.3501V43.8594Z" fill="#0635C9"/>
<path d="M6.47656 20.3242C6.32116 20.3242 6.17213 20.386 6.06224 20.4958C5.95236 20.6057 5.89063 20.7548 5.89062 20.9102V21.5938C5.89063 21.7492 5.95236 21.8982 6.06224 22.0081C6.17213 22.118 6.32116 22.1797 6.47656 22.1797C6.63196 22.1797 6.781 22.118 6.89088 22.0081C7.00077 21.8982 7.0625 21.7492 7.0625 21.5938V20.9102C7.0625 20.7548 7.00077 20.6057 6.89088 20.4958C6.781 20.386 6.63196 20.3242 6.47656 20.3242Z" fill="#0635C9"/>
<path d="M6.47656 22.7656C6.32116 22.7656 6.17213 22.8274 6.06224 22.9372C5.95236 23.0471 5.89063 23.1962 5.89062 23.3516V32.043C5.89063 32.1984 5.95236 32.3474 6.06224 32.4573C6.17213 32.5672 6.32116 32.6289 6.47656 32.6289C6.63196 32.6289 6.781 32.5672 6.89088 32.4573C7.00077 32.3474 7.0625 32.1984 7.0625 32.043V23.3516C7.0625 23.1962 7.00077 23.0471 6.89088 22.9372C6.781 22.8274 6.63196 22.7656 6.47656 22.7656Z" fill="#0635C9"/>
</g>
<defs>
<clipPath id="clip0_8_3522">
<rect width="50" height="50" fill="white" transform="translate(0.226562 0.597656)"/>
</clipPath>
</defs>
</svg>
