<svg width="51" height="51" viewBox="0 0 51 51" fill="none" xmlns="http://www.w3.org/2000/svg">
<g clip-path="url(#clip0_8_3533)">
<g clip-path="url(#clip1_8_3533)">
<g clip-path="url(#clip2_8_3533)">
<path d="M4.32812 40.4414H6.57422V40.3711V33.3125V29.2109H3.54688V33.3125V40.3438H1.30078V42.9805H4.32812V40.4414Z" fill="#D4E1F4"/>
<path d="M44.4373 8.22134L40.4774 7.53687C40.3251 7.51214 40.1691 7.54852 40.0434 7.63813C39.9177 7.72774 39.8324 7.86332 39.8062 8.01543C39.7799 8.16753 39.8147 8.32387 39.903 8.45047C39.9913 8.57707 40.126 8.66371 40.2778 8.69156L42.9077 9.14615L25.6899 21.1837L15.8906 16.008C15.7852 15.9523 15.6653 15.9302 15.5469 15.9444C15.4285 15.9587 15.3173 16.0087 15.2281 16.0878L4.84949 25.2926C4.73323 25.3958 4.66269 25.5408 4.65339 25.696C4.6441 25.8511 4.69681 26.0036 4.79993 26.1198C4.90305 26.2361 5.04814 26.3066 5.20327 26.3159C5.3584 26.3252 5.51086 26.2725 5.62713 26.1694L15.7018 17.2338L25.4589 22.3873C25.5541 22.4376 25.6614 22.4606 25.7689 22.454C25.8764 22.4473 25.98 22.4111 26.0682 22.3494L43.5078 10.1562L43.0752 12.6586C43.0621 12.7345 43.064 12.8121 43.0809 12.8872C43.0978 12.9623 43.1294 13.0333 43.1737 13.0962C43.2181 13.159 43.2744 13.2126 43.3394 13.2537C43.4044 13.2948 43.4769 13.3227 43.5528 13.3358C43.6286 13.349 43.7063 13.347 43.7813 13.3301C43.8564 13.3132 43.9274 13.2817 43.9903 13.2373C44.0532 13.193 44.1067 13.1367 44.1478 13.0716C44.1889 13.0066 44.2169 12.9341 44.23 12.8583L44.9148 8.89859C44.9279 8.82277 44.926 8.7451 44.9091 8.67003C44.8922 8.59496 44.8607 8.52395 44.8163 8.46106C44.772 8.39817 44.7157 8.34463 44.6507 8.3035C44.5856 8.26237 44.5131 8.23445 44.4373 8.22134Z" fill="#1AE5BE"/>
<path d="M49.1523 39.8556H48.4688V16.0113C48.4689 15.9354 48.4539 15.8603 48.4246 15.7903C48.3954 15.7204 48.3524 15.657 48.2982 15.6039C48.244 15.5508 48.1797 15.5091 48.1092 15.4812C48.0387 15.4533 47.9632 15.4399 47.8874 15.4416H42.6107C42.5346 15.4397 42.4588 15.4531 42.3879 15.4809C42.317 15.5086 42.2523 15.5502 42.1976 15.6033C42.1429 15.6563 42.0994 15.7197 42.0695 15.7898C42.0396 15.8598 42.0239 15.9351 42.0234 16.0113V39.8556H38.7031V22.3089C38.7069 22.1514 38.649 21.9987 38.5417 21.8834C38.4345 21.7681 38.2864 21.6992 38.1291 21.6916H32.8524C32.693 21.6983 32.5423 21.7662 32.4315 21.8812C32.3208 21.9961 32.2586 22.1493 32.2578 22.3089V39.8556H28.9375V25.3388C28.9375 25.0152 28.6945 24.7189 28.3711 24.7189H23.0942C22.9337 24.7259 22.782 24.7941 22.6701 24.9093C22.5582 25.0245 22.4945 25.1782 22.4922 25.3388V39.8556H19.1719V22.4017C19.1719 22.2393 19.1073 22.0835 18.9925 21.9686C18.8776 21.8538 18.7218 21.7892 18.5594 21.7892H13.3359C13.1745 21.7897 13.0197 21.854 12.9056 21.9682C12.7914 22.0824 12.727 22.2371 12.7266 22.3986V29.0158C12.7266 29.1712 12.7883 29.3202 12.8982 29.4301C13.0081 29.54 13.1571 29.6017 13.3125 29.6017C13.4679 29.6017 13.6169 29.54 13.7268 29.4301C13.8367 29.3202 13.8984 29.1712 13.8984 29.0158V27.0627H18V39.8556H13.8984V33.1174C13.8984 32.962 13.8367 32.8129 13.7268 32.703C13.6169 32.5931 13.4679 32.5314 13.3125 32.5314C13.1571 32.5314 13.0081 32.5931 12.8982 32.703C12.7883 32.8129 12.7266 32.962 12.7266 33.1174V39.8556H9.40625V29.2451C9.40625 28.9215 9.17803 28.6252 8.85439 28.6252H3.57773C3.41568 28.6316 3.26206 28.6991 3.14767 28.8141C3.03328 28.929 2.96657 29.083 2.96094 29.2451V39.8556H1.30078C1.22572 39.8518 1.15066 39.8632 1.08011 39.8891C1.00956 39.915 0.944975 39.9549 0.890241 40.0064C0.835507 40.0579 0.791754 40.1199 0.761612 40.1888C0.73147 40.2576 0.715562 40.3318 0.714844 40.407V43.0814C0.714894 43.1582 0.730107 43.2342 0.75961 43.3051C0.789113 43.376 0.832324 43.4404 0.886764 43.4945C0.941204 43.5487 1.0058 43.5915 1.07685 43.6207C1.1479 43.6498 1.224 43.6646 1.30078 43.6642H49.1523C49.2291 43.6646 49.3052 43.6498 49.3763 43.6207C49.4473 43.5915 49.5119 43.5487 49.5664 43.4945C49.6208 43.4404 49.664 43.376 49.6935 43.3051C49.723 43.2342 49.7382 43.1582 49.7383 43.0814V40.407C49.7376 40.3318 49.7217 40.2576 49.6915 40.1888C49.6614 40.1199 49.6176 40.0579 49.5629 40.0064C49.5081 39.9549 49.4436 39.915 49.373 39.8891C49.3025 39.8632 49.2274 39.8518 49.1523 39.8556ZM13.8984 25.8908V22.9611H18V25.8908H13.8984ZM47.2969 16.6134V19.5431H43.1953V16.6134H47.2969ZM43.1953 20.715H47.2969V39.8556H43.1953V20.715ZM37.5312 22.8634V25.7931H33.4297V22.8634H37.5312ZM33.4297 26.965H37.5312V39.8556H33.4297V26.965ZM27.7656 25.8908V28.8205H23.6641V25.8908H27.7656ZM23.6641 29.9924H27.7656V39.8556H23.6641V29.9924ZM8.23438 29.797V32.7267H4.13281V29.797H8.23438ZM4.13281 33.8986H8.23438V39.8556H4.13281V33.8986ZM48.5664 42.4924H1.88672V41.0275H48.5664V42.4924Z" fill="#0635C9"/>
</g>
</g>
</g>
<defs>
<clipPath id="clip0_8_3533">
<rect width="50" height="50" fill="white" transform="translate(0.226562 0.597656)"/>
</clipPath>
<clipPath id="clip1_8_3533">
<rect width="50" height="50" fill="white" transform="translate(0.226562 0.597656)"/>
</clipPath>
<clipPath id="clip2_8_3533">
<rect width="50" height="50" fill="white" transform="translate(0.226562 0.597656)"/>
</clipPath>
</defs>
</svg>
