<svg width="51" height="51" viewBox="0 0 51 51" fill="none" xmlns="http://www.w3.org/2000/svg">
<g clip-path="url(#clip0_8_3510)">
<g clip-path="url(#clip1_8_3510)">
<path d="M15.8516 10.7198V29.0401C16.8133 29.5185 17.6904 30.1509 18.4482 30.9122C18.562 31.0258 18.673 31.1422 18.7812 31.2613V10.7198C18.7865 10.4923 18.8812 10.2761 19.0448 10.1179C19.2084 9.95982 19.4278 9.87255 19.6553 9.87505H16.7256C16.4981 9.87255 16.2787 9.95982 16.1151 10.1179C15.9515 10.2761 15.8568 10.4923 15.8516 10.7198Z" fill="#D4E1F4"/>
<path d="M11.3513 30.2539C9.81546 30.2539 8.31414 30.7093 7.03714 31.5625C5.76015 32.4157 4.76485 33.6285 4.17709 35.0474C3.58933 36.4663 3.43553 38.0276 3.73511 39.5339C4.0347 41.0402 4.77423 42.4238 5.86019 43.5099C6.94614 44.5959 8.32975 45.3355 9.83604 45.6351C11.3423 45.9348 12.9037 45.7811 14.3226 45.1934C15.7415 44.6057 16.9543 43.6104 17.8076 42.3335C18.6609 41.0565 19.1164 39.5552 19.1164 38.0194C19.1141 35.9607 18.2953 33.9868 16.8396 32.531C15.3838 31.0752 13.4101 30.2563 11.3513 30.2539ZM11.3513 44.6125C10.0472 44.6125 8.77243 44.2258 7.68814 43.5013C6.60385 42.7769 5.75875 41.7471 5.25971 40.5423C4.76066 39.3375 4.6301 38.0118 4.88452 36.7328C5.13893 35.4538 5.76691 34.279 6.68904 33.3569C7.61116 32.4348 8.78601 31.8068 10.065 31.5524C11.344 31.2981 12.6697 31.4287 13.8745 31.9277C15.0793 32.4268 16.109 33.272 16.8335 34.3563C17.5579 35.4406 17.9446 36.7154 17.9445 38.0194C17.9425 39.7674 17.2472 41.4432 16.0111 42.6792C14.7751 43.9152 13.0993 44.6105 11.3513 44.6125Z" fill="#1AE5BE"/>
<path d="M11.351 35.3324C11.6246 35.3327 11.8869 35.4415 12.0804 35.635C12.2739 35.8284 12.3827 36.0907 12.3831 36.3644C12.385 36.519 12.4479 36.6665 12.5579 36.7752C12.6679 36.8838 12.8163 36.9447 12.9709 36.9447C13.1255 36.9447 13.2739 36.8838 13.3839 36.7752C13.4939 36.6665 13.5567 36.519 13.5587 36.3644C13.5587 35.3521 12.8234 34.4975 11.9445 34.2402V33.8574C11.9445 33.702 11.8827 33.553 11.7729 33.4431C11.663 33.3332 11.5139 33.2715 11.3585 33.2715C11.2031 33.2715 11.0541 33.3332 10.9442 33.4431C10.8343 33.553 10.7726 33.702 10.7726 33.8574V34.2402C10.3031 34.361 9.88795 34.6361 9.59379 35.0214C9.29963 35.4067 9.14361 35.8797 9.15082 36.3644C9.15106 36.9485 9.38307 37.5087 9.79593 37.9219C10.2088 38.3351 10.7687 38.5676 11.3529 38.5684C11.4884 38.5677 11.6227 38.5938 11.7481 38.645C11.8735 38.6963 11.9876 38.7717 12.0839 38.8671C12.1801 38.9624 12.2566 39.0758 12.3091 39.2008C12.3615 39.3257 12.3889 39.4597 12.3895 39.5952C12.3901 39.7307 12.3641 39.865 12.3128 39.9904C12.2616 40.1158 12.1861 40.2299 12.0908 40.3262C11.9954 40.4225 11.882 40.499 11.7571 40.5514C11.6322 40.6039 11.4981 40.6312 11.3626 40.6318C11.3588 40.6318 11.3548 40.6313 11.351 40.6313C11.3472 40.6313 11.3434 40.6313 11.3396 40.6318C11.068 40.6287 10.8086 40.5186 10.6175 40.3256C10.4265 40.1325 10.3192 39.872 10.3188 39.6004C10.3188 39.4455 10.2573 39.2969 10.1477 39.1874C10.0382 39.0778 9.88962 39.0163 9.73471 39.0163C9.5798 39.0163 9.43124 39.0778 9.3217 39.1874C9.21217 39.2969 9.15063 39.4455 9.15063 39.6004C9.14342 40.0851 9.29947 40.5582 9.59366 40.9435C9.88786 41.3288 10.3031 41.6039 10.7726 41.7246V42.181C10.7726 42.3364 10.8343 42.4854 10.9442 42.5953C11.0541 42.7052 11.2031 42.7669 11.3585 42.7669C11.5139 42.7669 11.663 42.7052 11.7729 42.5953C11.8827 42.4854 11.9445 42.3364 11.9445 42.181V41.7246C12.8234 41.4673 13.5587 40.6128 13.5587 39.6004C13.5576 39.0159 13.3248 38.4557 12.9113 38.0425C12.4978 37.6294 11.9374 37.3971 11.3529 37.3965C11.0792 37.3967 10.8166 37.2882 10.6228 37.0949C10.4291 36.9015 10.3202 36.6391 10.3199 36.3654C10.3197 36.0917 10.4282 35.8291 10.6215 35.6354C10.8149 35.4416 11.0773 35.3327 11.351 35.3324Z" fill="#1AE5BE"/>
<path d="M36.9827 17.7852C37.1381 17.7852 37.2871 17.7234 37.397 17.6135C37.5069 17.5037 37.5687 17.3546 37.5687 17.1992C37.5687 17.0438 37.5069 16.8948 37.397 16.7849C37.2871 16.675 37.1381 16.6133 36.9827 16.6133H36.3418C36.1864 16.6133 36.0374 16.675 35.9275 16.7849C35.8176 16.8948 35.7559 17.0438 35.7559 17.1992C35.7559 17.3546 35.8176 17.5037 35.9275 17.6135C36.0374 17.7234 36.1864 17.7852 36.3418 17.7852H36.9827Z" fill="#0635C9"/>
<path d="M34.3457 16.6133H24.9492C24.7938 16.6133 24.6448 16.675 24.5349 16.7849C24.425 16.8948 24.3633 17.0438 24.3633 17.1992C24.3633 17.3546 24.425 17.5037 24.5349 17.6135C24.6448 17.7234 24.7938 17.7852 24.9492 17.7852H34.3457C34.5011 17.7852 34.6501 17.7234 34.76 17.6135C34.8699 17.5037 34.9316 17.3546 34.9316 17.1992C34.9316 17.0438 34.8699 16.8948 34.76 16.7849C34.6501 16.675 34.5011 16.6133 34.3457 16.6133Z" fill="#0635C9"/>
<path d="M19.5918 17.7852H22.9137C23.0691 17.7852 23.2181 17.7234 23.328 17.6135C23.4379 17.5037 23.4996 17.3546 23.4996 17.1992C23.4996 17.0438 23.4379 16.8948 23.328 16.7849C23.2181 16.675 23.0691 16.6133 22.9137 16.6133H19.5918C19.4364 16.6133 19.2874 16.675 19.1775 16.7849C19.0676 16.8948 19.0059 17.0438 19.0059 17.1992C19.0059 17.3546 19.0676 17.5037 19.1775 17.6135C19.2874 17.7234 19.4364 17.7852 19.5918 17.7852Z" fill="#0635C9"/>
<path d="M34.6016 21.7891C34.6016 21.9445 34.6633 22.0935 34.7732 22.2034C34.8831 22.3133 35.0321 22.375 35.1875 22.375H36.9837C37.1391 22.375 37.2881 22.3133 37.398 22.2034C37.5079 22.0935 37.5696 21.9445 37.5696 21.7891C37.5696 21.6337 37.5079 21.4846 37.398 21.3747C37.2881 21.2649 37.1391 21.2031 36.9837 21.2031H35.1875C35.0321 21.2031 34.8831 21.2649 34.7732 21.3747C34.6633 21.4846 34.6016 21.6337 34.6016 21.7891Z" fill="#0635C9"/>
<path d="M30.7949 21.2031C30.6395 21.2031 30.4905 21.2649 30.3806 21.3747C30.2707 21.4846 30.209 21.6337 30.209 21.7891C30.209 21.9445 30.2707 22.0935 30.3806 22.2034C30.4905 22.3133 30.6395 22.375 30.7949 22.375H33.2427C33.3981 22.375 33.5471 22.3133 33.657 22.2034C33.7669 22.0935 33.8286 21.9445 33.8286 21.7891C33.8286 21.6337 33.7669 21.4846 33.657 21.3747C33.5471 21.2649 33.3981 21.2031 33.2427 21.2031H30.7949Z" fill="#0635C9"/>
<path d="M19.5918 22.375H29.0858C29.2412 22.375 29.3903 22.3133 29.5002 22.2034C29.61 22.0935 29.6718 21.9445 29.6718 21.7891C29.6718 21.6337 29.61 21.4846 29.5002 21.3747C29.3903 21.2649 29.2412 21.2031 29.0858 21.2031H19.5918C19.4364 21.2031 19.2874 21.2649 19.1775 21.3747C19.0676 21.4846 19.0059 21.6337 19.0059 21.7891C19.0059 21.9445 19.0676 22.0935 19.1775 22.2034C19.2874 22.3133 19.4364 22.375 19.5918 22.375Z" fill="#0635C9"/>
<path d="M31.2216 27.2578C31.377 27.2578 31.526 27.1961 31.6359 27.0862C31.7458 26.9763 31.8075 26.8273 31.8075 26.6719C31.8075 26.5165 31.7458 26.3674 31.6359 26.2576C31.526 26.1477 31.377 26.0859 31.2216 26.0859H19.5918C19.4364 26.0859 19.2874 26.1477 19.1775 26.2576C19.0676 26.3674 19.0059 26.5165 19.0059 26.6719C19.0059 26.8273 19.0676 26.9763 19.1775 27.0862C19.2874 27.1961 19.4364 27.2578 19.5918 27.2578H31.2216Z" fill="#0635C9"/>
<path d="M21.3379 30.5781C21.1825 30.5781 21.0335 30.6399 20.9236 30.7497C20.8137 30.8596 20.752 31.0087 20.752 31.1641C20.752 31.3195 20.8137 31.4685 20.9236 31.5784C21.0335 31.6883 21.1825 31.75 21.3379 31.75H24.2692C24.4246 31.75 24.5737 31.6883 24.6836 31.5784C24.7934 31.4685 24.8552 31.3195 24.8552 31.1641C24.8552 31.0087 24.7934 30.8596 24.6836 30.7497C24.5737 30.6399 24.4246 30.5781 24.2692 30.5781H21.3379Z" fill="#0635C9"/>
<path d="M47.2849 20.1716C46.5934 20.0236 45.8718 20.1232 45.2462 20.453V6.87646C45.2451 6.57635 45.1848 6.27938 45.0689 6.00257C44.9529 5.72576 44.7835 5.47453 44.5704 5.26325C44.3572 5.05197 44.1045 4.8848 43.8267 4.77129C43.5488 4.65779 43.2514 4.60018 42.9512 4.60176H31.5685C30.9728 3.33223 29.726 2.55566 28.2873 2.55566C26.8486 2.55566 25.6029 3.33223 25.0067 4.60176H13.6238C13.3253 4.60078 13.0296 4.65903 12.7537 4.77312C12.4779 4.88722 12.2274 5.0549 12.0168 5.26646C11.8062 5.47802 11.6397 5.72925 11.5268 6.00561C11.414 6.28197 11.3571 6.57797 11.3594 6.87646V27.9416H12.5313V6.87646C12.5288 6.73182 12.5553 6.58813 12.6091 6.45387C12.663 6.31961 12.7432 6.19749 12.845 6.09471C12.9469 5.99194 13.0682 5.91058 13.202 5.85543C13.3357 5.80029 13.4791 5.77248 13.6238 5.77363H24.6595C24.6435 5.9133 24.6372 6.0539 24.6407 6.19443V7.14082H19.5919C19.4331 7.14021 19.2804 7.20115 19.1656 7.31083C19.0509 7.42052 18.9832 7.57041 18.9766 7.729V9.28926H16.7257C16.3429 9.2871 15.9747 9.4362 15.7013 9.70411C15.4279 9.97203 15.2713 10.3371 15.2657 10.7198V29.0158H16.4376V10.7198C16.4429 10.6479 16.4759 10.5808 16.5296 10.5325C16.5833 10.4843 16.6535 10.4587 16.7257 10.4611H18.9766V11.8213C18.983 11.9804 19.0505 12.1309 19.1651 12.2414C19.2798 12.3519 19.4326 12.4138 19.5919 12.4143H36.9837C37.3072 12.4143 37.5313 12.1448 37.5313 11.8213V10.4611H39.8496C39.9966 10.4611 40.0704 10.5729 40.0704 10.7198V23.7999L28.8027 31.2141C28.7235 31.2688 28.6599 31.3432 28.6181 31.4299H28.6236L26.3517 35.728C26.3048 35.8175 26.2817 35.9176 26.2848 36.0186C26.2878 36.1196 26.3169 36.2181 26.3691 36.3046C26.4214 36.3911 26.4951 36.4626 26.5831 36.5123C26.6712 36.562 26.7705 36.5881 26.8716 36.5881H26.8709L31.8673 36.4562V36.4555C31.9742 36.4519 32.0782 36.419 32.1677 36.3604L40.0704 31.1666V33.8986H37.4355C37.1387 33.8962 36.8444 33.9531 36.5699 34.0659C36.2953 34.1787 36.046 34.3452 35.8367 34.5556C35.6273 34.766 35.462 35.016 35.3506 35.2911C35.2391 35.5662 35.1837 35.8608 35.1876 36.1576V38.7814H21.3204V39.9533H35.4004C35.6122 39.9525 35.8219 39.9097 36.0171 39.8275C36.2124 39.7452 36.3895 39.6252 36.5382 39.4742L40.7938 35.1916C40.9406 35.0406 41.0559 34.8619 41.1329 34.6659C41.2099 34.4698 41.2471 34.2604 41.2423 34.0499V30.3976L44.0743 28.5702V42.3425C44.0734 42.6404 43.955 42.9259 43.7446 43.1369C43.5343 43.3478 43.2491 43.4672 42.9512 43.4689H19.3673V44.6408H42.9512C43.5598 44.6387 44.1428 44.3957 44.5728 43.9651C45.0029 43.5344 45.2449 42.9511 45.2462 42.3425V27.8002L48.3516 25.7592C48.8604 25.4247 49.2587 24.9469 49.496 24.3862C49.7332 23.8254 49.799 23.2069 49.6848 22.6088C49.5706 22.0107 49.2817 21.4599 48.8545 21.026C48.4273 20.5921 47.8811 20.2946 47.2848 20.1711L47.2849 20.1716ZM36.3594 38.0309V36.1576C36.3554 36.0147 36.3804 35.8724 36.4328 35.7394C36.4853 35.6064 36.5643 35.4854 36.6649 35.3838C36.7655 35.2822 36.8856 35.202 37.0181 35.1482C37.1505 35.0943 37.2926 35.0679 37.4355 35.0705H39.3087L36.3594 38.0309ZM36.3594 11.2424H20.1485V8.3127H25.2184C25.3744 8.31351 25.5245 8.2526 25.6358 8.14326C25.7471 8.03392 25.8106 7.88501 25.8126 7.729V6.19443C25.8126 5.53398 26.0749 4.90058 26.5419 4.43357C27.009 3.96656 27.6424 3.7042 28.3028 3.7042C28.9633 3.7042 29.5967 3.96656 30.0637 4.43357C30.5307 4.90058 30.793 5.53398 30.793 6.19443V7.729C30.7906 7.80464 30.8034 7.87999 30.8306 7.95059C30.8578 8.0212 30.8989 8.08563 30.9515 8.14006C31.0041 8.19449 31.067 8.23781 31.1367 8.26746C31.2063 8.29712 31.2811 8.3125 31.3568 8.3127H36.3594V11.2424ZM39.8496 9.28926H37.5313V7.729C37.5313 7.40547 37.3067 7.14082 36.9837 7.14082H31.9649V6.19443C31.9601 6.05307 31.9438 5.91234 31.9161 5.77363H42.9512C43.0975 5.77187 43.2427 5.79904 43.3784 5.85359C43.5142 5.90813 43.6378 5.98898 43.7421 6.09147C43.8465 6.19397 43.9296 6.31609 43.9866 6.4508C44.0436 6.58552 44.0734 6.73018 44.0743 6.87646V21.2033L41.2423 23.0306V10.7198C41.2423 9.92666 40.6427 9.28926 39.8496 9.28926ZM44.9141 22.0514L45.6392 23.1549L30.6842 32.9758L29.9588 31.8723L44.9141 22.0514ZM29.2012 32.8537L30.8171 35.3126L27.8589 35.3901L29.2012 32.8537ZM32.0528 35.0595L31.3273 33.9554L46.2824 24.1343L47.0082 25.2388L32.0528 35.0595ZM47.9708 24.569L45.9112 21.4343C46.3223 21.258 46.7823 21.232 47.2107 21.3608C47.639 21.4897 48.0084 21.7651 48.254 22.139C48.4996 22.5128 48.6059 22.9612 48.5541 23.4055C48.5023 23.8498 48.2958 24.2617 47.9708 24.569Z" fill="#0635C9"/>
<path d="M17.9023 11.7471C17.7469 11.7471 17.5979 11.8088 17.488 11.9187C17.3781 12.0286 17.3164 12.1776 17.3164 12.333V12.6245C17.3164 12.7799 17.3781 12.9289 17.488 13.0388C17.5979 13.1487 17.7469 13.2104 17.9023 13.2104C18.0577 13.2104 18.2068 13.1487 18.3167 13.0388C18.4265 12.9289 18.4883 12.7799 18.4883 12.6245V12.333C18.4883 12.1776 18.4265 12.0286 18.3167 11.9187C18.2068 11.8088 18.0577 11.7471 17.9023 11.7471Z" fill="#0635C9"/>
<path d="M17.9023 13.9238C17.7469 13.9238 17.5979 13.9856 17.488 14.0954C17.3781 14.2053 17.3164 14.3544 17.3164 14.5098V22.9734C17.3164 23.1288 17.3781 23.2779 17.488 23.3878C17.5979 23.4976 17.7469 23.5594 17.9023 23.5594C18.0577 23.5594 18.2068 23.4976 18.3167 23.3878C18.4265 23.2779 18.4883 23.1288 18.4883 22.9734V14.5098C18.4883 14.3544 18.4265 14.2053 18.3167 14.0954C18.2068 13.9856 18.0577 13.9238 17.9023 13.9238Z" fill="#0635C9"/>
<path d="M11.3516 27.3262C9.23662 27.3262 7.16917 27.9533 5.41066 29.1283C3.65214 30.3033 2.28155 31.9734 1.47219 33.9274C0.662836 35.8813 0.451072 38.0314 0.863678 40.1057C1.27628 42.18 2.29473 44.0854 3.79022 45.5809C5.28571 47.0764 7.19109 48.0948 9.2654 48.5074C11.3397 48.92 13.4898 48.7083 15.4437 47.8989C17.3977 47.0896 19.0678 45.719 20.2428 43.9604C21.4178 42.2019 22.0449 40.1345 22.0449 38.0195C22.0417 35.1845 20.9141 32.4664 18.9094 30.4617C16.9047 28.457 14.1866 27.3294 11.3516 27.3262ZM20.3582 38.5859H20.8482C20.7313 40.707 19.8954 42.7249 18.4782 44.3073L18.135 43.9688C18.0244 43.86 17.8752 43.7994 17.7201 43.8002C17.565 43.801 17.4164 43.8631 17.307 43.9731C17.1975 44.083 17.136 44.2318 17.1359 44.3869C17.1358 44.5421 17.1971 44.691 17.3064 44.8011L17.6535 45.1449C16.066 46.546 14.058 47.3799 11.945 47.5159V47.026C11.945 46.8706 11.8833 46.7215 11.7734 46.6117C11.6635 46.5018 11.5145 46.44 11.3591 46.44C11.2037 46.44 11.0547 46.5018 10.9448 46.6117C10.8349 46.7215 10.7731 46.8706 10.7731 47.026V47.5159C8.65812 47.3801 6.64791 46.5465 5.05752 45.1456L5.39932 44.8022C5.5092 44.6922 5.57086 44.543 5.57072 44.3874C5.57058 44.2319 5.50866 44.0828 5.39859 43.9729C5.28851 43.863 5.1393 43.8014 4.98376 43.8015C4.82823 43.8016 4.67912 43.8636 4.56924 43.9736L4.22569 44.3073C2.80815 42.7251 1.97192 40.7071 1.85479 38.5859H2.34473C2.50013 38.5859 2.64917 38.5242 2.75905 38.4143C2.86894 38.3044 2.93067 38.1554 2.93067 38C2.93067 37.8446 2.86894 37.6956 2.75905 37.5857C2.64917 37.4758 2.50013 37.4141 2.34473 37.4141H1.85479C1.99067 35.303 2.82454 33.2971 4.2252 31.7118L4.56856 32.06C4.62269 32.1144 4.68701 32.1576 4.75784 32.1871C4.82867 32.2167 4.90462 32.232 4.98137 32.2322C5.05811 32.2323 5.13414 32.2174 5.20512 32.1882C5.27609 32.159 5.34062 32.1161 5.39502 32.062C5.44943 32.0079 5.49263 31.9436 5.52218 31.8727C5.55172 31.8019 5.56703 31.7259 5.56722 31.6492C5.56741 31.5725 5.55248 31.4964 5.52329 31.4255C5.49409 31.3545 5.45121 31.2899 5.39708 31.2355L5.05752 30.8926C6.64792 29.4918 8.65814 28.6582 10.7731 28.5226V29.0125C10.7731 29.1679 10.8349 29.3169 10.9448 29.4268C11.0547 29.5367 11.2037 29.5984 11.3591 29.5984C11.5145 29.5984 11.6635 29.5367 11.7734 29.4268C11.8833 29.3169 11.945 29.1679 11.945 29.0125V28.5226C14.0578 28.6584 16.0656 29.4921 17.6531 30.8929L17.3079 31.2361C17.2528 31.2903 17.2089 31.3548 17.1788 31.4259C17.1487 31.4971 17.133 31.5736 17.1326 31.6508C17.1322 31.7281 17.1471 31.8047 17.1764 31.8762C17.2057 31.9477 17.249 32.0127 17.3035 32.0674C17.3581 32.1221 17.423 32.1654 17.4944 32.1949C17.5658 32.2244 17.6424 32.2395 17.7197 32.2393C17.797 32.239 17.8734 32.2235 17.9447 32.1936C18.0159 32.1636 18.0805 32.1199 18.1348 32.0648L18.478 31.7119C19.8786 33.2972 20.7124 35.3031 20.8482 37.4141H20.3582C20.2028 37.4141 20.0538 37.4758 19.9439 37.5857C19.834 37.6956 19.7723 37.8446 19.7723 38C19.7723 38.1554 19.834 38.3044 19.9439 38.4143C20.0538 38.5242 20.2028 38.5859 20.3582 38.5859Z" fill="#1AE5BE"/>
</g>
</g>
<defs>
<clipPath id="clip0_8_3510">
<rect width="50" height="50" fill="white" transform="translate(0.226562 0.597656)"/>
</clipPath>
<clipPath id="clip1_8_3510">
<rect width="50" height="50" fill="white" transform="translate(0.226562 0.597656)"/>
</clipPath>
</defs>
</svg>
