<svg width="51" height="51" viewBox="0 0 51 51" fill="none" xmlns="http://www.w3.org/2000/svg">
<g clip-path="url(#clip0_8_3557)">
<g clip-path="url(#clip1_8_3557)">
<g clip-path="url(#clip2_8_3557)">
<path d="M20.1925 38.386C20.0431 36.1399 18.8497 33.9416 16.962 32.5393C13.1856 29.7346 10.7794 25.3381 10.797 20.3733C10.8247 12.489 17.2382 5.79592 25.3652 5.08683C24.5445 5.0163 23.7198 5.00553 22.8976 5.05461C14.5528 5.54484 7.8956 12.3478 7.86728 20.381C7.84971 25.3458 10.256 29.734 14.0323 32.5392C15.92 33.941 17.1134 36.1399 17.2628 38.386H20.1925Z" fill="#D4E1F4"/>
<path d="M13.683 33.0091C15.2456 34.1636 16.296 35.8823 16.6107 37.7995H16.1668C16.0056 37.8065 15.8531 37.8746 15.7403 37.9899C15.6274 38.1052 15.5626 38.2591 15.559 38.4204V46.6422C15.5624 46.8044 15.6269 46.9594 15.7395 47.0762C15.8522 47.1929 16.0048 47.2629 16.1668 47.2721H17.3527L17.5871 47.9597C17.8142 48.645 18.2528 49.2406 18.8397 49.661C19.4265 50.0814 20.1316 50.305 20.8535 50.2995H26.957C27.679 50.305 28.384 50.0814 28.9709 49.661C29.5579 49.2406 29.9964 48.645 30.2235 47.9597L30.4579 47.2721H31.643C31.8058 47.2634 31.9595 47.1938 32.0734 47.0771C32.1874 46.9604 32.2533 46.8052 32.2582 46.6422V38.4204C32.253 38.2583 32.1867 38.1042 32.0726 37.9891C31.9585 37.8739 31.805 37.8062 31.643 37.7995H31.2035C31.5141 35.9003 32.5499 34.1958 34.0926 33.0454C38.1824 29.9705 40.5281 25.377 40.5281 20.4282C40.5281 16.0953 38.756 12.0423 35.5379 9.00807C32.1853 5.84547 27.5631 4.19254 22.8637 4.4694C18.6955 4.70994 14.7668 6.49625 11.8455 9.47916C8.9167 12.4674 7.2959 16.33 7.28135 20.3706C7.26358 25.3733 9.59678 29.9747 13.683 33.0091ZM31.0863 38.9714V40.7292H16.7309V38.9714H31.0863ZM29.1106 47.5924C28.9603 48.0434 28.6708 48.4351 28.2838 48.7109C27.8967 48.9868 27.432 49.1327 26.9567 49.1276H20.8532C20.3779 49.1328 19.9132 48.9869 19.5262 48.711C19.1391 48.4351 18.8496 48.0434 18.6994 47.5924L18.5863 47.2721H29.2235L29.1106 47.5924ZM16.7309 46.1003V41.901H31.0863V46.1003H16.7309ZM12.6824 10.3005C15.4001 7.52596 19.0547 5.86466 22.932 5.64127C27.3125 5.38385 31.615 6.92321 34.7346 9.86481C37.7152 12.6755 39.3567 16.4299 39.3567 20.4367C39.3567 25.0142 37.1816 29.2575 33.3891 32.1091C32.4773 32.7859 31.7095 33.6378 31.1308 34.6149C30.552 35.5919 30.1739 36.6746 30.0185 37.7995H17.7938C17.6367 36.6647 17.2538 35.5729 16.6678 34.5885C16.0817 33.6041 15.3044 32.7472 14.3816 32.0682C10.5981 29.2582 8.43672 25.0017 8.45323 20.3753C8.4666 16.6418 9.96856 13.0695 12.6824 10.3005Z" fill="#0635C9"/>
<path d="M18.4819 43.0732H18.0625C17.9071 43.0732 17.7581 43.135 17.6482 43.2449C17.5383 43.3547 17.4766 43.5038 17.4766 43.6592C17.4766 43.8146 17.5383 43.9636 17.6482 44.0735C17.7581 44.1834 17.9071 44.2451 18.0625 44.2451H18.4819C18.6373 44.2451 18.7864 44.1834 18.8963 44.0735C19.0061 43.9636 19.0679 43.8146 19.0679 43.6592C19.0679 43.5038 19.0061 43.3547 18.8963 43.2449C18.7864 43.135 18.6373 43.0732 18.4819 43.0732Z" fill="#0635C9"/>
<path d="M26 43.0732H20.5312C20.3758 43.0732 20.2268 43.135 20.1169 43.2449C20.007 43.3547 19.9453 43.5038 19.9453 43.6592C19.9453 43.8146 20.007 43.9636 20.1169 44.0735C20.2268 44.1834 20.3758 44.2451 20.5312 44.2451H26C26.1554 44.2451 26.3044 44.1834 26.4143 44.0735C26.5242 43.9636 26.5859 43.8146 26.5859 43.6592C26.5859 43.5038 26.5242 43.3547 26.4143 43.2449C26.3044 43.135 26.1554 43.0732 26 43.0732Z" fill="#0635C9"/>
<path d="M21.1377 7.60534C21.177 7.60535 21.2163 7.60142 21.2549 7.59362C21.4736 7.54929 21.697 7.51003 21.9189 7.47702C21.995 7.46567 22.0682 7.43943 22.1341 7.39981C22.2001 7.3602 22.2576 7.30798 22.3034 7.24613C22.3492 7.18429 22.3824 7.11403 22.401 7.03937C22.4196 6.96471 22.4234 6.88711 22.412 6.81101C22.4007 6.7349 22.3744 6.66177 22.3348 6.59581C22.2952 6.52984 22.243 6.47232 22.1811 6.42654C22.1193 6.38075 22.049 6.34759 21.9744 6.32896C21.8997 6.31033 21.8221 6.30658 21.746 6.31794C21.5045 6.35407 21.2611 6.39685 21.0226 6.44489C20.8802 6.47368 20.7535 6.55434 20.6673 6.67122C20.581 6.78809 20.5412 6.93286 20.5556 7.07741C20.5701 7.22196 20.6377 7.356 20.7454 7.45352C20.853 7.55104 20.9931 7.60507 21.1384 7.60515L21.1377 7.60534Z" fill="#0635C9"/>
<path d="M18.7546 8.37025C18.8976 8.30938 19.0106 8.19421 19.0686 8.05005C19.1267 7.9059 19.1251 7.74459 19.0643 7.60159C19.0034 7.4586 18.8882 7.34564 18.7441 7.28757C18.5999 7.22949 18.4386 7.23106 18.2956 7.29193C15.7261 8.38225 13.5347 10.2054 11.9952 12.5336C10.4556 14.8619 9.63595 17.5921 9.63868 20.3833C9.63868 20.5387 9.70041 20.6878 9.8103 20.7977C9.92018 20.9075 10.0692 20.9693 10.2246 20.9693C10.38 20.9693 10.5291 20.9075 10.6389 20.7977C10.7488 20.6878 10.8106 20.5387 10.8106 20.3833C10.8081 17.822 11.5602 15.3166 12.973 13.1802C14.3858 11.0437 16.3967 9.37074 18.7546 8.37025Z" fill="#0635C9"/>
<path d="M42.7419 3.41356L41.3242 3.02215L40.9629 1.70721C40.9375 1.61486 40.8899 1.53013 40.8242 1.46043C40.7585 1.39074 40.6768 1.3382 40.5861 1.30743C40.4954 1.27666 40.3985 1.26859 40.304 1.28393C40.2095 1.29926 40.1201 1.33753 40.0438 1.3954L37.7801 3.11229C37.7066 3.16801 37.6473 3.24032 37.607 3.32333L36.5295 5.54295C36.4755 5.65401 36.4581 5.77925 36.4796 5.90082C36.501 6.02238 36.5604 6.13406 36.6491 6.21991L36.9785 6.53866L32.0138 11.5033C29.63 9.38122 26.5108 8.27551 23.3226 8.42239C20.1345 8.56927 17.1301 9.95711 14.9515 12.2894C12.7729 14.6217 11.5927 17.7135 11.6631 20.9042C11.7335 24.095 13.049 27.1317 15.3283 29.3656C17.6077 31.5996 20.6703 32.8535 23.8619 32.8596C27.0534 32.8657 30.1208 31.6235 32.4087 29.3983C34.6966 27.1731 36.0236 24.1415 36.1063 20.951C36.1889 17.7605 35.0205 14.6642 32.8508 12.3236L37.8207 7.35389L38.1637 7.68592C38.2529 7.77221 38.3671 7.82799 38.4899 7.84522C38.6128 7.86246 38.7379 7.84026 38.8473 7.78182L41.0121 6.62606C41.075 6.59229 41.1313 6.54731 41.1781 6.49335L43.0284 4.36229C43.0933 4.28755 43.1382 4.19758 43.1589 4.10078C43.1797 4.00398 43.1755 3.90351 43.1469 3.80874C43.1183 3.71397 43.0661 3.628 42.9953 3.55884C42.9245 3.48968 42.8373 3.4396 42.7419 3.41327V3.41356ZM34.9391 20.6187C34.9422 23.145 34.0795 25.596 32.4948 27.5633C30.9101 29.5306 28.699 30.8955 26.2301 31.4305C23.7612 31.9654 21.1835 31.6381 18.9265 30.5032C16.6696 29.3682 14.8698 27.4941 13.827 25.1932C12.7841 22.8923 12.5613 20.3034 13.1956 17.8581C13.8299 15.4129 15.283 13.2588 17.3128 11.7548C19.3426 10.2509 21.8264 9.48796 24.3504 9.59315C26.8745 9.69833 29.2862 10.6653 31.1838 12.3329L29.6027 13.9139C27.8606 12.4332 25.6112 11.6876 23.3296 11.8344C21.0479 11.9813 18.9127 13.0093 17.3748 14.7011C15.837 16.393 15.0169 18.6163 15.0878 20.9016C15.1587 23.1869 16.115 25.3551 17.7548 26.9484C19.3946 28.5417 21.5894 29.4353 23.8758 29.4404C26.1621 29.4456 28.361 28.5619 30.0079 26.9761C31.6549 25.3902 32.621 23.2263 32.7022 20.9414C32.7834 18.6565 31.9734 16.4295 30.4432 14.7306L32.0218 13.1521C33.8996 15.185 34.9415 17.8513 34.9395 20.6187H34.9391ZM25.4976 20.5515L23.3042 20.9736L23.7398 18.8473L25.4976 20.5515ZM23.788 17.2627C23.7126 17.1896 23.619 17.1381 23.5169 17.1136C23.4148 17.0891 23.3079 17.0926 23.2076 17.1235C23.1072 17.1544 23.017 17.2118 22.9465 17.2895C22.8759 17.3673 22.8275 17.4626 22.8063 17.5654L21.9803 21.5972C21.9609 21.6915 21.9651 21.7893 21.9925 21.8817C22.0199 21.9741 22.0696 22.0583 22.1373 22.1268C22.2051 22.1954 22.2886 22.2462 22.3807 22.2748C22.4727 22.3033 22.5704 22.3087 22.665 22.2905L26.8252 21.4897C26.9304 21.4695 27.0281 21.4207 27.1076 21.3488C27.187 21.2769 27.2453 21.1845 27.2759 21.0818C27.3065 20.9791 27.3084 20.8699 27.2813 20.7662C27.2542 20.6625 27.1992 20.5682 27.1222 20.4936L25.8828 19.2925L27.0524 18.1221C27.6839 18.9185 27.9906 19.9244 27.9109 20.9377C27.8312 21.951 27.3711 22.8966 26.6229 23.5846C25.8747 24.2725 24.8938 24.6519 23.8774 24.6464C22.861 24.6409 21.8843 24.2511 21.1436 23.5551C20.4028 22.8591 19.9529 21.9086 19.8841 20.8945C19.8153 19.8804 20.1328 18.8779 20.7729 18.0883C21.4129 17.2987 22.328 16.7805 23.3344 16.6378C24.3407 16.4952 25.3638 16.7387 26.198 17.3193L25.0407 18.4764L23.788 17.2627ZM27.0368 16.4808C25.9776 15.6783 24.6513 15.3115 23.3303 15.4557C22.0092 15.6 20.7934 16.2444 19.9323 17.2566C19.0713 18.2689 18.6303 19.5723 18.6998 20.8994C18.7693 22.2265 19.344 23.4767 20.3061 24.3935C21.2682 25.3103 22.5446 25.8242 23.8735 25.8297C25.2025 25.8351 26.4831 25.3318 27.4527 24.423C28.4223 23.5142 29.0073 22.2688 29.0878 20.9423C29.1682 19.6158 28.738 18.3088 27.8853 17.2894L29.6131 15.5617C30.9178 17.0382 31.5998 18.9626 31.5162 20.9311C31.4326 22.8996 30.5897 24.7592 29.1645 26.1197C27.7394 27.4802 25.8426 28.2358 23.8723 28.228C21.9021 28.2201 20.0114 27.4494 18.5971 26.0777C17.1828 24.7059 16.3548 22.8396 16.2868 20.8705C16.2188 18.9014 16.9162 16.9824 18.2325 15.5164C19.5489 14.0504 21.3819 13.1512 23.347 13.0075C25.312 12.8638 27.2563 13.4868 28.7719 14.7458L27.0368 16.4808ZM38.672 6.54676L37.769 5.67294L38.3071 4.56444L39.7524 5.96981L38.672 6.54676ZM40.7 5.25672L39.0312 3.63407L40.0624 2.85223L40.2823 3.65301C40.3091 3.75097 40.3609 3.84028 40.4326 3.91218C40.5043 3.98409 40.5935 4.03612 40.6914 4.06317L41.5342 4.29588L40.7 5.25672Z" fill="#1AE5BE"/>
</g>
</g>
</g>
<defs>
<clipPath id="clip0_8_3557">
<rect width="50" height="50" fill="white" transform="translate(0.226562 0.788086)"/>
</clipPath>
<clipPath id="clip1_8_3557">
<rect width="50" height="50" fill="white" transform="translate(0.226562 0.788086)"/>
</clipPath>
<clipPath id="clip2_8_3557">
<rect width="50" height="50" fill="white" transform="translate(0.226562 0.788086)"/>
</clipPath>
</defs>
</svg>
