<svg width="51" height="51" viewBox="0 0 51 51" fill="none" xmlns="http://www.w3.org/2000/svg">
<g clip-path="url(#clip0_8_3569)">
<g clip-path="url(#clip1_8_3569)">
<g clip-path="url(#clip2_8_3569)">
<path d="M15.0877 8.94727L14.7977 4.99805L19.4442 2.96494L18.6648 2.15234L12.1609 4.99805L12.451 8.94727C10.6571 10.2741 9.10349 11.8982 7.85742 13.7491L10.4422 13.8252C11.6969 11.9428 13.2687 10.2923 15.0877 8.94727Z" fill="#D4E1F4"/>
<path d="M4.4375 38.8541L6.99209 38.6664L4.22754 32.3502L7.07324 29.6207C6.66701 27.3978 6.60837 25.1253 6.89941 22.8844L3.9375 20.3287L6.46348 13.7857L3.85605 13.709L1.30078 20.3287L4.2627 22.8844C3.97165 25.1253 4.03029 27.3978 4.43652 29.6207L1.59082 32.3502L4.4375 38.8541Z" fill="#D4E1F4"/>
<path d="M19.7692 49.7139L20.4278 48.9503L15.7849 47.1582L15.9011 43.21C14.0191 41.9547 12.3687 40.383 11.0231 38.5645L8.52539 38.748C9.84515 40.4892 11.4469 41.9973 13.2644 43.21L13.1481 47.1582L19.7692 49.7139Z" fill="#D4E1F4"/>
<path d="M40.5525 25.4719L35.3864 14.5524C35.2489 14.2653 35.0081 14.0407 34.7121 13.9235C34.416 13.8064 34.0867 13.8054 33.79 13.9207L31.5994 14.7761C31.4393 14.8381 31.2937 14.9325 31.1717 15.0534C31.0496 15.1743 30.9539 15.319 30.8903 15.4786C30.8268 15.6381 30.7969 15.8091 30.8024 15.9807C30.8079 16.1524 30.8488 16.3211 30.9225 16.4762L31.1402 16.9337L31.0969 16.9521C30.2658 17.1225 29.6858 17.0975 28.8263 16.858L26.6378 16.2485C25.9847 16.066 25.2926 16.0771 24.6456 16.2804L22.5335 16.9425C22.1129 17.0741 21.7209 17.2841 21.3784 17.5616C20.8331 17.4017 20.2626 17.3459 19.6967 17.3971L19.8295 17.1465C19.9786 16.8643 20.0139 16.5356 19.9283 16.2281C19.8426 15.9206 19.6426 15.6576 19.3691 15.493L17.3573 14.2799C17.2106 14.1913 17.0474 14.1335 16.8775 14.1102C16.7077 14.0869 16.5349 14.0984 16.3697 14.1442C16.2045 14.1899 16.0504 14.2689 15.9168 14.3763C15.7832 14.4837 15.6729 14.6172 15.5927 14.7687L9.92317 25.5284C9.76962 25.8166 9.73579 26.1537 9.82901 26.4667C9.92223 26.7797 10.135 27.0433 10.4212 27.2005L12.4449 28.331C12.6321 28.4362 12.8432 28.4915 13.0579 28.4917C13.1797 28.4916 13.3008 28.474 13.4176 28.4394C13.5783 28.3927 13.7279 28.3141 13.8575 28.2083C13.9872 28.1025 14.0941 27.9716 14.1721 27.8236L14.3772 27.4367L15.0661 28.0061L13.7984 29.75C13.584 30.0447 13.4553 30.3929 13.4266 30.7562C13.3979 31.1194 13.4702 31.4835 13.6356 31.8082C13.801 32.1329 14.053 32.4055 14.3638 32.5959C14.6745 32.7862 15.0318 32.8868 15.3962 32.8867C15.5033 32.8865 15.6102 32.8777 15.7158 32.8604C15.7582 33.1155 15.8506 33.3598 15.9877 33.5791C16.1249 33.7984 16.3041 33.9884 16.515 34.1381C16.85 34.3776 17.2517 34.506 17.6636 34.5054C17.771 34.5052 17.8781 34.4964 17.9841 34.4791C18.0614 34.9395 18.2995 35.3576 18.6561 35.6589C19.0126 35.9603 19.4644 36.1254 19.9313 36.125C20.0384 36.1248 20.1454 36.1161 20.2511 36.0988C20.2934 36.3539 20.3858 36.5981 20.5229 36.8173C20.66 37.0365 20.8391 37.2265 21.0499 37.3762C21.4762 37.6789 22.0045 37.8017 22.5206 37.7179C23.0366 37.634 23.4989 37.3504 23.8074 36.9283L24.1981 36.3902L24.9377 36.9761C25.3644 37.3354 25.9149 37.5131 26.4711 37.4711C27.0273 37.4291 27.5449 37.1708 27.9128 36.7515C28.1785 36.4477 28.3503 36.0734 28.4073 35.6739C28.7947 35.7839 29.2055 35.7817 29.5918 35.6677C29.9781 35.5536 30.3241 35.3322 30.5897 35.0293C30.8554 34.7256 31.0272 34.3511 31.0842 33.9516C31.4717 34.0617 31.8825 34.0596 32.2688 33.9455C32.6551 33.8314 33.0011 33.61 33.2666 33.3071C33.5148 33.0227 33.6812 32.6764 33.748 32.3049C34.1542 32.4549 34.5963 32.4781 35.016 32.3713C35.4356 32.2646 35.813 32.033 36.0982 31.7072L36.1234 31.6779C36.3019 31.4734 36.438 31.2355 36.5239 30.978C36.6098 30.7206 36.6437 30.4486 36.6237 30.1779C36.6037 29.9072 36.5302 29.6432 36.4075 29.4011C36.2847 29.1591 36.1151 28.9438 35.9085 28.7677L35.4702 28.3927C35.7687 28.1875 36.0411 27.9468 36.2816 27.676C36.3984 27.8302 36.5494 27.9553 36.7227 28.0414C36.8959 28.1275 37.0868 28.1723 37.2803 28.1723C37.4525 28.1721 37.6229 28.1369 37.7811 28.0687L39.9127 27.1534C40.0672 27.0876 40.2069 26.9912 40.3232 26.8701C40.4396 26.749 40.5304 26.6056 40.5901 26.4486C40.6498 26.2916 40.6772 26.1242 40.6706 25.9563C40.6641 25.7885 40.6238 25.6237 40.5521 25.4718L40.5525 25.4719ZM13.1366 27.2748C13.1314 27.2847 13.1242 27.2934 13.1155 27.3004C13.1068 27.3073 13.0967 27.3125 13.086 27.3155C13.0745 27.3189 13.0624 27.3201 13.0505 27.3188C13.0385 27.3175 13.027 27.3137 13.0165 27.3078L10.9928 26.1775C10.9839 26.1729 10.976 26.1666 10.9695 26.159C10.963 26.1514 10.9581 26.1425 10.9551 26.133C10.952 26.1234 10.9509 26.1134 10.9518 26.1034C10.9526 26.0934 10.9555 26.0837 10.9601 26.0748L16.6305 15.3151C16.6359 15.305 16.6433 15.2961 16.6523 15.289C16.6613 15.2819 16.6717 15.2768 16.6827 15.274C16.6909 15.2717 16.6993 15.2705 16.7077 15.2704C16.7238 15.2705 16.7396 15.2749 16.7533 15.2833L18.7651 16.4965C18.7823 16.5062 18.795 16.5221 18.8007 16.541C18.8063 16.5599 18.8044 16.5803 18.7953 16.5978L13.1366 27.2748ZM16.056 31.3827C15.9299 31.5552 15.741 31.6711 15.5302 31.7053C15.3194 31.7396 15.1035 31.6895 14.9293 31.5658C14.843 31.5042 14.7697 31.426 14.7137 31.3359C14.6578 31.2457 14.6202 31.1454 14.6032 31.0407C14.5862 30.936 14.59 30.8289 14.6146 30.7257C14.6392 30.6225 14.6839 30.5251 14.7463 30.4393L16.8491 27.5463C16.9753 27.3737 17.1643 27.2577 17.3753 27.2234C17.5864 27.1891 17.8024 27.2393 17.9767 27.3631C18.063 27.4247 18.1362 27.5028 18.1921 27.5929C18.2481 27.683 18.2856 27.7832 18.3026 27.8879C18.3196 27.9925 18.3158 28.0995 18.2912 28.2026C18.2667 28.3058 18.2219 28.403 18.1596 28.4888L16.056 31.3827ZM18.3255 32.9882H18.3292L18.3224 33.0004C18.1965 33.1731 18.0076 33.2892 17.7967 33.3235C17.5858 33.3578 17.3699 33.3076 17.1957 33.1838C17.1095 33.1223 17.0364 33.0443 16.9805 32.9543C16.9246 32.8643 16.8871 32.7642 16.8701 32.6597C16.8531 32.5551 16.8569 32.4483 16.8814 32.3452C16.9059 32.2422 16.9505 32.145 17.0127 32.0593L18.5374 29.962C18.6635 29.7896 18.8523 29.6738 19.0632 29.6395C19.274 29.6052 19.4898 29.6553 19.664 29.7789C19.7506 29.8404 19.824 29.9185 19.8801 30.0087C19.9361 30.0988 19.9736 30.1993 19.9904 30.3041C20.0063 30.4098 20.0012 30.5176 19.9753 30.6213C19.9493 30.7249 19.9031 30.8224 19.8393 30.9081L18.3255 32.9882ZM20.6 34.6083L20.5911 34.6204C20.4651 34.7931 20.2762 34.9091 20.0653 34.9434C19.8544 34.9778 19.6384 34.9277 19.4642 34.8039C19.3778 34.7423 19.3046 34.6642 19.2486 34.574C19.1926 34.4839 19.155 34.3836 19.1379 34.2789C19.1209 34.1742 19.1248 34.0672 19.1493 33.9639C19.1739 33.8607 19.2186 33.7634 19.281 33.6776L20.3302 32.2338C20.4565 32.0614 20.6455 31.9455 20.8564 31.9112C21.0674 31.877 21.2834 31.9271 21.4577 32.0507C21.544 32.1123 21.6173 32.1904 21.6732 32.2805C21.7292 32.3706 21.7667 32.4708 21.7837 32.5755C21.8007 32.6802 21.7968 32.7872 21.7722 32.8903C21.7477 32.9935 21.7029 33.0907 21.6406 33.1765L20.6 34.6083ZM23.4338 35.4482L22.8592 36.2392C22.7329 36.4119 22.5437 36.5279 22.3326 36.5622C22.1214 36.5965 21.9052 36.5463 21.7308 36.4225C21.6446 36.361 21.5714 36.283 21.5155 36.193C21.4596 36.1031 21.422 36.0029 21.405 35.8984C21.388 35.7939 21.3919 35.687 21.4164 35.5839C21.4409 35.4809 21.4856 35.3838 21.5479 35.2981L22.1235 34.5062C22.2496 34.3336 22.4386 34.2176 22.6496 34.1833C22.8606 34.149 23.0767 34.1992 23.251 34.3229C23.3373 34.3845 23.4106 34.4626 23.4665 34.5526C23.5225 34.6427 23.5601 34.743 23.5771 34.8477C23.5941 34.9523 23.5902 35.0593 23.5656 35.1625C23.541 35.2656 23.4963 35.3629 23.4339 35.4487L23.4338 35.4482ZM35.2405 30.9078L35.2153 30.9371C35.0495 31.1273 34.8156 31.2446 34.5641 31.2638C34.3126 31.2829 34.0636 31.2023 33.871 31.0394L31.3273 28.8608C31.2093 28.7596 31.056 28.7095 30.901 28.7214C30.7461 28.7333 30.6022 28.8063 30.501 28.9243C30.3999 29.0423 30.3498 29.1956 30.3617 29.3506C30.3736 29.5055 30.4466 29.6494 30.5646 29.7505L32.2894 31.228C32.382 31.3074 32.4579 31.4044 32.5128 31.5133C32.5677 31.6223 32.6004 31.741 32.6092 31.8627C32.6179 31.9844 32.6024 32.1066 32.5636 32.2222C32.5249 32.3379 32.4635 32.4447 32.3832 32.5366C32.2175 32.7252 31.9841 32.8411 31.7336 32.8591C31.4832 32.8772 31.2356 32.7959 31.0446 32.6329L28.8748 30.7753C28.8152 30.7243 28.746 30.6858 28.6712 30.6621C28.5964 30.6383 28.5176 30.6299 28.4395 30.6371C28.3614 30.6444 28.2855 30.6673 28.2164 30.7045C28.1473 30.7416 28.0864 30.7923 28.0372 30.8534C27.9431 30.977 27.9003 31.1322 27.9178 31.2865C27.9353 31.4409 28.0118 31.5825 28.1313 31.6818L29.6091 32.9467C29.7025 33.0259 29.7791 33.1229 29.8347 33.232C29.8902 33.3411 29.9235 33.4602 29.9326 33.5823C29.9417 33.7044 29.9264 33.8271 29.8876 33.9432C29.8488 34.0594 29.7874 34.1667 29.7068 34.2588C29.541 34.4475 29.3077 34.5634 29.0572 34.5814C28.8068 34.5994 28.5592 34.5182 28.3682 34.3552L26.89 33.0903C26.7735 32.9875 26.6218 32.9337 26.4666 32.9401C26.3114 32.9465 26.1646 33.0127 26.0571 33.1247C26.0042 33.1827 25.9635 33.2508 25.9374 33.3248C25.9114 33.3988 25.9004 33.4773 25.9053 33.5557C25.9102 33.634 25.9307 33.7106 25.9657 33.7808C26.0007 33.8511 26.0495 33.9135 26.1091 33.9646L26.9322 34.6692C27.0255 34.7484 27.1022 34.8454 27.1577 34.9545C27.2132 35.0637 27.2465 35.1827 27.2556 35.3048C27.2647 35.4269 27.2494 35.5496 27.2106 35.6658C27.1719 35.7819 27.1104 35.8892 27.0298 35.9814C26.864 36.17 26.6307 36.2859 26.3802 36.3039C26.1297 36.322 25.8822 36.2407 25.6911 36.0778C25.6854 36.073 25.6797 36.068 25.6739 36.0635L24.729 35.3153C24.7769 35.0447 24.7676 34.7672 24.7017 34.5005C24.6358 34.2337 24.5148 33.9838 24.3465 33.7667C24.1781 33.5496 23.9662 33.3701 23.7243 33.2399C23.4824 33.1097 23.2159 33.0316 22.9419 33.0106C22.9846 32.742 22.9712 32.4675 22.9025 32.2044C22.8338 31.9413 22.7114 31.6953 22.5429 31.4819C22.3744 31.2685 22.1635 31.0923 21.9235 30.9644C21.6835 30.8366 21.4196 30.7599 21.1485 30.7391C21.1897 30.477 21.1777 30.2093 21.1131 29.9519C21.0485 29.6946 20.9326 29.453 20.7724 29.2414C20.6123 29.0299 20.4111 28.8529 20.1809 28.7209C19.9507 28.589 19.6963 28.5048 19.4328 28.4735C19.5225 28.0892 19.4968 27.687 19.3589 27.3173C19.2781 27.0974 19.1567 26.8946 19.0011 26.7195C18.8046 26.4957 18.5603 26.3189 18.2863 26.2021C18.0123 26.0854 17.7156 26.0317 17.418 26.045C17.1205 26.0582 16.8298 26.1382 16.5672 26.2789C16.3047 26.4196 16.0772 26.6174 15.9014 26.8578L15.7567 27.057L14.9376 26.38L19.0075 18.7001C19.5031 18.5635 20.0198 18.5209 20.531 18.5745C20.4721 18.6804 20.4188 18.7892 20.3712 18.9005L19.7258 20.459C19.5598 20.8594 19.4069 21.271 19.271 21.6818L18.6271 23.6302C18.5814 23.7685 18.5888 23.9188 18.6479 24.0518C18.707 24.1849 18.8135 24.2912 18.9467 24.35L19.0855 24.4114C19.6041 24.6462 20.1736 24.7466 20.7412 24.7031C21.3089 24.6597 21.8565 24.4739 22.3333 24.1628C22.7448 23.8942 23.0906 23.5366 23.3454 23.1165C23.6002 22.6964 23.7574 22.2244 23.8055 21.7354C23.8085 21.7038 23.8114 21.672 23.8138 21.6399C23.8441 21.5025 24.0423 20.7064 24.5551 20.6398L25.4518 20.8905C25.7823 20.9829 26.0842 21.1571 26.3297 21.397L32.1197 27.0685L35.1471 29.6588C35.2361 29.7343 35.3091 29.8267 35.362 29.9306C35.4149 30.0346 35.4466 30.148 35.4553 30.2644C35.4639 30.3807 35.4493 30.4976 35.4124 30.6082C35.3754 30.7189 35.3168 30.821 35.24 30.9088L35.2405 30.9078ZM34.5373 27.5938L32.8967 26.1905L27.1497 20.5594C26.7632 20.1815 26.2878 19.907 25.7672 19.7613L24.7773 19.4846C24.7251 19.4705 24.6713 19.4632 24.6172 19.4629C23.938 19.4657 23.3592 19.8438 22.9871 20.5263C22.8294 20.8197 22.7172 21.1353 22.6542 21.4624L22.639 21.6221C22.6075 21.9371 22.5056 22.2411 22.341 22.5115C22.1763 22.7819 21.9531 23.0119 21.6877 23.1846C21.4279 23.3512 21.1363 23.462 20.8313 23.5099C20.5264 23.5579 20.2148 23.5418 19.9164 23.4629L20.3837 22.0493C20.5107 21.6657 20.6533 21.2815 20.8083 20.9073L21.4516 19.3545C21.5826 19.048 21.7786 18.7737 22.026 18.5504C22.2735 18.3272 22.5665 18.1603 22.8848 18.0615L24.997 17.3993C25.4279 17.2639 25.8888 17.2565 26.3238 17.3781L28.5122 17.9876C29.57 18.2824 30.3512 18.3099 31.3948 18.0879L31.6448 17.9938L35.6987 26.513C35.405 26.9623 35.0063 27.3333 34.537 27.594L34.5373 27.5938ZM39.4958 26.0313C39.4919 26.0416 39.4859 26.0509 39.4782 26.0588C39.4705 26.0667 39.4613 26.0729 39.4511 26.077L37.3195 26.9922C37.299 27.0012 37.2759 27.0021 37.2548 26.9947C37.2337 26.9873 37.2163 26.9721 37.206 26.9523L31.9814 15.9729C31.9768 15.9637 31.9743 15.9537 31.9739 15.9435C31.9735 15.9333 31.9753 15.9231 31.9792 15.9137C31.9834 15.9032 31.9898 15.8937 31.9979 15.8858C32.0061 15.8779 32.0158 15.8719 32.0264 15.868L34.2169 15.0125C34.2273 15.0085 34.2383 15.0065 34.2494 15.0065C34.2656 15.0062 34.2815 15.0106 34.2953 15.0189C34.3091 15.0273 34.3203 15.0394 34.3276 15.0538L39.4936 25.9733C39.4979 25.9822 39.5002 25.992 39.5006 26.0019C39.5009 26.0119 39.4992 26.0217 39.4955 26.031L39.4958 26.0313Z" fill="#1AE5BE"/>
<path d="M25.0127 23.9389C25.123 24.0463 25.2713 24.106 25.4253 24.1049C25.5793 24.1039 25.7267 24.0422 25.8356 23.9333C25.9445 23.8244 26.0062 23.677 26.0072 23.5229C26.0082 23.3689 25.9486 23.2207 25.8412 23.1103L25.5446 22.8136C25.4903 22.7585 25.4257 22.7147 25.3544 22.6846C25.2831 22.6546 25.2066 22.639 25.1293 22.6387C25.0519 22.6384 24.9753 22.6534 24.9038 22.6828C24.8322 22.7123 24.7673 22.7556 24.7126 22.8103C24.6579 22.865 24.6146 22.93 24.5851 23.0015C24.5557 23.0731 24.5407 23.1497 24.541 23.2271C24.5413 23.3044 24.557 23.3809 24.587 23.4522C24.6171 23.5235 24.6609 23.5881 24.7161 23.6423L25.0127 23.9389Z" fill="#1AE5BE"/>
<path d="M28.6016 27.5299C28.656 27.5844 28.7206 27.6275 28.7917 27.657C28.8628 27.6865 28.939 27.7016 29.0159 27.7016C29.0929 27.7016 29.1691 27.6865 29.2402 27.657C29.3113 27.6276 29.3759 27.5845 29.4303 27.53C29.4847 27.4756 29.5279 27.411 29.5573 27.34C29.5868 27.2689 29.602 27.1927 29.602 27.1157C29.602 27.0388 29.5868 26.9626 29.5574 26.8915C29.528 26.8204 29.4848 26.7558 29.4304 26.7013L27.2894 24.5603C27.1795 24.4504 27.0305 24.3887 26.8751 24.3887C26.7196 24.3887 26.5706 24.4504 26.4607 24.5603C26.3508 24.6702 26.2891 24.8192 26.2891 24.9746C26.2891 25.13 26.3508 25.279 26.4607 25.3889L28.6016 27.5299Z" fill="#1AE5BE"/>
<path d="M25.2266 7.91699C15.3725 7.91699 7.35547 15.9339 7.35547 25.7881C7.35547 35.6423 15.3725 43.6592 25.2266 43.6592C35.0807 43.6592 43.0977 35.6423 43.0977 25.7881C43.0977 15.9339 35.0807 7.91699 25.2266 7.91699ZM25.2266 42.4873C16.0186 42.4873 8.52734 34.9961 8.52734 25.7881C8.52734 16.5801 16.0186 9.08887 25.2266 9.08887C34.4346 9.08887 41.9258 16.5801 41.9258 25.7881C41.9258 34.9961 34.4346 42.4873 25.2266 42.4873Z" fill="#0635C9"/>
<path d="M46.811 28.4523C47.0536 26.3582 46.9988 24.2403 46.6483 22.1616L49.2683 19.649C49.3549 19.5659 49.4138 19.4583 49.4373 19.3407C49.4608 19.2231 49.4475 19.1011 49.3995 18.9912L46.5541 12.4873C46.5054 12.3763 46.4235 12.2831 46.3197 12.2205C46.2159 12.1579 46.0952 12.129 45.9743 12.1378L42.3443 12.4047C41.0624 10.7266 39.5238 9.26106 37.7853 8.06223L37.8918 4.43479C37.8954 4.31358 37.8613 4.19426 37.7942 4.09326C37.7271 3.99227 37.6303 3.91459 37.5171 3.87092L30.897 1.31555C30.7844 1.27214 30.661 1.26459 30.5439 1.29394C30.4268 1.32329 30.3216 1.38811 30.2427 1.47952L27.892 4.20413C25.7976 3.96143 23.6794 4.01617 21.6003 4.36673L19.0875 1.74729C19.0044 1.66075 18.8969 1.60176 18.7793 1.57829C18.6617 1.55482 18.5397 1.568 18.4298 1.61604L11.9259 4.46155C11.8149 4.51016 11.7216 4.59204 11.659 4.69588C11.5964 4.79972 11.5676 4.92042 11.5765 5.04133L11.8433 8.67132C10.1652 9.9532 8.69978 11.4917 7.50103 13.2302L3.87368 13.1235C3.75247 13.12 3.63315 13.1541 3.53215 13.2213C3.43115 13.2884 3.35344 13.3852 3.30972 13.4983L0.754054 20.1185C0.71063 20.2311 0.703067 20.3545 0.732398 20.4716C0.76173 20.5887 0.826525 20.6939 0.917921 20.7728L3.64253 23.1239C3.39998 25.2179 3.45472 27.3358 3.80513 29.4146L1.18569 31.9275C1.09917 32.0105 1.0402 32.1181 1.01675 32.2357C0.993292 32.3533 1.00648 32.4752 1.05454 32.5851L3.90034 39.089C3.94906 39.2 4.03095 39.2932 4.13476 39.3558C4.23858 39.4183 4.35923 39.4472 4.48013 39.4385L8.11021 39.1716C9.39209 40.8497 10.9306 42.3151 12.6691 43.5139L12.5624 47.1412C12.5588 47.2625 12.5929 47.3818 12.66 47.4828C12.7271 47.5838 12.8239 47.6615 12.9371 47.7052L19.5573 50.2609C19.6699 50.3043 19.7933 50.3118 19.9104 50.2825C20.0275 50.2531 20.1327 50.1883 20.2116 50.0969L22.5625 47.3723C24.6565 47.6148 26.7743 47.5601 28.8531 47.2097L31.3657 49.8295C31.4487 49.9161 31.5563 49.9751 31.6739 49.9986C31.7916 50.0221 31.9136 50.0089 32.0235 49.9608L38.5274 47.1153C38.6385 47.0666 38.7317 46.9848 38.7943 46.8809C38.8569 46.7771 38.8857 46.6564 38.8768 46.5355L38.61 42.9055C40.2881 41.6236 41.7535 40.0851 42.9523 38.3466L46.5796 38.4533C46.7009 38.4571 46.8203 38.423 46.9214 38.3559C47.0224 38.2887 47.1001 38.1918 47.1436 38.0785L49.6994 31.4579C49.7428 31.3453 49.7504 31.222 49.721 31.1048C49.6917 30.9877 49.6269 30.8825 49.5355 30.8036L46.811 28.4523ZM46.2001 37.2694L42.6656 37.1652C42.5664 37.163 42.4682 37.1858 42.3801 37.2313C42.2919 37.2768 42.2165 37.3437 42.1608 37.4258C40.9444 39.2525 39.4194 40.8537 37.6543 42.1577C37.5747 42.2166 37.5114 42.2946 37.4701 42.3845C37.4289 42.4744 37.411 42.5732 37.4183 42.6719L37.6782 46.2071L31.9287 48.7225L29.4828 46.1721C29.4157 46.1022 29.3323 46.0499 29.2401 46.0201C29.1479 45.9903 29.0498 45.9839 28.9544 46.0013C26.7913 46.3974 24.5798 46.4546 22.3991 46.1707C22.3029 46.1583 22.2051 46.17 22.1145 46.2046C22.024 46.2392 21.9433 46.2957 21.8799 46.3691L19.5942 49.0184L13.7459 46.7612L13.85 43.2267C13.8529 43.1273 13.8305 43.0289 13.7849 42.9406C13.7393 42.8523 13.672 42.777 13.5893 42.7219C11.7626 41.5054 10.1614 39.9805 8.85728 38.2153C8.79834 38.1359 8.72034 38.0726 8.63049 38.0314C8.54063 37.9902 8.44183 37.9723 8.34321 37.9793L4.80777 38.2394L2.29204 32.4902L4.84243 30.0444C4.91234 29.9772 4.96453 29.8939 4.99434 29.8016C5.02414 29.7094 5.03063 29.6113 5.01323 29.5159C4.61696 27.3528 4.5598 25.1412 4.8438 22.9605C4.85629 22.8643 4.84471 22.7666 4.81011 22.676C4.77551 22.5854 4.71897 22.5048 4.64556 22.4414L1.99624 20.1554L4.25337 14.3071L7.78784 14.4113C7.88718 14.4142 7.98563 14.3918 8.07394 14.3462C8.16224 14.3006 8.2375 14.2333 8.29263 14.1506C9.50907 12.3239 11.034 10.7227 12.7992 9.41868C12.8787 9.35986 12.942 9.28186 12.9833 9.19196C13.0246 9.10205 13.0424 9.00317 13.0351 8.90452L12.7752 5.36936L18.5248 2.85393L20.9707 5.40432C21.0377 5.4743 21.1211 5.52654 21.2133 5.55635C21.3055 5.58616 21.4037 5.59261 21.499 5.57512C23.6624 5.17892 25.8744 5.12172 28.0554 5.40559C28.1516 5.41802 28.2494 5.40641 28.3399 5.37182C28.4305 5.33722 28.5112 5.28072 28.5746 5.20735L30.8602 2.55803L36.7085 4.81526L36.6045 8.34973C36.6016 8.44907 36.624 8.54752 36.6696 8.63583C36.7152 8.72413 36.7825 8.79939 36.8652 8.85452C38.6918 10.071 40.293 11.5959 41.5971 13.3611C41.656 13.4405 41.734 13.5037 41.8238 13.545C41.9137 13.5863 42.0125 13.6042 42.1111 13.5971L45.6462 13.3371L48.1615 19.0866L45.6112 21.5325C45.5412 21.5996 45.489 21.683 45.4592 21.7752C45.4294 21.8674 45.4229 21.9655 45.4404 22.0609C45.8366 24.224 45.8938 26.4356 45.6099 28.6163C45.5974 28.7125 45.609 28.8103 45.6436 28.9008C45.6782 28.9914 45.7347 29.072 45.8082 29.1354L48.4572 31.421L46.2001 37.2694Z" fill="#0635C9"/>
</g>
</g>
</g>
<defs>
<clipPath id="clip0_8_3569">
<rect width="50" height="50" fill="white" transform="translate(0.226562 0.788086)"/>
</clipPath>
<clipPath id="clip1_8_3569">
<rect width="50" height="50" fill="white" transform="translate(0.226562 0.788086)"/>
</clipPath>
<clipPath id="clip2_8_3569">
<rect width="50" height="50" fill="white" transform="translate(0.226562 0.788086)"/>
</clipPath>
</defs>
</svg>
