<svg width="50" height="47" viewBox="0 0 50 47" fill="none" xmlns="http://www.w3.org/2000/svg">
<path d="M15.6286 8.4665V26.7868C16.5904 27.2652 17.4675 27.8976 18.2253 28.6589C18.339 28.7726 18.45 28.8889 18.5583 29.008V8.4665C18.5636 8.23903 18.6583 8.0228 18.8219 7.86467C18.9855 7.70655 19.2048 7.61928 19.4323 7.62178H16.5026C16.2751 7.61928 16.0558 7.70655 15.8922 7.86467C15.7286 8.0228 15.6339 8.23903 15.6286 8.4665Z" fill="#D4E1F4"/>
<path d="M11.1289 28.0008C9.5931 28.0008 8.09177 28.4562 6.81478 29.3094C5.53779 30.1626 4.54248 31.3754 3.95473 32.7943C3.36697 34.2131 3.21316 35.7745 3.51275 37.2808C3.81234 38.7871 4.55187 40.1707 5.63783 41.2567C6.72378 42.3427 8.10738 43.0823 9.61368 43.382C11.12 43.6817 12.6813 43.5279 14.1002 42.9403C15.5191 42.3526 16.7319 41.3573 17.5852 40.0804C18.4385 38.8034 18.894 37.3021 18.894 35.7663C18.8918 33.7075 18.0729 31.7337 16.6172 30.2779C15.1615 28.8221 13.1877 28.0032 11.1289 28.0008ZM11.1289 42.3594C9.82485 42.3594 8.55007 41.9727 7.46578 41.2482C6.38149 40.5237 5.53639 39.494 5.03734 38.2892C4.5383 37.0844 4.40773 35.7587 4.66215 34.4797C4.91657 33.2007 5.54455 32.0258 6.46667 31.1037C7.3888 30.1816 8.56365 29.5537 9.84266 29.2993C11.1217 29.0449 12.4474 29.1755 13.6522 29.6746C14.8569 30.1737 15.8867 31.0188 16.6111 32.1031C17.3356 33.1875 17.7222 34.4622 17.7222 35.7663C17.7201 37.5143 17.0248 39.1901 15.7888 40.4261C14.5527 41.6621 12.8769 42.3574 11.1289 42.3594Z" fill="#1AE5BE"/>
<path d="M11.1289 33.0792C11.4025 33.0795 11.6648 33.1883 11.8583 33.3818C12.0518 33.5752 12.1606 33.8375 12.1609 34.1111C12.1629 34.2657 12.2257 34.4133 12.3358 34.5219C12.4458 34.6305 12.5942 34.6914 12.7488 34.6914C12.9034 34.6914 13.0518 34.6305 13.1618 34.5219C13.2718 34.4133 13.3346 34.2657 13.3366 34.1111C13.3366 33.0988 12.6013 32.2442 11.7224 31.987V31.6042C11.7224 31.4488 11.6606 31.2998 11.5508 31.1899C11.4409 31.08 11.2918 31.0183 11.1364 31.0183C10.981 31.0183 10.832 31.08 10.7221 31.1899C10.6122 31.2998 10.5505 31.4488 10.5505 31.6042V31.987C10.081 32.1078 9.66584 32.3829 9.37168 32.7682C9.07752 33.1534 8.9215 33.6265 8.92872 34.1111C8.92895 34.6953 9.16096 35.2554 9.57382 35.6687C9.98668 36.0819 10.5466 36.3144 11.1308 36.3151C11.2663 36.3145 11.4005 36.3405 11.526 36.3918C11.6514 36.4431 11.7655 36.5185 11.8617 36.6139C11.958 36.7092 12.0345 36.8226 12.087 36.9475C12.1394 37.0725 12.1667 37.2065 12.1674 37.342C12.168 37.4775 12.142 37.6118 12.0907 37.7372C12.0395 37.8626 11.964 37.9767 11.8687 38.073C11.7733 38.1692 11.6599 38.2458 11.535 38.2982C11.4101 38.3507 11.276 38.378 11.1405 38.3786C11.1367 38.3786 11.1327 38.378 11.1289 38.378C11.1251 38.378 11.1213 38.378 11.1175 38.3786C10.8459 38.3754 10.5865 38.2654 10.3954 38.0724C10.2044 37.8793 10.0971 37.6188 10.0967 37.3472C10.0967 37.1923 10.0351 37.0437 9.92561 36.9342C9.81607 36.8246 9.66751 36.7631 9.5126 36.7631C9.35769 36.7631 9.20913 36.8246 9.09959 36.9342C8.99006 37.0437 8.92852 37.1923 8.92852 37.3472C8.92131 37.8319 9.07736 38.3049 9.37155 38.6902C9.66575 39.0755 10.081 39.3507 10.5505 39.4714V39.9277C10.5505 40.0831 10.6122 40.2322 10.7221 40.3421C10.832 40.4519 10.981 40.5137 11.1364 40.5137C11.2918 40.5137 11.4409 40.4519 11.5508 40.3421C11.6606 40.2322 11.7224 40.0831 11.7224 39.9277V39.4714C12.6013 39.2141 13.3366 38.3596 13.3366 37.3472C13.3355 36.7627 13.1027 36.2024 12.6892 35.7893C12.2757 35.3762 11.7153 35.1439 11.1308 35.1433C10.8571 35.1435 10.5945 35.035 10.4007 34.8416C10.207 34.6483 10.0981 34.3859 10.0978 34.1122C10.0976 33.8384 10.2061 33.5758 10.3994 33.3821C10.5928 33.1884 10.8552 33.0794 11.1289 33.0792Z" fill="#1AE5BE"/>
<path d="M36.7607 15.5319C36.9161 15.5319 37.0651 15.4702 37.175 15.3603C37.2849 15.2504 37.3466 15.1014 37.3466 14.946C37.3466 14.7906 37.2849 14.6416 37.175 14.5317C37.0651 14.4218 36.9161 14.3601 36.7607 14.3601H36.1197C35.9643 14.3601 35.8153 14.4218 35.7054 14.5317C35.5955 14.6416 35.5338 14.7906 35.5338 14.946C35.5338 15.1014 35.5955 15.2504 35.7054 15.3603C35.8153 15.4702 35.9643 15.5319 36.1197 15.5319H36.7607Z" fill="#0635C9"/>
<path d="M34.1234 14.3601H24.727C24.5716 14.3601 24.4225 14.4218 24.3126 14.5317C24.2028 14.6416 24.141 14.7906 24.141 14.946C24.141 15.1014 24.2028 15.2504 24.3126 15.3603C24.4225 15.4702 24.5716 15.5319 24.727 15.5319H34.1234C34.2788 15.5319 34.4279 15.4702 34.5378 15.3603C34.6477 15.2504 34.7094 15.1014 34.7094 14.946C34.7094 14.7906 34.6477 14.6416 34.5378 14.5317C34.4279 14.4218 34.2788 14.3601 34.1234 14.3601Z" fill="#0635C9"/>
<path d="M19.3689 15.5319H22.6907C22.8461 15.5319 22.9952 15.4702 23.105 15.3603C23.2149 15.2504 23.2767 15.1014 23.2767 14.946C23.2767 14.7906 23.2149 14.6416 23.105 14.5317C22.9952 14.4218 22.8461 14.3601 22.6907 14.3601H19.3689C19.2135 14.3601 19.0644 14.4218 18.9545 14.5317C18.8446 14.6416 18.7829 14.7906 18.7829 14.946C18.7829 15.1014 18.8446 15.2504 18.9545 15.3603C19.0644 15.4702 19.2135 15.5319 19.3689 15.5319Z" fill="#0635C9"/>
<path d="M34.3786 19.5358C34.3786 19.6912 34.4403 19.8403 34.5502 19.9502C34.6601 20.06 34.8092 20.1218 34.9646 20.1218H36.7607C36.9161 20.1218 37.0652 20.06 37.1751 19.9502C37.285 19.8403 37.3467 19.6912 37.3467 19.5358C37.3467 19.3804 37.285 19.2314 37.1751 19.1215C37.0652 19.0116 36.9161 18.9499 36.7607 18.9499H34.9646C34.8092 18.9499 34.6601 19.0116 34.5502 19.1215C34.4403 19.2314 34.3786 19.3804 34.3786 19.5358Z" fill="#0635C9"/>
<path d="M30.5719 18.9499C30.4165 18.9499 30.2674 19.0116 30.1576 19.1215C30.0477 19.2314 29.9859 19.3804 29.9859 19.5358C29.9859 19.6912 30.0477 19.8403 30.1576 19.9502C30.2674 20.06 30.4165 20.1218 30.5719 20.1218H33.0196C33.175 20.1218 33.3241 20.06 33.434 19.9502C33.5438 19.8403 33.6056 19.6912 33.6056 19.5358C33.6056 19.3804 33.5438 19.2314 33.434 19.1215C33.3241 19.0116 33.175 18.9499 33.0196 18.9499H30.5719Z" fill="#0635C9"/>
<path d="M19.3689 20.1218H28.8629C29.0183 20.1218 29.1673 20.06 29.2772 19.9502C29.3871 19.8403 29.4488 19.6912 29.4488 19.5358C29.4488 19.3804 29.3871 19.2314 29.2772 19.1215C29.1673 19.0116 29.0183 18.9499 28.8629 18.9499H19.3689C19.2135 18.9499 19.0644 19.0116 18.9545 19.1215C18.8446 19.2314 18.7829 19.3804 18.7829 19.5358C18.7829 19.6912 18.8446 19.8403 18.9545 19.9502C19.0644 20.06 19.2135 20.1218 19.3689 20.1218Z" fill="#0635C9"/>
<path d="M30.9986 25.0046C31.154 25.0046 31.3031 24.9429 31.413 24.833C31.5228 24.7231 31.5846 24.5741 31.5846 24.4187C31.5846 24.2633 31.5228 24.1142 31.413 24.0043C31.3031 23.8944 31.154 23.8327 30.9986 23.8327H19.3689C19.2135 23.8327 19.0644 23.8944 18.9545 24.0043C18.8446 24.1142 18.7829 24.2633 18.7829 24.4187C18.7829 24.5741 18.8446 24.7231 18.9545 24.833C19.0644 24.9429 19.2135 25.0046 19.3689 25.0046H30.9986Z" fill="#0635C9"/>
<path d="M21.1158 28.3249C20.9604 28.3249 20.8114 28.3866 20.7015 28.4965C20.5916 28.6064 20.5299 28.7554 20.5299 28.9108C20.5299 29.0662 20.5916 29.2153 20.7015 29.3252C20.8114 29.435 20.9604 29.4968 21.1158 29.4968H24.0472C24.2026 29.4968 24.3516 29.435 24.4615 29.3252C24.5714 29.2153 24.6331 29.0662 24.6331 28.9108C24.6331 28.7554 24.5714 28.6064 24.4615 28.4965C24.3516 28.3866 24.2026 28.3249 24.0472 28.3249H21.1158Z" fill="#0635C9"/>
<path d="M47.0619 17.9182C46.3703 17.7702 45.6488 17.8698 45.0231 18.1996V4.62305C45.0221 4.32293 44.9618 4.02597 44.8459 3.74915C44.7299 3.47234 44.5605 3.22111 44.3474 3.00983C44.1342 2.79856 43.8815 2.63138 43.6037 2.51788C43.3258 2.40437 43.0283 2.34676 42.7282 2.34834H31.3455C30.7498 1.07881 29.5029 0.302246 28.0643 0.302246C26.6256 0.302246 25.3799 1.07881 24.7837 2.34834H13.4008C13.1023 2.34736 12.8065 2.40561 12.5307 2.5197C12.2549 2.6338 12.0044 2.80148 11.7938 3.01304C11.5832 3.2246 11.4167 3.47583 11.3038 3.75219C11.191 4.02855 11.1341 4.32455 11.1364 4.62305V25.6882H12.3083V4.62305C12.3058 4.4784 12.3322 4.33471 12.3861 4.20045C12.44 4.06619 12.5202 3.94407 12.622 3.84129C12.7238 3.73852 12.8452 3.65716 12.9789 3.60202C13.1127 3.54687 13.2561 3.51906 13.4008 3.52021H24.4365C24.4205 3.65988 24.4142 3.80048 24.4177 3.94102V4.8874H19.3689C19.2101 4.88679 19.0573 4.94773 18.9426 5.05742C18.8279 5.1671 18.7601 5.31699 18.7536 5.47559V7.03584H16.5026C16.1199 7.03369 15.7517 7.18279 15.4783 7.4507C15.2049 7.71861 15.0483 8.08365 15.0427 8.46641V26.7624H16.2146V8.46641C16.2199 8.39444 16.2529 8.32734 16.3066 8.27912C16.3603 8.23091 16.4305 8.20532 16.5026 8.20771H18.7536V9.56787C18.7599 9.72696 18.8275 9.87747 18.9421 9.98796C19.0567 10.0984 19.2096 10.1604 19.3689 10.1608H36.7606C37.0842 10.1608 37.3083 9.89141 37.3083 9.56787V8.20771H39.6266C39.7735 8.20771 39.8474 8.31943 39.8474 8.46641V21.5465L28.5797 28.9606C28.5005 29.0154 28.4369 29.0898 28.3951 29.1765H28.4006L26.1287 33.4746C26.0818 33.5641 26.0587 33.6642 26.0617 33.7652C26.0648 33.8662 26.0939 33.9647 26.1461 34.0512C26.1984 34.1377 26.2721 34.2092 26.3601 34.2589C26.4481 34.3085 26.5475 34.3346 26.6485 34.3347L31.6442 34.2028C31.7512 34.1993 31.8552 34.1656 31.9447 34.1069L39.8474 28.9132V31.6452H37.2125C36.9157 31.6428 36.6214 31.6997 36.3468 31.8125C36.0723 31.9253 35.823 32.0918 35.6137 32.3022C35.4043 32.5126 35.239 32.7626 35.1276 33.0377C35.0161 33.3128 34.9607 33.6074 34.9646 33.9042V36.528H21.0974V37.6999H35.1773C35.3892 37.699 35.5988 37.6563 35.7941 37.574C35.9894 37.4918 36.1665 37.3718 36.3151 37.2208L40.5708 32.9382C40.7176 32.7872 40.8329 32.6085 40.9099 32.4124C40.9869 32.2164 41.024 32.007 41.0192 31.7965V28.1441L43.8513 26.3168V40.0891C43.8504 40.387 43.7319 40.6725 43.5216 40.8835C43.3113 41.0944 43.0261 41.2138 42.7282 41.2155H19.1442V42.3874H42.7282C43.3368 42.3853 43.9198 42.1423 44.3498 41.7117C44.7798 41.281 45.0219 40.6976 45.0231 40.0891V25.5468L48.1286 23.5058C48.6374 23.1713 49.0356 22.6935 49.2729 22.1327C49.5102 21.572 49.5759 20.9535 49.4618 20.3554C49.3476 19.7573 49.0586 19.2065 48.6315 18.7726C48.2043 18.3387 47.6582 18.0417 47.0619 17.9182ZM36.1364 35.7774V33.9042C36.1324 33.7613 36.1573 33.619 36.2098 33.486C36.2623 33.353 36.3413 33.232 36.4419 33.1304C36.5424 33.0288 36.6626 32.9486 36.7951 32.8948C36.9275 32.8409 37.0695 32.8145 37.2125 32.8171H39.0857L36.1364 35.7774ZM36.1364 8.98896H19.9255V6.05928H24.9954C25.1514 6.06009 25.3014 5.99918 25.4127 5.88984C25.524 5.7805 25.5876 5.6316 25.5896 5.47559V3.94102C25.5896 3.28056 25.8519 2.64716 26.3189 2.18015C26.7859 1.71314 27.4193 1.45078 28.0798 1.45078C28.7402 1.45078 29.3736 1.71314 29.8407 2.18015C30.3077 2.64716 30.57 3.28056 30.57 3.94102V5.47559C30.5676 5.55122 30.5804 5.62657 30.6076 5.69718C30.6348 5.76778 30.6759 5.83221 30.7285 5.88664C30.7811 5.94107 30.844 5.98439 30.9136 6.01405C30.9833 6.0437 31.0581 6.05908 31.1338 6.05928H36.1364V8.98896ZM39.6266 7.03584H37.3083V5.47559C37.3083 5.15205 37.0837 4.8874 36.7606 4.8874H31.7419V3.94102C31.7371 3.79965 31.7208 3.65892 31.6931 3.52021H42.7282C42.8745 3.51845 43.0197 3.54562 43.1554 3.60017C43.2911 3.65472 43.4147 3.73556 43.5191 3.83805C43.6235 3.94055 43.7066 4.06267 43.7636 4.19739C43.8206 4.33211 43.8504 4.47677 43.8513 4.62305V18.9499L41.0192 20.7771V8.46641C41.0192 7.67324 40.4197 7.03584 39.6266 7.03584ZM44.6911 19.7979L45.4162 20.9015L30.4612 30.7224L29.7357 29.6188L44.6911 19.7979ZM28.9782 30.6003L30.594 33.0592L27.6358 33.1367L28.9782 30.6003ZM31.8298 32.8061L31.1043 31.702L46.0594 21.8809L46.7852 22.9854L31.8298 32.8061ZM47.7478 22.3156L45.6882 19.1809C46.0993 19.0046 46.5593 18.9785 46.9877 19.1074C47.416 19.2362 47.7854 19.5117 48.031 19.8856C48.2766 20.2594 48.3828 20.7078 48.3311 21.1521C48.2793 21.5964 48.0728 22.0083 47.7478 22.3156Z" fill="#0635C9"/>
<path d="M17.6794 9.49365C17.524 9.49365 17.375 9.55539 17.2651 9.66527C17.1552 9.77515 17.0935 9.92419 17.0935 10.0796V10.3711C17.0935 10.5265 17.1552 10.6755 17.2651 10.7854C17.375 10.8953 17.524 10.957 17.6794 10.957C17.8348 10.957 17.9838 10.8953 18.0937 10.7854C18.2036 10.6755 18.2653 10.5265 18.2653 10.3711V10.0796C18.2653 9.92419 18.2036 9.77515 18.0937 9.66527C17.9838 9.55539 17.8348 9.49365 17.6794 9.49365Z" fill="#0635C9"/>
<path d="M17.6794 11.6709C17.524 11.6709 17.375 11.7326 17.2651 11.8425C17.1552 11.9524 17.0935 12.1014 17.0935 12.2568V20.7205C17.0935 20.8759 17.1552 21.0249 17.2651 21.1348C17.375 21.2447 17.524 21.3064 17.6794 21.3064C17.8348 21.3064 17.9838 21.2447 18.0937 21.1348C18.2036 21.0249 18.2653 20.8759 18.2653 20.7205V12.2568C18.2653 12.1014 18.2036 11.9524 18.0937 11.8425C17.9838 11.7326 17.8348 11.6709 17.6794 11.6709Z" fill="#0635C9"/>
<path d="M11.1289 25.073C9.01396 25.073 6.94651 25.7001 5.188 26.8751C3.42948 28.0501 2.05889 29.7202 1.24954 31.6741C0.44018 33.6281 0.228416 35.7782 0.641022 37.8525C1.05363 39.9268 2.07207 41.8322 3.56756 43.3277C5.06306 44.8232 6.96843 45.8416 9.04274 46.2542C11.117 46.6668 13.2671 46.455 15.2211 45.6457C17.175 44.8363 18.8451 43.4657 20.0201 41.7072C21.1951 39.9487 21.8223 37.8813 21.8223 35.7663C21.8191 32.9312 20.6914 30.2132 18.6867 28.2085C16.682 26.2038 13.964 25.0762 11.1289 25.073ZM20.1356 36.3327H20.6256C20.5087 38.4537 19.6728 40.4717 18.2556 42.0541L17.9123 41.7156C17.8017 41.6068 17.6526 41.5462 17.4974 41.547C17.3423 41.5478 17.1938 41.6099 17.0843 41.7199C16.9749 41.8298 16.9134 41.9786 16.9132 42.1337C16.9131 42.2889 16.9744 42.4377 17.0837 42.5479L17.4309 42.8917C15.8433 44.2927 13.8354 45.1267 11.7224 45.2627V44.7728C11.7224 44.6174 11.6606 44.4683 11.5508 44.3584C11.4409 44.2486 11.2918 44.1868 11.1364 44.1868C10.981 44.1868 10.832 44.2486 10.7221 44.3584C10.6122 44.4683 10.5505 44.6174 10.5505 44.7728V45.2627C8.43547 45.1269 6.42526 44.2933 4.83487 42.8924L5.17666 42.549C5.28655 42.439 5.3482 42.2897 5.34806 42.1342C5.34792 41.9787 5.28601 41.8296 5.17593 41.7197C5.06586 41.6098 4.91664 41.5481 4.76111 41.5483C4.60558 41.5484 4.45647 41.6103 4.34659 41.7204L4.00303 42.0541C2.58549 40.4718 1.74926 38.4539 1.63213 36.3327H2.12208C2.27748 36.3327 2.42651 36.271 2.5364 36.1611C2.64628 36.0512 2.70801 35.9022 2.70801 35.7468C2.70801 35.5914 2.64628 35.4423 2.5364 35.3325C2.42651 35.2226 2.27748 35.1608 2.12208 35.1608H1.63213C1.76802 33.0498 2.60189 31.0439 4.00254 29.4586L4.3459 29.8067C4.40004 29.8611 4.46435 29.9043 4.53518 29.9339C4.60601 29.9634 4.68197 29.9787 4.75871 29.9789C4.83546 29.9791 4.91149 29.9642 4.98246 29.935C5.05344 29.9058 5.11797 29.8629 5.17237 29.8088C5.22677 29.7547 5.26998 29.6903 5.29952 29.6195C5.32906 29.5487 5.34437 29.4727 5.34456 29.396C5.34475 29.3192 5.32982 29.2432 5.30063 29.1722C5.27144 29.1013 5.22855 29.0367 5.17442 28.9823L4.83487 28.6394C6.42526 27.2385 8.43549 26.405 10.5505 26.2693V26.7593C10.5505 26.9147 10.6122 27.0637 10.7221 27.1736C10.832 27.2835 10.981 27.3452 11.1364 27.3452C11.2918 27.3452 11.4409 27.2835 11.5508 27.1736C11.6606 27.0637 11.7224 26.9147 11.7224 26.7593V26.2693C13.8351 26.4051 15.843 27.2389 17.4305 28.6396L17.0853 28.9829C17.0301 29.037 16.9862 29.1015 16.9561 29.1727C16.926 29.2439 16.9103 29.3203 16.9099 29.3976C16.9095 29.4749 16.9244 29.5515 16.9537 29.623C16.9831 29.6945 17.0263 29.7594 17.0809 29.8141C17.1355 29.8688 17.2003 29.9122 17.2718 29.9417C17.3432 29.9712 17.4197 29.9863 17.497 29.986C17.5743 29.9858 17.6508 29.9703 17.722 29.9403C17.7933 29.9104 17.8579 29.8667 17.9121 29.8116L18.2554 29.4587C19.6559 31.044 20.4897 33.0499 20.6256 35.1608H20.1356C19.9802 35.1608 19.8311 35.2226 19.7212 35.3325C19.6113 35.4423 19.5496 35.5914 19.5496 35.7468C19.5496 35.9022 19.6113 36.0512 19.7212 36.1611C19.8311 36.271 19.9802 36.3327 20.1356 36.3327Z" fill="#1AE5BE"/>
</svg>
