<svg width="50" height="43" viewBox="0 0 50 43" fill="none" xmlns="http://www.w3.org/2000/svg">
<path d="M3.29688 39.4669H1.05078V42.1036H3.88281V39.4669H6.12891V20.4239H3.29688V39.4669Z" fill="#D4E1F4"/>
<path d="M6.00195 17.7383C6.67023 17.7389 7.32273 17.5352 7.87197 17.1545L12.9794 22.4324C12.6792 22.9046 12.5041 23.4455 12.4707 24.0041C12.4374 24.5628 12.5468 25.1207 12.7887 25.6253C13.0306 26.1299 13.397 26.5646 13.8534 26.8885C14.3097 27.2123 14.8411 27.4146 15.3973 27.4764C15.9534 27.5381 16.5162 27.4571 17.0325 27.2412C17.5487 27.0252 18.0015 26.6814 18.3481 26.2421C18.6947 25.8028 18.9238 25.2824 19.0137 24.7301C19.1036 24.1777 19.0513 23.6116 18.8619 23.085L23.6875 17.1817C24.354 17.6279 25.1603 17.8156 25.9553 17.7097C26.7503 17.6038 27.4794 17.2116 28.0059 16.6065C28.5323 16.0014 28.8199 15.225 28.8148 14.423C28.8097 13.621 28.5121 12.8484 27.978 12.2501L33.0999 6.07135C33.4686 6.39702 33.9057 6.63589 34.3789 6.77037C34.8521 6.90486 35.3495 6.93154 35.8344 6.84845C36.3192 6.76537 36.7793 6.57464 37.1808 6.29028C37.5822 6.00592 37.9148 5.63518 38.1541 5.20533L42.086 7.54908C41.7165 8.28726 41.6366 9.13697 41.862 9.9311C42.0873 10.7252 42.6017 11.4063 43.3038 11.8404C44.006 12.2744 44.8451 12.4301 45.6562 12.2767C46.4674 12.1233 47.1917 11.6719 47.6869 11.0114C48.182 10.3509 48.4121 9.52908 48.3319 8.7075C48.2517 7.88592 47.867 7.12408 47.2535 6.57181C46.6399 6.01955 45.8419 5.71683 45.0165 5.7232C44.191 5.72956 43.3978 6.04455 42.7929 6.60621L38.5393 4.07008C38.604 3.62194 38.5758 3.16527 38.4562 2.72854C38.3367 2.29181 38.1285 1.88438 37.8446 1.53167C37.5607 1.17895 37.2071 0.888507 36.806 0.678447C36.4049 0.468387 35.9648 0.343216 35.5132 0.310737C35.0616 0.278259 34.6081 0.33917 34.1811 0.489674C33.754 0.640177 33.3626 0.877044 33.0311 1.18551C32.6996 1.49397 32.4353 1.86741 32.2545 2.28255C32.0737 2.69768 31.9804 3.14561 31.9804 3.5984C31.9799 4.13177 32.1098 4.65718 32.3586 5.12896L27.0559 11.5254C26.399 11.1783 25.6442 11.0634 24.9138 11.1994C24.1835 11.3353 23.5205 11.7141 23.0326 12.2743C22.5447 12.8345 22.2605 13.5432 22.226 14.2853C22.1916 15.0274 22.4091 15.7593 22.8431 16.3623L18.225 22.0125C17.6758 21.3915 16.9124 21.0008 16.0876 20.9185C15.2627 20.8363 14.4372 21.0684 13.7762 21.5686L8.70322 16.3279C9.12498 15.723 9.33162 14.9941 9.29009 14.2578C9.24855 13.5216 8.96124 12.8205 8.47412 12.2669C7.98701 11.7133 7.32825 11.3391 6.60328 11.2041C5.87831 11.0692 5.12903 11.1814 4.47535 11.5227C3.82167 11.864 3.30138 12.4147 2.99775 13.0867C2.69411 13.7587 2.62468 14.5132 2.80057 15.2293C2.97646 15.9454 3.3875 16.5819 3.9679 17.0368C4.54831 17.4917 5.26453 17.7387 6.00195 17.7383ZM45.0352 6.89547C45.4554 6.89545 45.8662 7.02004 46.2156 7.2535C46.565 7.48695 46.8374 7.81878 46.9982 8.20702C47.159 8.59525 47.2011 9.02247 47.1191 9.43462C47.0372 9.84678 46.8348 10.2254 46.5377 10.5225C46.2405 10.8197 45.862 11.0221 45.4498 11.104C45.0376 11.186 44.6104 11.144 44.2222 10.9832C43.8339 10.8223 43.5021 10.55 43.2686 10.2006C43.0352 9.8512 42.9105 9.44041 42.9105 9.02017C42.9112 8.45687 43.1352 7.91682 43.5335 7.5185C43.9318 7.12018 44.4719 6.89611 45.0352 6.89547ZM35.277 1.47428C35.6972 1.47428 36.108 1.59889 36.4574 1.83236C36.8068 2.06583 37.0791 2.39767 37.2399 2.78591C37.4007 3.17416 37.4428 3.60137 37.3608 4.01353C37.2788 4.42568 37.0765 4.80427 36.7793 5.10141C36.4822 5.39855 36.1036 5.60091 35.6914 5.68288C35.2792 5.76485 34.852 5.72276 34.4638 5.56193C34.0756 5.4011 33.7437 5.12876 33.5103 4.77934C33.2768 4.42992 33.1522 4.01912 33.1522 3.59889C33.1529 3.03559 33.377 2.49554 33.7753 2.09724C34.1736 1.69893 34.7137 1.4749 35.277 1.47428ZM25.5187 12.3168C25.9389 12.3166 26.3498 12.4412 26.6992 12.6746C27.0487 12.9079 27.3211 13.2397 27.482 13.628C27.6429 14.0162 27.6851 14.4434 27.6032 14.8556C27.5213 15.2678 27.319 15.6464 27.0218 15.9437C26.7247 16.2409 26.3461 16.4433 25.934 16.5253C25.5218 16.6073 25.0946 16.5653 24.7063 16.4045C24.318 16.2437 23.9861 15.9714 23.7526 15.6219C23.5192 15.2725 23.3945 14.8617 23.3945 14.4415C23.3952 13.8782 23.6191 13.3383 24.0173 12.94C24.4155 12.5417 24.9554 12.3175 25.5187 12.3168ZM15.7604 22.0751C16.1807 22.0751 16.5915 22.1997 16.9409 22.4331C17.2903 22.6666 17.5626 22.9984 17.7234 23.3867C17.8842 23.7749 17.9263 24.2022 17.8443 24.6143C17.7623 25.0265 17.56 25.4051 17.2628 25.7022C16.9657 25.9993 16.5871 26.2017 16.1749 26.2837C15.7627 26.3656 15.3355 26.3235 14.9473 26.1627C14.5591 26.0019 14.2272 25.7295 13.9938 25.3801C13.7603 25.0307 13.6357 24.6199 13.6357 24.1997C13.6364 23.6364 13.8605 23.0963 14.2588 22.698C14.6571 22.2997 15.1971 22.0757 15.7604 22.0751ZM6.00195 12.3168C6.42219 12.3167 6.83301 12.4413 7.18246 12.6747C7.5319 12.9081 7.80428 13.2399 7.96514 13.6282C8.12599 14.0164 8.16811 14.4436 8.08616 14.8558C8.00421 15.268 7.80188 15.6466 7.50474 15.9438C7.20761 16.2409 6.82902 16.4433 6.41686 16.5253C6.0047 16.6073 5.57748 16.5653 5.18922 16.4045C4.80097 16.2437 4.46912 15.9713 4.23564 15.6219C4.00216 15.2725 3.87754 14.8617 3.87754 14.4415C3.87816 13.8782 4.10217 13.3382 4.50043 12.9399C4.8987 12.5415 5.43869 12.3175 6.00195 12.3168Z" fill="#1AE5BE"/>
<path d="M48.9023 38.8809H48.2188V15.0378C48.219 14.9618 48.204 14.8866 48.1747 14.8166C48.1454 14.7466 48.1025 14.6831 48.0483 14.6299C47.9941 14.5767 47.9299 14.5349 47.8593 14.5069C47.7887 14.4789 47.7133 14.4653 47.6374 14.4669H42.3607C42.2845 14.4652 42.2087 14.4786 42.1378 14.5065C42.0668 14.5344 42.0022 14.5761 41.9475 14.6293C41.8928 14.6824 41.8493 14.7459 41.8194 14.816C41.7895 14.8861 41.7739 14.9615 41.7734 15.0378V38.8809H38.4531V9.61656C38.4531 9.29293 38.2027 8.9981 37.8791 8.9981H32.6024C32.4429 9.00512 32.2921 9.07326 32.1814 9.1884C32.0707 9.30353 32.0086 9.45684 32.0078 9.61656V38.8809H28.6875V20.459C28.6875 20.1354 28.4445 19.8379 28.1211 19.8379H22.8442C22.6836 19.8452 22.5319 19.9136 22.42 20.029C22.3081 20.1445 22.2445 20.2983 22.2422 20.459V38.8809H18.9219V30.2172C18.9219 29.8937 18.6862 29.6036 18.3626 29.6036H13.0859C12.9253 29.6089 12.7728 29.6754 12.6595 29.7895C12.5462 29.9036 12.4808 30.0566 12.4766 30.2172V38.8809H9.15625V20.459C9.15576 20.2945 9.09017 20.1368 8.97379 20.0204C8.85742 19.904 8.69973 19.8384 8.53516 19.8379H3.32773C3.16429 19.8384 3.00768 19.9035 2.89211 20.0191C2.77653 20.1347 2.7114 20.2913 2.71094 20.4547V22.67C2.71094 22.8254 2.77267 22.9744 2.88255 23.0843C2.99244 23.1942 3.14147 23.2559 3.29688 23.2559C3.45228 23.2559 3.60131 23.1942 3.7112 23.0843C3.82108 22.9744 3.88281 22.8254 3.88281 22.67V21.0098H7.98438V38.8809H3.88281V26.7715C3.88281 26.6161 3.82108 26.4671 3.7112 26.3572C3.60131 26.2473 3.45228 26.1856 3.29688 26.1856C3.14147 26.1856 2.99244 26.2473 2.88255 26.3572C2.77267 26.4671 2.71094 26.6161 2.71094 26.7715V38.8809H1.05078C0.975655 38.8772 0.90055 38.8887 0.829976 38.9147C0.759402 38.9407 0.694814 38.9807 0.640089 39.0323C0.585365 39.084 0.541632 39.1461 0.511518 39.215C0.481403 39.2839 0.465528 39.3582 0.464844 39.4335V42.1079C0.464932 42.1846 0.48018 42.2605 0.50971 42.3313C0.539241 42.4022 0.582472 42.4664 0.63692 42.5205C0.691368 42.5745 0.75596 42.6173 0.826984 42.6463C0.898007 42.6753 0.974063 42.69 1.05078 42.6895H48.9023C48.9791 42.69 49.0551 42.6753 49.1261 42.6463C49.1972 42.6173 49.2618 42.5745 49.3162 42.5205C49.3707 42.4664 49.4139 42.4022 49.4434 42.3313C49.4729 42.2605 49.4882 42.1846 49.4883 42.1079V39.4335C49.4876 39.3582 49.4717 39.2839 49.4416 39.215C49.4115 39.1461 49.3678 39.084 49.313 39.0323C49.2583 38.9807 49.1937 38.9407 49.1231 38.9147C49.0526 38.8887 48.9775 38.8772 48.9023 38.8809ZM42.9453 15.6387H47.0469V38.8809H42.9453V15.6387ZM33.1797 10.17H37.2812V38.8809H33.1797V10.17ZM23.4141 21.0098H27.5156V38.8809H23.4141V21.0098ZM13.6484 30.7754H17.75V38.8809H13.6484V30.7754ZM48.3164 41.5176H1.63672V40.0528H48.3164V41.5176Z" fill="#0635C9"/>
<path d="M5.34766 24.0118C5.50306 24.0118 5.65209 23.95 5.76198 23.8402C5.87186 23.7303 5.93359 23.5812 5.93359 23.4258V22.7344C5.93359 22.579 5.87186 22.43 5.76198 22.3201C5.65209 22.2102 5.50306 22.1485 5.34766 22.1485C5.19226 22.1485 5.04322 22.2102 4.93334 22.3201C4.82345 22.43 4.76172 22.579 4.76172 22.7344V23.4258C4.76172 23.5812 4.82345 23.7303 4.93334 23.8402C5.04322 23.95 5.19226 24.0118 5.34766 24.0118Z" fill="#0635C9"/>
<path d="M4.76172 30.4797C4.76172 30.6351 4.82345 30.7842 4.93334 30.8941C5.04322 31.0039 5.19226 31.0657 5.34766 31.0657C5.50306 31.0657 5.65209 31.0039 5.76198 30.8941C5.87186 30.7842 5.93359 30.6351 5.93359 30.4797V25.7543C5.93359 25.5989 5.87186 25.4498 5.76198 25.3399C5.65209 25.2301 5.50306 25.1683 5.34766 25.1683C5.19226 25.1683 5.04322 25.2301 4.93334 25.3399C4.82345 25.4498 4.76172 25.5989 4.76172 25.7543V30.4797Z" fill="#0635C9"/>
</svg>
