<svg width="81" height="81" viewBox="0 0 81 81" fill="none" xmlns="http://www.w3.org/2000/svg">
<path d="M50.3595 10.104C46.0928 7.97063 41.5151 7.30397 36.6262 8.10397C31.7373 8.90397 27.5151 10.9929 23.9595 14.3706C20.0484 18.4595 17.9151 23.3929 17.5595 29.1706C17.2039 34.9484 18.7151 40.0595 22.0928 44.504C22.4484 44.8595 22.804 45.0373 23.1595 45.0373C23.5151 45.0373 23.7817 44.9484 23.9595 44.7706C24.1373 44.5929 24.2706 44.3262 24.3595 43.9706C24.4484 43.6151 24.404 43.2595 24.2262 42.904C21.0262 38.9929 19.604 34.4595 19.9595 29.304C20.3151 24.1484 22.2706 19.7929 25.8262 16.2373C29.0262 13.0373 32.7595 11.1262 37.0262 10.504C41.2928 9.88174 45.3817 10.5484 49.2928 12.504C49.6484 12.6817 49.9595 12.6817 50.2262 12.504C50.4928 12.3262 50.7151 12.104 50.8928 11.8373C51.0706 11.5706 51.1151 11.2595 51.0262 10.904C50.9373 10.5484 50.7151 10.2817 50.3595 10.104ZM60.4928 20.2373C60.3151 19.8817 60.0484 19.6595 59.6928 19.5706C59.3373 19.4817 59.0262 19.5262 58.7595 19.704C58.4928 19.8817 58.3151 20.1484 58.2262 20.504C58.1373 20.8595 58.1817 21.1262 58.3595 21.304C60.3151 25.2151 60.9373 29.3484 60.2262 33.704C59.5151 38.0595 57.5595 41.7484 54.3595 44.7706C50.804 48.504 46.4928 50.504 41.4262 50.7706C36.3595 51.0373 31.7817 49.6595 27.6928 46.6373C27.5151 46.2817 27.2484 46.1484 26.8928 46.2373C26.5373 46.3262 26.2262 46.504 25.9595 46.7706C25.6928 47.0373 25.604 47.3484 25.6928 47.704C25.7817 48.0595 25.9151 48.3262 26.0928 48.504C30.1817 51.704 34.8928 53.304 40.2262 53.304C43.0706 53.304 45.9151 52.7262 48.7595 51.5706C51.604 50.4151 54.0928 48.7706 56.2262 46.6373C59.7817 43.0817 61.9595 38.904 62.7595 34.104C63.5595 29.304 62.804 24.6817 60.4928 20.2373ZM57.2928 15.4373C56.9373 15.0817 56.5817 14.7262 56.2262 14.3706L55.1595 13.5706C54.9817 13.2151 54.7151 13.0817 54.3595 13.1706C54.004 13.2595 53.6928 13.3929 53.4262 13.5706C53.1595 13.7484 53.0706 14.0151 53.1595 14.3706C53.2484 14.7262 53.3817 15.0817 53.5595 15.4373L55.4262 17.0373C55.604 17.3929 55.8706 17.5706 56.2262 17.5706C56.5817 17.5706 56.8928 17.4817 57.1595 17.304C57.4262 17.1262 57.5595 16.8595 57.5595 16.504C57.5595 16.1484 57.4706 15.7929 57.2928 15.4373ZM69.8262 32.7706C70.3595 32.0595 70.6262 31.304 70.6262 30.504C70.6262 29.704 70.3595 28.9484 69.8262 28.2373L68.2262 25.5706C68.0484 25.2151 67.9595 24.8595 67.9595 24.504L68.4928 21.304C68.6706 20.4151 68.5817 19.6151 68.2262 18.904C67.8706 18.1929 67.4262 17.5706 66.8928 17.0373L64.2262 15.1706C63.8706 14.9929 63.604 14.7262 63.4262 14.3706L62.8928 11.1706C62.7151 10.4595 62.3151 9.79285 61.6928 9.17063C61.0706 8.54841 60.404 8.14841 59.6928 7.97063L56.4928 7.17063C56.1373 7.17063 55.7817 6.99286 55.4262 6.6373L53.5595 3.97063C53.204 3.25952 52.6262 2.77064 51.8262 2.50397C51.0262 2.2373 50.2706 2.19286 49.5595 2.37064L46.3595 2.6373C46.004 2.81508 45.6484 2.81508 45.2928 2.6373L42.3595 0.770638C41.8262 0.415077 41.1151 0.237297 40.2262 0.237297C39.3373 0.237297 38.6262 0.415077 38.0928 0.770638L35.1595 2.6373C34.804 2.81508 34.4484 2.81508 34.0928 2.6373L30.8928 2.37064C30.1817 2.19286 29.4262 2.2373 28.6262 2.50397C27.8262 2.77064 27.2484 3.25952 26.8928 3.97063L25.0262 6.6373C24.6706 6.99286 24.3151 7.17063 23.9595 7.17063L20.7595 7.97063C20.0484 8.14841 19.3817 8.50397 18.7595 9.0373C18.1373 9.57063 17.7373 10.2817 17.5595 11.1706L17.0262 14.3706C16.8484 14.7262 16.5817 14.9929 16.2262 15.1706L13.5595 17.0373C13.0262 17.5706 12.5817 18.1929 12.2262 18.904C11.8706 19.6151 11.7817 20.4151 11.9595 21.304L12.4928 24.504C12.4928 24.8595 12.4039 25.2151 12.2262 25.5706L10.6262 28.2373C10.0928 28.9484 9.82617 29.704 9.82617 30.504C9.82617 31.304 10.0928 32.0595 10.6262 32.7706L12.2262 35.4373C12.4039 35.7929 12.4928 36.2373 12.4928 36.7706L11.9595 39.9706C11.7817 40.6817 11.8706 41.3929 12.2262 42.104C12.5817 42.8151 13.0262 43.4373 13.5595 43.9706L16.2262 45.8373C16.5817 46.1929 16.8484 46.5484 17.0262 46.904L17.5595 50.104C17.7373 50.8151 18.1373 51.4373 18.7595 51.9706C19.3817 52.504 20.0484 52.8595 20.7595 53.0373L22.0928 53.5706L13.2928 73.0373C13.1151 73.3929 13.1595 73.7929 13.4262 74.2373C13.6928 74.6817 14.0928 74.8151 14.6262 74.6373L21.8262 73.8373L25.8262 79.704C26.004 80.0595 26.3595 80.2373 26.8928 80.2373C27.4262 80.2373 27.7817 79.9706 27.9595 79.4373L36.7595 59.704L38.0928 60.2373C38.6262 60.5929 39.3373 60.7706 40.2262 60.7706C41.1151 60.7706 41.8262 60.5929 42.3595 60.2373L43.6928 59.4373L52.4928 79.4373C52.6706 79.9706 53.0262 80.2373 53.5595 80.2373H53.8262C54.1817 80.2373 54.4484 80.0595 54.6262 79.704L58.8928 73.8373L65.8262 74.6373C66.3595 74.8151 66.7595 74.6817 67.0262 74.2373C67.2928 73.7929 67.3373 73.3929 67.1595 73.0373L58.3595 53.5706L59.6928 53.0373C60.404 52.8595 61.0706 52.504 61.6928 51.9706C62.3151 51.4373 62.7151 50.8151 62.8928 50.104L63.4262 46.904C63.604 46.5484 63.8706 46.1929 64.2262 45.8373L66.8928 43.9706C67.4262 43.4373 67.8706 42.8151 68.2262 42.104C68.5817 41.3929 68.6706 40.6817 68.4928 39.9706L67.9595 36.7706C67.9595 36.2373 68.0484 35.7929 68.2262 35.4373L69.8262 32.7706ZM26.6262 76.504L23.4262 71.704C23.0706 71.3484 22.6262 71.1706 22.0928 71.1706L16.4928 71.9706L24.4928 54.104L27.4262 57.8373L23.1595 67.1706C22.9817 67.5262 22.9817 67.8373 23.1595 68.104C23.3373 68.3706 23.604 68.5929 23.9595 68.7706L24.2262 69.0373C24.7595 69.0373 25.204 68.7706 25.5595 68.2373L29.5595 58.904C30.0928 58.904 30.5373 58.904 30.8928 58.904L34.6262 58.3706L26.6262 76.504ZM63.9595 71.9706L58.3595 71.1706C57.8262 71.1706 57.4706 71.3484 57.2928 71.704L54.0928 76.504L45.8262 58.3706L49.5595 58.904C49.9151 58.904 50.3595 58.904 50.8928 58.904L54.8928 68.2373C55.2484 68.7706 55.6928 69.0373 56.2262 69.0373L56.7595 68.7706C56.9373 68.5929 57.1151 68.3706 57.2928 68.104C57.4706 67.8373 57.4706 67.5262 57.2928 67.1706L53.0262 57.8373L55.4262 54.6373L55.9595 54.104L63.9595 71.9706ZM67.6928 31.4373L66.0928 34.104C65.5595 34.9929 65.3817 35.9706 65.5595 37.0373L66.0928 40.2373C66.0928 40.9484 65.8262 41.4817 65.2928 41.8373L62.6262 43.704C61.9151 44.4151 61.3817 45.304 61.0262 46.3706L60.2262 49.304C60.2262 50.0151 59.8706 50.4595 59.1595 50.6373L55.9595 51.4373C54.8928 51.6151 54.0928 52.1484 53.5595 53.0373L51.6928 55.704C51.1595 56.2373 50.5373 56.504 49.8262 56.504L46.8928 55.9706C45.8262 55.7929 44.8484 55.9706 43.9595 56.504L41.0262 58.104C40.4928 58.4595 39.9595 58.4595 39.4262 58.104L36.4928 56.504C35.7817 55.9706 35.0706 55.704 34.3595 55.704L30.6262 56.504C29.9151 56.504 29.2928 56.2373 28.7595 55.704L26.8928 53.0373C26.3595 52.1484 25.5595 51.6151 24.4928 51.4373L21.2928 50.6373C20.5817 50.4595 20.2262 50.0151 20.2262 49.304L19.4262 46.3706C19.0706 45.304 18.5373 44.4151 17.8262 43.704L15.1595 41.8373C14.6262 41.4817 14.3595 40.9484 14.3595 40.2373L14.8928 37.0373C15.0706 35.9706 14.8928 34.9929 14.3595 34.104L12.7595 31.4373C12.4039 30.904 12.4039 30.2817 12.7595 29.5706L14.3595 26.904C14.8928 26.0151 15.0706 25.0373 14.8928 23.9706L14.3595 20.7706C14.3595 20.0595 14.6262 19.5262 15.1595 19.1706L17.8262 17.304C18.5373 16.5929 19.0706 15.7929 19.4262 14.904L20.2262 11.704C20.2262 10.9929 20.5817 10.5484 21.2928 10.3706L24.4928 9.57063C25.5595 9.39285 26.3595 8.85952 26.8928 7.97063L28.7595 5.57063C29.2928 4.85952 29.9151 4.59286 30.6262 4.77064L33.5595 5.30397C34.6262 5.48174 35.604 5.30397 36.4928 4.77064L39.4262 2.90397C39.9595 2.54841 40.4928 2.54841 41.0262 2.90397L43.9595 4.77064C44.8484 5.30397 45.8262 5.48174 46.8928 5.30397L49.8262 4.77064C50.5373 4.59286 51.1595 4.85952 51.6928 5.57063L53.5595 7.97063C54.0928 8.85952 54.8928 9.39285 55.9595 9.57063L59.1595 10.3706C59.8706 10.5484 60.2262 10.9929 60.2262 11.704L61.0262 14.904C61.3817 15.9706 61.9151 16.7706 62.6262 17.304L65.2928 19.1706C65.8262 19.5262 66.0928 20.0595 66.0928 20.7706L65.5595 23.9706C65.3817 25.0373 65.5595 26.0151 66.0928 26.904L67.6928 29.5706C68.0484 30.2817 68.0484 30.904 67.6928 31.4373ZM54.8928 26.6373C54.7151 25.7484 54.0928 25.2151 53.0262 25.0373L45.5595 24.2373L42.3595 17.304C41.8262 16.4151 41.1151 15.9706 40.2262 15.9706C39.3373 15.9706 38.6262 16.4151 38.0928 17.304L34.8928 24.2373L27.4262 25.0373C26.3595 25.2151 25.6928 25.7484 25.4262 26.6373C25.1595 27.5262 25.3817 28.3262 26.0928 29.0373L31.6928 34.104L30.0928 41.5706C29.9151 42.6373 30.2706 43.4373 31.1595 43.9706C31.5151 44.3262 31.9151 44.504 32.3595 44.504C32.804 44.504 33.204 44.4151 33.5595 44.2373L40.2262 40.504L46.8928 44.2373C47.7817 44.5929 48.6262 44.504 49.4262 43.9706C50.2262 43.4373 50.5373 42.6373 50.3595 41.5706L48.7595 34.104L54.3595 29.0373C55.0706 28.3262 55.2484 27.5262 54.8928 26.6373ZM46.6262 32.7706C46.2706 33.1262 46.0928 33.5706 46.0928 34.104L47.6928 41.5706L40.7595 37.8373C40.5817 37.6595 40.404 37.5706 40.2262 37.5706C40.0484 37.5706 39.8706 37.6595 39.6928 37.8373L32.7595 41.5706L34.3595 34.104C34.3595 33.5706 34.1817 33.1262 33.8262 32.7706L28.2262 27.4373L35.9595 26.6373C36.4928 26.6373 36.8484 26.3706 37.0262 25.8373L40.2262 18.904L43.4262 25.8373C43.604 26.3706 43.9595 26.6373 44.4928 26.6373L52.2262 27.4373L46.6262 32.7706Z" fill="#2C3587"/>
</svg>
