<svg width="48" height="42" viewBox="0 0 48 42" fill="none" xmlns="http://www.w3.org/2000/svg">
<path d="M43.341 0.237793C41.1801 0.237793 39.4259 1.99197 39.4259 4.14798C39.4259 4.91729 39.6513 5.63757 40.0335 6.24029L33.4773 11.3657C32.7619 10.4739 31.6594 9.90058 30.4295 9.90058C28.9987 9.90058 27.7443 10.6748 27.0632 11.8263L21.0754 8.32767C21.3057 7.82789 21.4331 7.27419 21.4331 6.69108C21.4331 4.53507 19.6789 2.78086 17.5229 2.78086C15.3669 2.78086 13.6078 4.53507 13.6078 6.69108C13.6078 7.43099 13.8185 8.12678 14.1762 8.71969L7.49747 13.7177C6.78206 12.9386 5.75307 12.4437 4.61136 12.4437C2.45538 12.4437 0.701172 14.2028 0.701172 16.3588C0.701172 18.5148 2.45538 20.269 4.61136 20.269C6.77228 20.269 8.52646 18.5148 8.52646 16.3588C8.52646 15.614 8.31576 14.9182 7.95807 14.3253L14.6368 9.32729C15.3522 10.1113 16.3812 10.6013 17.5229 10.6013C18.8214 10.6013 19.9778 9.96428 20.6883 8.98428L26.7398 12.5172C26.5977 12.9239 26.5193 13.36 26.5193 13.8157C26.5193 15.9717 28.2735 17.7259 30.4295 17.7259C32.5855 17.7259 34.3446 15.9717 34.3446 13.8157C34.3446 13.164 34.1829 12.5466 33.8987 12.0076L40.5039 6.84298C41.2193 7.59267 42.2238 8.05817 43.341 8.05817C45.497 8.05817 47.2512 6.30397 47.2512 4.14798C47.2512 1.99197 45.497 0.237793 43.341 0.237793ZM17.5229 9.84178C15.7834 9.84178 14.3722 8.42567 14.3722 6.69108C14.3722 4.95647 15.7834 3.54039 17.5229 3.54039C19.2575 3.54039 20.6687 4.95647 20.6687 6.69108C20.6687 8.42567 19.2575 9.84178 17.5229 9.84178ZM43.341 7.29868C41.6015 7.29868 40.1903 5.88257 40.1903 4.14798C40.1903 2.41336 41.6015 0.997287 43.341 0.997287C45.0756 0.997287 46.4868 2.41336 46.4868 4.14798C46.4868 5.88257 45.0756 7.29868 43.341 7.29868Z" fill="#224D99"/>
<path d="M4.23242 22.4312H4.99535V24.7866H4.23242V22.4312Z" fill="#224D99"/>
<path d="M10.6875 14.7031H11.4504V22.5377H10.6875V14.7031Z" fill="#224D99"/>
<path d="M17.1387 12.7651H17.9016V23.5353H17.1387V12.7651Z" fill="#224D99"/>
<path d="M23.5938 13.4106H24.3567V25.8802H23.5938V13.4106Z" fill="#224D99"/>
<path d="M30.0508 19.8867H30.8137V25.8799H30.0508V19.8867Z" fill="#224D99"/>
<path d="M36.502 12.4189H37.2649V25.8807H36.502V12.4189Z" fill="#224D99"/>
<path d="M42.957 10.2212H43.72V26.0178H42.957V10.2212Z" fill="#224D99"/>
<path d="M42.3708 27.5352H19.1448C18.1305 27.5352 17.3073 28.3584 17.3073 29.3678V32.4009H15.0827C15.1954 32.1951 15.264 31.955 15.264 31.7051V29.75C15.264 29.5001 15.2003 29.2649 15.0876 29.0591H15.2444C16.048 29.0591 16.6997 28.4025 16.6997 27.5989V25.6487C16.6997 24.8451 16.048 24.1934 15.2444 24.1934H7.60044C6.79683 24.1934 6.14512 24.8451 6.14512 25.6487V27.5989C6.14512 27.8537 6.20883 28.0889 6.32152 28.2947H6.15984C5.35623 28.2947 4.70452 28.9464 4.70452 29.75V31.7051C4.70452 31.9697 4.77313 32.2147 4.90053 32.4303C4.23902 32.5724 3.74414 33.1555 3.74414 33.8562V35.8064C3.74414 36.5071 4.23902 37.0902 4.90053 37.2323C4.77313 37.4479 4.70452 37.6929 4.70452 37.9575V39.9126C4.70452 40.7162 5.35623 41.3679 6.15984 41.3679H42.3708C43.3851 41.3679 44.2083 40.5447 44.2083 39.5353V29.3678C44.2083 28.3584 43.3851 27.5352 42.3708 27.5352ZM20.1395 33.1653C20.5266 33.1653 20.8353 33.474 20.8353 33.8562V35.8113C20.8353 36.1886 20.5266 36.5022 20.1395 36.5022H14.1272C14.2399 36.2964 14.3036 36.0563 14.3036 35.8064V33.8562C14.3036 33.6063 14.2399 33.3711 14.1272 33.1653H20.1395ZM6.90462 25.6487C6.90462 25.2665 7.21822 24.9529 7.60044 24.9529H15.2444C15.6266 24.9529 15.9402 25.2665 15.9402 25.6487V27.5989C15.9402 27.986 15.6266 28.2947 15.2444 28.2947H7.60044C7.21822 28.2947 6.90462 27.986 6.90462 27.5989V25.6487ZM5.46892 29.75C5.46892 29.3678 5.77762 29.0591 6.15984 29.0591H13.8038C14.186 29.0591 14.4996 29.3678 14.4996 29.75V31.7051C14.4996 32.0873 14.186 32.396 13.8038 32.396H6.15984C5.77762 32.396 5.46892 32.0873 5.46892 31.7051V29.75ZM4.50854 35.8064V33.8562C4.50854 33.474 4.81724 33.1604 5.20433 33.1604H12.5004V33.1653H12.9022C13.2599 33.1947 13.5392 33.4936 13.5392 33.8562V35.8064C13.5392 36.1886 13.2256 36.5022 12.8434 36.5022H5.20433C4.81724 36.5022 4.50854 36.1886 4.50854 35.8064ZM14.4996 39.9126C14.4996 40.2948 14.186 40.6035 13.8038 40.6035H6.15984C5.77762 40.6035 5.46892 40.2948 5.46892 39.9126V37.9575C5.46892 37.5753 5.77762 37.2666 6.15984 37.2666H13.8038C14.186 37.2666 14.4996 37.5753 14.4996 37.9575V39.9126ZM22.2122 39.9077C22.2122 40.2948 21.8986 40.6084 21.5213 40.6084H15.0827C15.1954 40.3977 15.264 40.1625 15.264 39.9126V37.9575C15.264 37.7076 15.2003 37.4724 15.0876 37.2666H21.5213C21.8986 37.2666 22.2122 37.5753 22.2122 37.9575V39.9077ZM43.4439 39.5353C43.4439 40.1233 42.9637 40.6084 42.3708 40.6084H22.7953C22.908 40.3977 22.9717 40.1625 22.9717 39.9077V39.3344H39.911L40.2932 38.9522C40.2932 38.1241 40.9645 37.4528 41.7926 37.4528L42.1748 37.0706V31.8325L41.7926 31.4503C40.9645 31.4503 40.2932 30.7741 40.2932 29.9509L39.911 29.5687H21.6046L21.2224 29.9509C21.2224 30.7741 20.5511 31.4503 19.723 31.4503L19.3408 31.8325V32.4009H18.0717V29.3678C18.0717 28.7798 18.5519 28.2996 19.1448 28.2996H42.3708C42.9637 28.2996 43.4439 28.7798 43.4439 29.3678V39.5353ZM28.0677 34.454C28.0677 32.9693 29.2731 31.7639 30.7578 31.7639C32.2376 31.7639 33.443 32.9693 33.443 34.454C33.443 35.9338 32.2376 37.1392 30.7578 37.1392C29.2731 37.1392 28.0677 35.9338 28.0677 34.454Z" fill="#224D99"/>
</svg>
