<svg width="46" height="48" viewBox="0 0 46 48" fill="none" xmlns="http://www.w3.org/2000/svg">
<path d="M45.4029 30.129L43.2994 26.4846C44.0401 26.0415 44.533 25.2768 44.6258 24.383C44.7875 22.8249 44.7818 21.2439 44.6086 19.6849C44.4593 18.3431 43.4161 17.3268 42.0705 17.2129L38.9908 16.9516C38.3831 16.8999 37.8806 16.5353 37.6462 15.9754C37.4117 15.4156 37.5036 14.8012 37.8931 14.3313L39.8655 11.954C40.7269 10.9156 40.7345 9.45997 39.8847 8.41297C38.8961 7.19563 37.7735 6.08165 36.5475 5.10356C35.4938 4.26233 34.0372 4.28147 33.0065 5.15141L30.6455 7.14299C30.1794 7.53633 29.566 7.63395 29.0042 7.40331C28.4424 7.17266 28.073 6.67309 28.0165 6.06633L27.7304 2.98948C27.606 1.64676 26.581 0.611256 25.2402 0.471529C23.6812 0.309791 22.1011 0.315533 20.5421 0.489713C19.2013 0.63901 18.184 1.68313 18.0701 3.02776L17.8088 6.10653C17.7572 6.71424 17.3925 7.21764 16.8327 7.45212C16.2728 7.68659 15.6584 7.59471 15.1885 7.20424L12.8112 5.2318C11.7728 4.37047 10.3172 4.36282 9.2702 5.21266C8.05285 6.20127 6.93887 7.32387 5.96078 8.54983C5.11955 9.60352 5.13965 11.0601 6.00863 12.0908L8.00022 14.4518C8.39356 14.9179 8.49117 15.5314 8.26053 16.0932C8.02988 16.6549 7.53031 17.0243 6.92356 17.0808L3.8467 17.367C2.50399 17.4923 1.46848 18.5164 1.32875 19.8572C1.16701 21.4152 1.17276 22.9962 1.34598 24.5552C1.43977 25.4012 1.90489 26.141 2.5949 26.588L0.550686 30.129C0.231995 30.6812 0.147776 31.3262 0.313342 31.9445C0.478909 32.5627 0.874162 33.0785 1.42637 33.3972L3.48973 34.5887C3.86393 34.8041 4.27162 34.9074 4.67549 34.9074C5.39996 34.9074 6.10817 34.5763 6.56754 33.9762C7.38006 35.1362 8.09018 35.9898 8.88547 36.766L8.65578 37.1641C8.33805 37.7134 8.25479 38.3566 8.4194 38.9729C8.58496 39.5892 8.9783 40.1041 9.5286 40.4209C9.90279 40.6372 10.3124 40.7396 10.7172 40.7396C10.9125 40.7396 11.1058 40.7147 11.2943 40.6678C11.2713 40.9396 11.2962 41.2171 11.369 41.4889C11.5345 42.1053 11.9279 42.6201 12.4782 42.9369C12.8438 43.1484 13.2495 43.2556 13.663 43.2556C13.8706 43.2556 14.0802 43.2279 14.287 43.1724C14.397 43.1427 14.5023 43.1034 14.6056 43.0594C14.619 43.1714 14.6411 43.2824 14.6707 43.3934C14.8363 44.0098 15.2296 44.5246 15.7799 44.8414C16.1455 45.0529 16.5513 45.1601 16.9647 45.1601C17.1724 45.1601 17.383 45.1324 17.5897 45.0768C17.8624 45.0041 18.1132 44.8835 18.3371 44.7285C18.5017 45.3017 18.8788 45.8147 19.4348 46.1363C19.81 46.3526 20.2186 46.455 20.6235 46.455C21.4073 46.455 22.171 46.0683 22.6237 45.3745L25.3139 46.9277C25.6881 47.144 26.0977 47.2464 26.5025 47.2464C27.3275 47.2464 28.1304 46.8186 28.5716 46.0549C28.8491 45.5745 28.9401 45.0357 28.8664 44.5246C29.922 44.8854 31.123 44.4615 31.7011 43.4595C31.9786 42.979 32.0696 42.4402 31.9959 41.9292C33.0515 42.289 34.2525 41.866 34.8306 40.864C35.1081 40.3836 35.199 39.8448 35.1254 39.3337C35.5685 39.4849 36.047 39.5021 36.5111 39.3777C37.1275 39.2122 37.6423 38.8188 37.9601 38.2685C38.2778 37.7182 38.3611 37.0761 38.1965 36.4597C38.1381 36.2415 38.0491 36.0367 37.9362 35.8472C38.4089 35.3065 38.876 34.7045 39.3899 33.9715C39.8493 34.5715 40.5575 34.9026 41.2819 34.9026C41.6848 34.9026 42.0935 34.8002 42.4677 34.584L44.5311 33.3924C45.0833 33.0738 45.4785 32.5579 45.6441 31.9397C45.8097 31.3214 45.7216 30.6812 45.4029 30.129ZM2.29727 24.449C2.13074 22.9579 2.12596 21.4458 2.28004 19.9557C2.37192 19.0743 3.05141 18.4015 3.93475 18.3192L7.0116 18.0331C7.96576 17.944 8.78403 17.3402 9.14578 16.4559C9.50754 15.5716 9.34867 14.5667 8.73139 13.8346L6.73981 11.4736C6.16846 10.796 6.15506 9.83895 6.70823 9.14702C7.6442 7.97466 8.70938 6.90087 9.87313 5.95628C10.5612 5.39737 11.5183 5.40311 12.2006 5.96872L14.5779 7.94116C15.3158 8.55366 16.3216 8.70391 17.203 8.3345C18.0845 7.96508 18.6826 7.14299 18.763 6.18788L19.0243 3.10815C19.0989 2.22481 19.7669 1.53862 20.6483 1.441C22.1394 1.27448 23.6505 1.26874 25.1416 1.42378C26.023 1.51565 26.6958 2.19514 26.7781 3.07848L27.0643 6.15534C27.1533 7.1095 27.7572 7.92776 28.6415 8.28952C29.5258 8.65128 30.5306 8.49241 31.2628 7.87512L33.6238 5.88354C34.3013 5.31219 35.2574 5.2988 35.9503 5.85196C37.1227 6.78794 38.1965 7.85311 39.142 9.01686C39.7009 9.70497 39.6952 10.662 39.1296 11.3444L37.1571 13.7216C36.5446 14.4595 36.3944 15.4653 36.7638 16.3468C37.1332 17.2282 37.9553 17.8263 38.9104 17.9067L41.9901 18.168C42.8735 18.2426 43.5597 18.9107 43.6573 19.7921C43.8238 21.2831 43.8296 22.7952 43.6745 24.2853C43.6142 24.8663 43.2974 25.3649 42.8218 25.6568L39.4722 19.8552C38.8128 18.7125 37.3466 18.3192 36.2039 18.9796L34.1406 20.1711C33.0189 20.819 32.6246 22.2488 33.2457 23.3781C32.9538 23.5302 32.6553 23.669 32.348 23.7963C32.4457 23.245 32.4964 22.6842 32.4964 22.1205C32.4964 20.8898 32.2667 19.6983 31.8131 18.5719C32.7873 18.1173 33.4649 17.1287 33.4649 15.985C33.4649 14.4116 32.1844 13.1311 30.611 13.1311C30.2244 13.1311 29.8406 13.2106 29.4875 13.3618V11.018C29.4875 10.1682 28.7965 9.47624 27.9457 9.47624H25.5972C25.7005 9.25038 25.8326 8.90202 25.8326 8.35268C25.8326 6.77932 24.5521 5.49881 22.9787 5.49881C21.4054 5.49881 20.1248 6.77932 20.1248 8.35268C20.1248 8.73932 20.2043 9.12309 20.3555 9.47624H18.0098C17.16 9.47624 16.468 10.1672 16.468 11.018V13.3666C16.2422 13.2632 15.8938 13.1311 15.3445 13.1311C13.7711 13.1311 12.4906 14.4116 12.4906 15.985C12.4906 17.1296 13.1682 18.1182 14.1424 18.5719C13.6888 19.6983 13.4591 20.8888 13.4591 22.1205C13.4591 22.6842 13.5089 23.245 13.6075 23.7963C13.3117 23.6738 13.0122 23.5341 12.7098 23.3771C13.0064 22.8373 13.0821 22.2143 12.9222 21.6162C12.7576 21.0018 12.3643 20.4878 11.8149 20.1711L9.75158 18.9796C8.60889 18.3202 7.14272 18.7125 6.48332 19.8552L3.07533 25.7582C2.64563 25.4615 2.35756 24.9878 2.29727 24.449ZM37.0834 35.0156L31.6686 31.889C33.1424 31.7866 34.109 31.3176 34.154 31.2946C34.3904 31.1779 34.488 30.8908 34.3703 30.6534C34.2525 30.4161 33.9664 30.3194 33.729 30.4371C33.686 30.4582 29.3468 32.5311 25.1473 28.146C25.0603 28.0551 24.9416 28.0024 24.8162 27.9986L22.617 27.9326C22.4858 27.9307 22.3576 27.9795 22.2638 28.0723L20.7393 29.5969C20.1124 30.2237 19.3745 30.3252 18.8673 30.3003C18.1514 30.2649 17.6193 29.9749 17.382 29.7375C17.2729 29.6284 17.2126 29.483 17.2126 29.327C17.2126 29.171 17.2729 29.0255 17.382 28.9164L20.1335 26.1649L20.1354 26.163L20.165 26.1334C20.6579 25.6405 21.1776 25.3409 21.8494 25.161L25.3962 24.2107C26.2518 23.982 27.0298 24.0365 27.8452 24.3849L28.7707 24.7782C29.9105 25.2625 31.0771 25.2912 32.2389 24.8653C32.7577 24.6749 33.2457 24.4576 33.7223 24.2078L38.8434 33.0785C38.2788 33.9064 37.7802 34.5648 37.2806 35.1429C37.2174 35.0969 37.1514 35.0548 37.0834 35.0156ZM14.665 24.1753C14.5004 23.5063 14.4162 22.8163 14.4162 22.1205C14.4162 20.975 14.6382 19.8686 15.0736 18.8255C15.1626 18.8341 15.2526 18.8389 15.3435 18.8389C15.7302 18.8389 16.1139 18.7594 16.4671 18.6082V20.952C16.4671 21.8018 17.158 22.4938 18.0089 22.4938H20.6072C20.8914 22.4938 21.147 22.3483 21.2924 22.1043C21.5116 21.7348 21.3642 21.4238 21.2656 21.219C21.1785 21.0362 21.08 20.8295 21.08 20.4132C21.08 19.3672 21.9308 18.5173 22.9768 18.5173C24.0228 18.5173 24.8736 19.3681 24.8736 20.4132C24.8736 20.729 24.7942 21.041 24.6449 21.3157C24.509 21.5655 24.5147 21.8602 24.6602 22.1043C24.8057 22.3483 25.0622 22.4938 25.3464 22.4938H27.9447C28.7946 22.4938 29.4865 21.8028 29.4865 20.952V18.6034C29.7124 18.7068 30.0607 18.8389 30.6101 18.8389C30.701 18.8389 30.791 18.8341 30.88 18.8255C31.3164 19.8686 31.5374 20.975 31.5374 22.1205C31.5374 22.8039 31.4571 23.4814 31.2982 24.1389C30.5747 24.2825 29.8646 24.203 29.1449 23.8977L28.2204 23.5044C27.2126 23.0747 26.2077 23.0029 25.1493 23.2862L21.6025 24.2365C20.8503 24.4385 20.2301 24.7753 19.6683 25.2883C18.9362 25.0787 18.1955 24.9428 17.4164 24.7993C16.5188 24.6347 15.6048 24.4653 14.665 24.1753ZM21.3087 9.25421C21.1594 8.97954 21.08 8.66659 21.08 8.35172C21.08 7.30569 21.9308 6.45489 22.9768 6.45489C24.0228 6.45489 24.8736 7.30569 24.8736 8.35172C24.8736 8.76803 24.7751 8.97475 24.688 9.15755C24.5894 9.36331 24.4411 9.67434 24.6612 10.0428C24.8066 10.2868 25.0622 10.4323 25.3464 10.4323H27.9447C28.2673 10.4323 28.5295 10.6945 28.5295 11.0171V13.6154C28.5295 13.8996 28.675 14.1561 28.919 14.3016C29.163 14.4471 29.4578 14.4518 29.7076 14.3169C29.9832 14.1676 30.2952 14.0891 30.6101 14.0891C31.6561 14.0891 32.5069 14.9399 32.5069 15.986C32.5069 17.032 31.6561 17.8828 30.6101 17.8828C30.1938 17.8828 29.9871 17.7842 29.8043 17.6971C29.5985 17.5986 29.2875 17.4502 28.919 17.6703C28.675 17.8158 28.5295 18.0713 28.5295 18.3556V20.9539C28.5295 21.2764 28.2673 21.5387 27.9447 21.5387H25.601C25.7522 21.1855 25.8316 20.8017 25.8316 20.4151C25.8316 18.8417 24.5511 17.5622 22.9778 17.5622C21.4044 17.5622 20.1239 18.8427 20.1239 20.4151C20.1239 20.9654 20.256 21.3138 20.3593 21.5387H18.0098C17.6873 21.5387 17.4251 21.2764 17.4251 20.9539V18.3556C17.4251 18.0713 17.2796 17.8148 17.0355 17.6694C16.7915 17.5239 16.4967 17.5182 16.247 17.6541C15.9713 17.8034 15.6593 17.8828 15.3445 17.8828C14.2984 17.8828 13.4476 17.032 13.4476 15.986C13.4476 14.9399 14.2984 14.0891 15.3445 14.0891C15.7608 14.0891 15.9675 14.1877 16.1503 14.2748C16.3561 14.3734 16.6671 14.5217 17.0355 14.3016C17.2796 14.1561 17.4251 13.9006 17.4251 13.6164V11.018C17.4251 10.6955 17.6873 10.4333 18.0098 10.4333H20.6081C20.8924 10.4333 21.1489 10.2878 21.2943 10.0438C21.4398 9.79971 21.4446 9.50495 21.3087 9.25421ZM3.96824 33.7599L1.90489 32.5684C1.57375 32.377 1.33737 32.0679 1.23783 31.6966C1.1383 31.3253 1.18903 30.9386 1.37947 30.6075L7.31211 20.3328C7.57817 19.8725 8.06147 19.615 8.55817 19.615C8.80125 19.615 9.04817 19.6772 9.27307 19.8074L11.3364 20.9989C11.6647 21.1884 11.8992 21.4946 11.9977 21.8631C12.0963 22.2316 12.0465 22.6144 11.8571 22.9426L5.91197 33.2403C5.51959 33.9188 4.64774 34.1523 3.96824 33.7599ZM10.0071 39.5921C9.67885 39.4026 9.44342 39.0944 9.34389 38.725C9.24436 38.3556 9.29508 37.9709 9.48457 37.6426L11.3986 34.3265C11.792 33.6451 12.6667 33.4106 13.3491 33.804C13.6773 33.9935 13.9128 34.3016 14.0123 34.671C14.1118 35.0405 14.0611 35.4252 13.8716 35.7534L11.9575 39.0696C11.5642 39.7519 10.6885 39.9854 10.0071 39.5921ZM14.0381 42.2507C13.6687 42.3493 13.284 42.2995 12.9557 42.11C12.6275 41.9206 12.392 41.6124 12.2925 41.243C12.193 40.8736 12.2437 40.4888 12.4332 40.1606L15.0535 35.6214C15.243 35.2931 15.5512 35.0577 15.9206 34.9582C16.291 34.8586 16.6747 34.9093 17.003 35.0988C17.3313 35.2883 17.5667 35.5965 17.6662 35.9659C17.7658 36.3353 17.715 36.72 17.5255 37.0483L14.9052 41.5875C14.7157 41.9158 14.4075 42.1512 14.0381 42.2507ZM17.3399 44.1562C16.9705 44.2557 16.5857 44.2059 16.2575 44.0155C15.9292 43.826 15.6938 43.5178 15.5943 43.1484C15.4947 42.779 15.5455 42.3943 15.7349 42.066L18.7084 36.9153C19.1018 36.2339 19.9765 35.9994 20.6589 36.3927C21.3403 36.7861 21.5747 37.6608 21.1814 38.3432L18.2079 43.4939C18.0175 43.8222 17.7093 44.0576 17.3399 44.1562ZM19.9114 45.3104C19.23 44.917 18.9956 44.0423 19.3889 43.3609L21.3039 40.0448C21.6972 39.3634 22.572 39.1289 23.2534 39.5222C23.9348 39.9156 24.1693 40.7903 23.7759 41.4727L21.8619 44.7888C21.4676 45.4692 20.5928 45.7037 19.9114 45.3104ZM37.1275 37.7938C36.938 38.1221 36.6298 38.3575 36.2604 38.4571C35.89 38.5566 35.5063 38.5059 35.178 38.3164L30.5163 35.6252C30.2876 35.4931 29.9947 35.5716 29.8626 35.8003C29.7306 36.0291 29.809 36.3219 30.0378 36.454L33.485 38.4437C34.1607 38.8389 34.3913 39.7098 33.9999 40.3893C33.6065 41.0707 32.7318 41.3052 32.0495 40.9118L28.6108 38.926C28.3821 38.7939 28.0893 38.8724 27.9572 39.1011C27.8251 39.3299 27.9036 39.6227 28.1323 39.7548L30.3546 41.0382C31.0312 41.4334 31.2628 42.3053 30.8704 42.9838C30.4771 43.6652 29.6023 43.8997 28.92 43.5064L26.7044 42.2268C26.4757 42.0947 26.1829 42.1732 26.0508 42.4019C25.9187 42.6307 25.9972 42.9235 26.2259 43.0556L27.2174 43.6279L27.2193 43.6289C27.9007 44.0222 28.1352 44.8969 27.7419 45.5793C27.3485 46.2616 26.4738 46.4952 25.7914 46.1018L23.105 44.5505L24.6066 41.9502C25.2641 40.8114 24.8727 39.35 23.7338 38.6925C23.2524 38.4149 22.7146 38.325 22.2026 38.3987C22.5634 37.3431 22.1404 36.142 21.1383 35.563C20.3115 35.0854 19.3152 35.162 18.5792 35.675C18.4079 35.0768 18.0213 34.5782 17.4844 34.2691C16.9351 33.9514 16.2919 33.8681 15.6756 34.0327C15.4029 34.1064 15.1512 34.226 14.9263 34.383C14.7549 33.7839 14.3683 33.2843 13.8305 32.9742C12.6916 32.3167 11.2302 32.7082 10.5727 33.847L9.38313 35.9075C8.62516 35.1429 7.93131 34.2758 7.11209 33.0766L12.2341 24.2059C14.0266 25.1467 15.7292 25.4615 17.2442 25.74C17.8079 25.8434 18.3505 25.9439 18.8769 26.0702L16.7073 28.2398C16.4173 28.5298 16.2575 28.9155 16.2575 29.327C16.2575 29.7385 16.4173 30.1242 16.7073 30.4142C17.1858 30.8927 17.9964 31.2152 18.8223 31.2564C19.8138 31.3061 20.7354 30.9568 21.4188 30.2735L22.7978 28.8944L24.5971 28.949C26.3188 30.6927 28.0625 31.4535 29.5133 31.7473L36.6078 35.8434C36.9361 36.0329 37.1715 36.3411 37.271 36.7105C37.3667 37.0808 37.317 37.4656 37.1275 37.7938ZM44.7158 31.6966C44.6162 32.0679 44.3789 32.378 44.0487 32.5684L41.9854 33.7599C41.3059 34.1523 40.434 33.9188 40.0426 33.2393L34.0975 22.9417C33.7051 22.2622 33.9386 21.3903 34.6181 20.9989L36.6815 19.8074C36.9073 19.6772 37.1533 19.615 37.3964 19.615C37.8931 19.615 38.3764 19.8725 38.6424 20.3328L44.5751 30.6075C44.7655 30.9386 44.8153 31.3253 44.7158 31.6966Z" fill="#224D99"/>
<path d="M21.3087 9.25421C21.1594 8.97954 21.08 8.66659 21.08 8.35172C21.08 7.30569 21.9308 6.45489 22.9768 6.45489C24.0228 6.45489 24.8736 7.30569 24.8736 8.35172C24.8736 8.76803 24.7751 8.97475 24.688 9.15755C24.5894 9.36331 24.4411 9.67434 24.6612 10.0428C24.8066 10.2868 25.0622 10.4323 25.3464 10.4323H27.9447C28.2673 10.4323 28.5295 10.6945 28.5295 11.0171V13.6154C28.5295 13.8996 28.675 14.1561 28.919 14.3016C29.163 14.4471 29.4578 14.4518 29.7076 14.3169C29.9832 14.1676 30.2952 14.0891 30.6101 14.0891C31.6561 14.0891 32.5069 14.9399 32.5069 15.986C32.5069 17.032 31.6561 17.8828 30.6101 17.8828C30.1938 17.8828 29.9871 17.7842 29.8043 17.6971C29.5985 17.5986 29.2875 17.4502 28.919 17.6703C28.675 17.8158 28.5295 18.0713 28.5295 18.3556V20.9539C28.5295 21.2764 28.2673 21.5387 27.9447 21.5387H25.601C25.7522 21.1855 25.8316 20.8017 25.8316 20.4151C25.8316 18.8417 24.5511 17.5622 22.9778 17.5622C21.4044 17.5622 20.1239 18.8427 20.1239 20.4151C20.1239 20.9654 20.256 21.3138 20.3593 21.5387H18.0098C17.6873 21.5387 17.4251 21.2764 17.4251 20.9539V18.3556C17.4251 18.0713 17.2796 17.8148 17.0355 17.6694C16.7915 17.5239 16.4967 17.5182 16.247 17.6541C15.9713 17.8034 15.6593 17.8828 15.3445 17.8828C14.2984 17.8828 13.4476 17.032 13.4476 15.986C13.4476 14.9399 14.2984 14.0891 15.3445 14.0891C15.7608 14.0891 15.9675 14.1877 16.1503 14.2748C16.3561 14.3734 16.6671 14.5217 17.0355 14.3016C17.2796 14.1561 17.4251 13.9006 17.4251 13.6164V11.018C17.4251 10.6955 17.6873 10.4333 18.0098 10.4333H20.6081C20.8924 10.4333 21.1489 10.2878 21.2943 10.0438C21.4398 9.79971 21.4446 9.50495 21.3087 9.25421Z" fill="#224D99"/>
</svg>
