<svg width="44" height="50" viewBox="0 0 44 50" fill="none" xmlns="http://www.w3.org/2000/svg">
<path d="M7.77345 0.888184H4.84377C4.39825 0.888591 3.95719 0.976919 3.54587 1.1481C3.13454 1.31929 2.76105 1.56997 2.44679 1.88577C2.13253 2.20157 1.88369 2.57629 1.71452 2.98844C1.54535 3.40059 1.45918 3.84208 1.46095 4.2876V43.4702C1.45882 43.9165 1.54464 44.3589 1.7135 44.772C1.88236 45.1852 2.13096 45.561 2.4451 45.878C2.75924 46.1951 3.13276 46.4471 3.54433 46.6198C3.9559 46.7924 4.39745 46.8823 4.84377 46.8843H7.77345C7.32714 46.8823 6.88559 46.7924 6.47402 46.6198C6.06245 46.4471 5.68893 46.1951 5.37479 45.878C5.06065 45.561 4.81205 45.1852 4.64319 44.772C4.47432 44.3589 4.38851 43.9165 4.39064 43.4702V4.2876C4.38887 3.84208 4.47504 3.40059 4.6442 2.98844C4.81337 2.57629 5.06222 2.20157 5.37648 1.88577C5.69074 1.56997 6.06423 1.31929 6.47555 1.1481C6.88687 0.976919 7.32793 0.888591 7.77345 0.888184Z" fill="#D4E1F4"/>
<path d="M36.5171 36.7131L32.0621 41.168L29.9159 39.0218C29.8056 38.9144 29.6573 38.8547 29.5033 38.8558C29.3493 38.8568 29.2019 38.9185 29.093 39.0274C28.9841 39.1363 28.9224 39.2837 28.9214 39.4378C28.9203 39.5918 28.98 39.74 29.0874 39.8504L31.6479 42.4109C31.7578 42.5208 31.9068 42.5825 32.0622 42.5825C32.2176 42.5825 32.3666 42.5208 32.4765 42.4109L37.3456 37.5418C37.454 37.4316 37.5145 37.2831 37.5139 37.1285C37.5133 36.9739 37.4516 36.8259 37.3424 36.7165C37.2331 36.6072 37.085 36.5455 36.9304 36.5449C36.7759 36.5442 36.6273 36.6047 36.5171 36.7131Z" fill="#1AE5BE"/>
<path d="M25.7778 0.473828C25.668 0.363972 25.519 0.302253 25.3636 0.302246H4.84425C4.32189 0.303156 3.80482 0.406984 3.3226 0.607799C2.84038 0.808614 2.40245 1.10248 2.03384 1.4726C1.66523 1.84273 1.37316 2.28186 1.17433 2.7649C0.975492 3.24794 0.873784 3.76543 0.875017 4.28779V43.4705C0.871978 44.527 1.28822 45.5414 2.03238 46.2913C2.77654 47.0412 3.78782 47.4652 4.84425 47.4702H27.7305V46.2983H4.84425C4.09851 46.2937 3.38509 45.9933 2.86062 45.4631C2.33615 44.9329 2.04349 44.2163 2.04689 43.4705V4.28779C2.04545 3.91926 2.11671 3.55407 2.25658 3.21311C2.39645 2.87216 2.60219 2.56213 2.86202 2.30079C3.12185 2.03944 3.43068 1.8319 3.77081 1.69005C4.11095 1.5482 4.47572 1.47482 4.84425 1.47412H24.8008V8.55186C24.7961 9.51887 25.1757 10.4481 25.8561 11.1353C26.5365 11.8225 27.4619 12.2113 28.4289 12.2163H35.543V30.5757H36.7149V11.6173C36.7081 11.4597 36.64 11.3111 36.5251 11.203L25.7778 0.473828ZM25.9732 8.55186V2.30273L34.6781 11.0444H28.4289C28.104 11.0421 27.7826 10.9758 27.4833 10.8493C27.184 10.7228 26.9125 10.5385 26.6844 10.307C26.4563 10.0756 26.276 9.80142 26.1539 9.50026C26.0318 9.19909 25.9707 8.87682 25.9732 8.55186Z" fill="#0635C9"/>
<path d="M21.0199 35.1655H6.43215C6.27674 35.1655 6.12771 35.2273 6.01783 35.3371C5.90794 35.447 5.84621 35.5961 5.84621 35.7515C5.84621 35.9069 5.90794 36.0559 6.01783 36.1658C6.12771 36.2757 6.27674 36.3374 6.43215 36.3374H21.0199C21.1753 36.3374 21.3244 36.2757 21.4343 36.1658C21.5441 36.0559 21.6059 35.9069 21.6059 35.7515C21.6059 35.5961 21.5441 35.447 21.4343 35.3371C21.3244 35.2273 21.1753 35.1655 21.0199 35.1655Z" fill="#0635C9"/>
<path d="M8.10158 19.3452C8.10158 19.1898 8.03985 19.0408 7.92996 18.9309C7.82008 18.821 7.67104 18.7593 7.51564 18.7593H4.4883C4.3329 18.7593 4.18386 18.821 4.07398 18.9309C3.96409 19.0408 3.90236 19.1898 3.90236 19.3452V27.353C3.90236 27.5084 3.96409 27.6575 4.07398 27.7673C4.18386 27.8772 4.3329 27.939 4.4883 27.939H7.51564C7.67104 27.939 7.82008 27.8772 7.92996 27.7673C8.03985 27.6575 8.10158 27.5084 8.10158 27.353V19.3452ZM5.07424 19.9312H6.9297V26.7671H5.07424V19.9312Z" fill="#0635C9"/>
<path d="M28.4559 25.6719C28.4577 24.0844 27.9659 22.5357 27.0486 21.2401C26.1313 19.9445 24.8339 18.9662 23.336 18.4405V9.70205C23.3365 9.54387 23.2755 9.39168 23.1658 9.2777C23.0562 9.16371 22.9064 9.09686 22.7484 9.09131H19.7503C19.5895 9.0958 19.4364 9.1615 19.3224 9.27501C19.2084 9.38851 19.142 9.54125 19.1367 9.70205V18.1713C18.8392 18.2384 18.5458 18.3224 18.2578 18.4228V13.8802C18.2587 13.7247 18.1977 13.5753 18.0885 13.4647C17.9792 13.3542 17.8305 13.2915 17.675 13.2905H14.677C14.5178 13.2902 14.3647 13.3514 14.2495 13.4612C14.1343 13.5711 14.066 13.7212 14.0588 13.8802V21.9136C13.6682 22.7333 13.2776 23.6309 13.1799 24.5709V16.8784C13.1803 16.8032 13.1654 16.7287 13.1363 16.6594C13.1072 16.59 13.0643 16.5273 13.0103 16.475C12.9563 16.4226 12.8923 16.3817 12.8221 16.3547C12.752 16.3277 12.677 16.3152 12.6019 16.3179H9.60382C9.28019 16.3179 8.98078 16.5549 8.98078 16.8784V27.3726C8.98078 27.6961 9.28019 27.939 9.60382 27.939H12.6019C12.6773 27.9409 12.7524 27.9277 12.8227 27.9001C12.8929 27.8725 12.9569 27.831 13.0108 27.7782C13.0647 27.7254 13.1074 27.6622 13.1364 27.5925C13.1655 27.5228 13.1802 27.448 13.1797 27.3726V26.7728C13.375 28.4048 14.166 29.9116 15.3526 31.098C16.4259 32.1714 17.7935 32.9024 19.2823 33.1986C20.7711 33.4948 22.3143 33.343 23.7168 32.7622C25.1192 32.1814 26.318 31.1979 27.1616 29.9359C28.0051 28.6738 28.4555 27.1899 28.4559 25.6719ZM12.0078 26.7671H10.1524V17.4897H12.0078V26.7671ZM22.1641 10.2632V18.1277C21.5526 18.0138 20.9295 17.9749 20.3086 18.0118V10.2632H22.1641ZM15.2305 14.4624H17.086V18.9423C16.4523 19.3035 15.8656 19.7413 15.3389 20.2459C15.3067 20.2781 15.3281 20.3118 15.2305 20.3444V14.4624ZM20.7825 32.1735C19.1404 32.1734 17.5592 31.552 16.3564 30.434C15.1536 29.316 14.4184 27.7843 14.2984 26.1466C14.1785 24.5089 14.6827 22.8864 15.7098 21.6051C16.7368 20.3238 18.2107 19.4786 19.8353 19.2393C20.1552 19.1922 20.4781 19.1686 20.8015 19.1685C21.6528 19.1677 22.4957 19.3358 23.2816 19.6629C24.0675 19.9901 24.7807 20.4699 25.38 21.0745C26.2893 21.9838 26.9085 23.1423 27.1594 24.4034C27.4102 25.6646 27.2815 26.9719 26.7894 28.1599C26.2973 29.3479 25.464 30.3633 24.3948 31.0778C23.3256 31.7922 22.0684 32.1735 20.7825 32.1735Z" fill="#0635C9"/>
<path d="M21.7257 29.8017C21.024 29.9814 20.2876 29.9759 19.5887 29.7855C18.8898 29.5952 18.2523 29.2265 17.7387 28.7157C16.998 27.9755 16.5639 26.983 16.523 25.9366C16.4822 24.8902 16.8376 23.8669 17.5184 23.0712C17.5166 23.1469 17.53 23.2222 17.5579 23.2926C17.5858 23.363 17.6275 23.4271 17.6806 23.4811C17.7338 23.5351 17.7972 23.5778 17.8671 23.6068C17.9371 23.6358 18.0122 23.6504 18.0879 23.6498C18.1636 23.6492 18.2385 23.6335 18.308 23.6034C18.3775 23.5733 18.4402 23.5296 18.4925 23.4748C18.5448 23.4201 18.5855 23.3553 18.6123 23.2845C18.6391 23.2137 18.6514 23.1382 18.6485 23.0625V21.6387C18.6485 21.315 18.4274 21.0054 18.1038 21.0054H16.6799C16.5245 21.0054 16.3755 21.0671 16.2656 21.177C16.1557 21.2869 16.094 21.4359 16.094 21.5913C16.094 21.7467 16.1557 21.8957 16.2656 22.0056C16.3755 22.1155 16.5245 22.1772 16.6799 22.1772H16.7018C15.8271 23.2515 15.3482 24.4275 15.3482 25.7501C15.3487 26.5649 15.5352 27.3689 15.8936 28.1007C16.252 28.8325 16.7728 29.4728 17.4162 29.9727C18.0596 30.4727 18.8087 30.8191 19.6064 30.9856C20.404 31.152 21.2292 31.1342 22.0189 30.9333C22.0932 30.9141 22.163 30.8804 22.2242 30.8342C22.2855 30.788 22.3371 30.7301 22.3761 30.664C22.415 30.5979 22.4405 30.5247 22.4512 30.4487C22.4618 30.3727 22.4574 30.2953 22.4382 30.221C22.419 30.1467 22.3853 30.0769 22.3391 30.0156C22.2929 29.9543 22.235 29.9027 22.1689 29.8638C22.1028 29.8249 22.0296 29.7993 21.9536 29.7887C21.8776 29.778 21.8 29.7824 21.7257 29.8017Z" fill="#0635C9"/>
<path d="M25.3881 28.5249H25.3051C26.7292 26.4741 26.4833 23.6141 24.6549 21.7855C24.0483 21.1815 23.3053 20.7323 22.4886 20.4756C21.6719 20.219 20.8055 20.1625 19.9624 20.3109C19.8101 20.3392 19.6751 20.4264 19.5866 20.5536C19.4982 20.6809 19.4635 20.8378 19.49 20.9905C19.5166 21.1431 19.6022 21.2791 19.7284 21.369C19.8546 21.4589 20.0111 21.4954 20.1641 21.4706C20.9367 21.3352 21.7319 21.4209 22.458 21.7177C23.184 22.0146 23.8115 22.5105 24.268 23.1484C24.7245 23.7862 24.9916 24.5401 25.0383 25.3231C25.0851 26.1061 24.9097 26.8864 24.5323 27.5741C24.4931 27.4343 24.4052 27.313 24.2845 27.2322C24.1638 27.1514 24.0183 27.1163 23.874 27.1333C23.7298 27.1502 23.5963 27.2181 23.4977 27.3248C23.399 27.4314 23.3417 27.5697 23.336 27.7148V29.1388C23.336 29.4623 23.6405 29.6968 23.9642 29.6968H25.3881C25.5435 29.6968 25.6925 29.635 25.8024 29.5252C25.9123 29.4153 25.974 29.2662 25.974 29.1108C25.974 28.9554 25.9123 28.8064 25.8024 28.6965C25.6925 28.5866 25.5435 28.5249 25.3881 28.5249Z" fill="#0635C9"/>
<path d="M20.8133 23.9391C20.9668 23.9392 21.114 24.0003 21.2225 24.1088C21.3311 24.2173 21.3921 24.3645 21.3923 24.518C21.3923 24.6734 21.454 24.8224 21.5639 24.9323C21.6738 25.0422 21.8228 25.1039 21.9782 25.1039C22.0548 25.1037 22.1305 25.0884 22.201 25.0588C22.2716 25.0292 22.3356 24.9859 22.3893 24.9314C22.443 24.8769 22.4854 24.8123 22.514 24.7414C22.5426 24.6704 22.5569 24.5945 22.556 24.518C22.5547 24.1558 22.4413 23.8029 22.2312 23.5079C22.0211 23.2129 21.7247 22.9902 21.3828 22.8706V22.7135C21.3828 22.5581 21.3211 22.409 21.2112 22.2992C21.1013 22.1893 20.9523 22.1275 20.7969 22.1275C20.6415 22.1275 20.4925 22.1893 20.3826 22.2992C20.2727 22.409 20.211 22.5581 20.211 22.7135V22.8706C19.8709 22.9911 19.5768 23.2145 19.3695 23.5098C19.1621 23.8051 19.0519 24.1577 19.0541 24.5185C19.0557 24.983 19.2412 25.4281 19.5702 25.7562C19.8991 26.0843 20.3446 26.2687 20.8092 26.269C20.9627 26.2675 21.1105 26.327 21.2202 26.4345C21.3298 26.542 21.3922 26.6886 21.3938 26.8421C21.3953 26.9956 21.3358 27.1434 21.2283 27.2531C21.1208 27.3627 20.9742 27.4251 20.8207 27.4267C20.8179 27.4267 20.8156 27.4267 20.8128 27.4267C20.81 27.4267 20.8074 27.4267 20.8045 27.4267C20.6525 27.4243 20.5076 27.3624 20.4009 27.2542C20.2942 27.1459 20.2343 27.0001 20.2341 26.8481C20.2341 26.6927 20.1724 26.5437 20.0625 26.4338C19.9526 26.3239 19.8036 26.2622 19.6482 26.2622C19.4919 26.2619 19.3418 26.3233 19.2306 26.433C19.1193 26.5427 19.0559 26.6919 19.054 26.8481C19.0519 27.2089 19.1622 27.5613 19.3695 27.8566C19.5768 28.1518 19.8709 28.3751 20.211 28.4956V28.7058C20.211 28.8612 20.2727 29.0102 20.3826 29.1201C20.4925 29.23 20.6415 29.2917 20.7969 29.2917C20.9523 29.2917 21.1013 29.23 21.2112 29.1201C21.3211 29.0102 21.3828 28.8612 21.3828 28.7058V28.4956C21.7725 28.3596 22.1015 28.0901 22.3115 27.7347C22.5216 27.3794 22.5991 26.9613 22.5304 26.5543C22.4617 26.1473 22.2512 25.7777 21.9362 25.511C21.6212 25.2444 21.2219 25.0977 20.8092 25.0972C20.7326 25.0979 20.6565 25.0833 20.5856 25.0544C20.5146 25.0255 20.45 24.9828 20.3957 24.9287C20.3414 24.8747 20.2983 24.8104 20.269 24.7395C20.2397 24.6687 20.2247 24.5928 20.225 24.5161C20.2253 24.4395 20.2408 24.3637 20.2706 24.2931C20.3004 24.2224 20.3439 24.1584 20.3986 24.1048C20.4533 24.0511 20.5182 24.0089 20.5894 23.9804C20.6605 23.952 20.7367 23.9378 20.8133 23.9391Z" fill="#0635C9"/>
<path d="M4.29299 6.0042C4.44839 6.0042 4.59742 5.94247 4.70731 5.83258C4.81719 5.7227 4.87892 5.57366 4.87892 5.41826V4.99883C4.87892 4.84343 4.81719 4.69439 4.70731 4.58451C4.59742 4.47462 4.44839 4.41289 4.29299 4.41289C4.13758 4.41289 3.98855 4.47462 3.87867 4.58451C3.76878 4.69439 3.70705 4.84343 3.70705 4.99883V5.41826C3.70705 5.57366 3.76878 5.7227 3.87867 5.83258C3.98855 5.94247 4.13758 6.0042 4.29299 6.0042Z" fill="#0635C9"/>
<path d="M3.70705 14.8909C3.70705 15.0463 3.76878 15.1954 3.87867 15.3052C3.98855 15.4151 4.13758 15.4769 4.29299 15.4769C4.44839 15.4769 4.59742 15.4151 4.70731 15.3052C4.81719 15.1954 4.87892 15.0463 4.87892 14.8909V7.46904C4.87892 7.31364 4.81719 7.16461 4.70731 7.05472C4.59742 6.94484 4.44839 6.88311 4.29299 6.88311C4.13758 6.88311 3.98855 6.94484 3.87867 7.05472C3.76878 7.16461 3.70705 7.31364 3.70705 7.46904V14.8909Z" fill="#0635C9"/>
<path d="M21.0199 38.0952H6.43215C6.27674 38.0952 6.12771 38.1569 6.01783 38.2668C5.90794 38.3767 5.84621 38.5258 5.84621 38.6812C5.84621 38.8366 5.90794 38.9856 6.01783 39.0955C6.12771 39.2054 6.27674 39.2671 6.43215 39.2671H21.0199C21.1753 39.2671 21.3244 39.2054 21.4343 39.0955C21.5441 38.9856 21.6059 38.8366 21.6059 38.6812C21.6059 38.5258 21.5441 38.3767 21.4343 38.2668C21.3244 38.1569 21.1753 38.0952 21.0199 38.0952Z" fill="#0635C9"/>
<path d="M21.0199 41.0249H6.43215C6.27674 41.0249 6.12771 41.0866 6.01783 41.1965C5.90794 41.3064 5.84621 41.4554 5.84621 41.6108C5.84621 41.7662 5.90794 41.9153 6.01783 42.0252C6.12771 42.135 6.27674 42.1968 6.43215 42.1968H21.0199C21.1753 42.1968 21.3244 42.135 21.4343 42.0252C21.5441 41.9153 21.6059 41.7662 21.6059 41.6108C21.6059 41.4554 21.5441 41.3064 21.4343 41.1965C21.3244 41.0866 21.1753 41.0249 21.0199 41.0249Z" fill="#0635C9"/>
<path d="M43.0788 39.4633C43.0788 37.5127 42.5004 35.6059 41.4167 33.9841C40.333 32.3623 38.7927 31.0982 36.9906 30.3518C35.1885 29.6053 33.2055 29.41 31.2924 29.7906C29.3793 30.1711 27.622 31.1104 26.2428 32.4897C24.8635 33.869 23.9242 35.6263 23.5437 37.5394C23.1632 39.4525 23.3585 41.4355 24.1049 43.2375C24.8514 45.0396 26.1155 46.5799 27.7373 47.6636C29.3592 48.7473 31.2659 49.3257 33.2165 49.3257C35.8313 49.3228 38.3382 48.2829 40.1871 46.4339C42.036 44.585 43.076 42.0781 43.0788 39.4633ZM33.2165 48.1538C31.4977 48.1538 29.8175 47.6442 28.3883 46.6892C26.9591 45.7343 25.8452 44.3771 25.1875 42.7891C24.5297 41.2011 24.3576 39.4537 24.6929 37.7679C25.0282 36.0821 25.8559 34.5336 27.0713 33.3182C28.2866 32.1028 29.8352 31.2751 31.521 30.9397C33.2068 30.6044 34.9541 30.7765 36.5421 31.4343C38.1301 32.092 39.4874 33.2059 40.4423 34.6351C41.3973 36.0642 41.9069 37.7445 41.9069 39.4633C41.9044 41.7673 40.9879 43.9763 39.3587 45.6055C37.7295 47.2347 35.5206 48.1512 33.2165 48.1538Z" fill="#1AE5BE"/>
</svg>
