<svg width="81" height="81" viewBox="0 0 81 81" fill="none" xmlns="http://www.w3.org/2000/svg">
<path d="M45.5599 29.571H34.8932C34.5377 29.571 34.2266 29.7043 33.9599 29.971C33.6932 30.2376 33.5599 30.5487 33.5599 30.9043V68.2376C33.5599 68.5932 33.6932 68.9043 33.9599 69.171C34.2266 69.4376 34.5377 69.571 34.8932 69.571H45.5599C45.9155 69.571 46.2266 69.4376 46.4932 69.171C46.7599 68.9043 46.8932 68.5932 46.8932 68.2376V30.9043C46.8932 30.5487 46.7599 30.2376 46.4932 29.971C46.2266 29.7043 45.9155 29.571 45.5599 29.571ZM44.2266 66.9043H36.2266V32.2376H44.2266V66.9043ZM77.5599 24.2376H66.8932C66.5377 24.2376 66.2266 24.371 65.9599 24.6376C65.6932 24.9043 65.5599 25.2154 65.5599 25.571V68.2376C65.5599 68.5932 65.6932 68.9043 65.9599 69.171C66.2266 69.4376 66.5377 69.571 66.8932 69.571H77.5599C77.9155 69.571 78.2266 69.4376 78.4932 69.171C78.7599 68.9043 78.8932 68.5932 78.8932 68.2376V25.571C78.8932 25.2154 78.7599 24.9043 78.4932 24.6376C78.2266 24.371 77.9155 24.2376 77.5599 24.2376ZM76.2266 66.9043H68.2266V26.9043H76.2266V66.9043ZM61.5599 53.571H50.8932C50.5377 53.571 50.2266 53.7043 49.9599 53.971C49.6932 54.2376 49.5599 54.5487 49.5599 54.9043V68.2376C49.5599 68.5932 49.6932 68.9043 49.9599 69.171C50.2266 69.4376 50.5377 69.571 50.8932 69.571H61.5599C61.9155 69.571 62.2266 69.4376 62.4932 69.171C62.7599 68.9043 62.8932 68.5932 62.8932 68.2376V54.9043C62.8932 54.5487 62.7599 54.2376 62.4932 53.971C62.2266 53.7043 61.9155 53.571 61.5599 53.571ZM60.2266 66.9043H52.2266V56.2376H60.2266V66.9043ZM13.5599 34.9043H2.89323C2.53767 34.9043 2.22656 35.0376 1.9599 35.3043C1.69323 35.571 1.5599 35.8821 1.5599 36.2376V68.2376C1.5599 68.5932 1.69323 68.9043 1.9599 69.171C2.22656 69.4376 2.53767 69.571 2.89323 69.571H13.5599C13.9155 69.571 14.2266 69.4376 14.4932 69.171C14.7599 68.9043 14.8932 68.5932 14.8932 68.2376V36.2376C14.8932 35.8821 14.7599 35.571 14.4932 35.3043C14.2266 35.0376 13.9155 34.9043 13.5599 34.9043ZM12.2266 66.9043H4.22656V37.571H12.2266V66.9043ZM29.5599 42.9043H18.8932C18.5377 42.9043 18.2266 43.0376 17.9599 43.3043C17.6932 43.571 17.5599 43.8821 17.5599 44.2376V68.2376C17.5599 68.5932 17.6932 68.9043 17.9599 69.171C18.2266 69.4376 18.5377 69.571 18.8932 69.571H29.5599C29.9155 69.571 30.2266 69.4376 30.4932 69.171C30.7599 68.9043 30.8932 68.5932 30.8932 68.2376V44.2376C30.8932 43.8821 30.7599 43.571 30.4932 43.3043C30.2266 43.0376 29.9155 42.9043 29.5599 42.9043ZM28.2266 66.9043H20.2266V45.571H28.2266V66.9043ZM72.2266 1.57096C70.8043 1.57096 69.5599 2.10429 68.4932 3.17096C67.4266 4.23763 66.8932 5.52651 66.8932 7.03763C66.8932 8.54874 67.4266 9.83762 68.4932 10.9043L57.5599 31.171C56.4932 30.8154 55.4266 30.8154 54.3599 31.171L44.2266 15.7043C45.1155 14.6376 45.5599 13.3932 45.5599 11.971C45.5599 10.5487 44.9821 9.34874 43.8266 8.37096C42.671 7.39318 41.3821 6.9043 39.9599 6.9043C38.5377 6.9043 37.3821 7.39318 36.4932 8.37096C35.6043 9.34874 35.071 10.371 34.8932 11.4376C34.7155 12.5043 34.8932 13.571 35.4266 14.6376L27.4266 21.3043C26.1821 20.4154 24.8932 20.0598 23.5599 20.2376C22.2266 20.4154 21.1155 21.0376 20.2266 22.1043L13.5599 18.6376C13.7377 17.2154 13.4266 15.8821 12.6266 14.6376C11.8266 13.3932 10.7155 12.6376 9.29323 12.371C7.87101 12.1043 6.53767 12.371 5.29323 13.171C4.04878 13.971 3.29323 15.0821 3.02656 16.5043C2.7599 17.9265 3.02656 19.2598 3.82656 20.5043C4.62656 21.7487 5.73767 22.5487 7.1599 22.9043H8.22656C9.82656 22.9043 11.1599 22.2821 12.2266 21.0376L18.8932 24.5043C18.7155 25.9265 19.0266 27.2598 19.8266 28.5043C20.6266 29.7487 21.7377 30.5487 23.1599 30.9043C24.5821 31.2598 25.9155 31.0376 27.1599 30.2376C28.4043 29.4376 29.1599 28.371 29.4266 27.0376C29.6932 25.7043 29.5599 24.5043 29.0266 23.4376L37.0266 16.5043C38.6266 17.7487 40.3155 18.0154 42.0932 17.3043L52.2266 32.771C51.3377 33.8376 50.8932 35.1265 50.8932 36.6376C50.8932 38.1487 51.471 39.3932 52.6266 40.371C53.7821 41.3487 55.071 41.7932 56.4932 41.7043C57.9155 41.6154 59.1155 41.0376 60.0932 39.971C61.071 38.9043 61.5599 37.6154 61.5599 36.1043C61.5599 34.5932 61.0266 33.3932 59.9599 32.5043L70.8932 12.2376C71.4266 12.2376 71.871 12.2376 72.2266 12.2376C73.6488 12.2376 74.8932 11.7043 75.9599 10.6376C77.0266 9.57096 77.5599 8.32652 77.5599 6.9043C77.5599 5.48207 77.071 4.23763 76.0932 3.17096C75.1155 2.10429 73.8266 1.57096 72.2266 1.57096ZM8.22656 20.2376C7.51545 20.2376 6.89323 19.971 6.3599 19.4376C5.82656 18.9043 5.5599 18.2821 5.5599 17.571C5.5599 16.8598 5.82656 16.2376 6.3599 15.7043C6.89323 15.171 7.51545 14.9043 8.22656 14.9043C8.93767 14.9043 9.5599 15.171 10.0932 15.7043C10.6266 16.2376 10.8932 16.8598 10.8932 17.571C10.8932 18.2821 10.6266 18.9043 10.0932 19.4376C9.5599 19.971 8.93767 20.2376 8.22656 20.2376ZM24.2266 28.2376C23.5155 28.2376 22.8932 27.971 22.3599 27.4376C21.8266 26.9043 21.5599 26.2821 21.5599 25.571C21.5599 24.8598 21.8266 24.2376 22.3599 23.7043C22.8932 23.171 23.5155 22.9043 24.2266 22.9043C24.9377 22.9043 25.5599 23.171 26.0932 23.7043C26.6266 24.2376 26.8932 24.8598 26.8932 25.571C26.8932 26.2821 26.6266 26.9043 26.0932 27.4376C25.5599 27.971 24.9377 28.2376 24.2266 28.2376ZM40.2266 14.9043C39.5155 14.9043 38.8932 14.6376 38.3599 14.1043C37.8266 13.571 37.5599 12.9487 37.5599 12.2376C37.5599 11.5265 37.8266 10.9043 38.3599 10.371C38.8932 9.83762 39.5155 9.57096 40.2266 9.57096C40.9377 9.57096 41.5599 9.83762 42.0932 10.371C42.6266 10.9043 42.8932 11.5265 42.8932 12.2376C42.8932 12.9487 42.6266 13.571 42.0932 14.1043C41.5599 14.6376 40.9377 14.9043 40.2266 14.9043ZM56.2266 38.9043C55.5155 38.9043 54.8932 38.6376 54.3599 38.1043C53.8266 37.571 53.5599 36.9487 53.5599 36.2376C53.5599 35.5265 53.8266 34.9043 54.3599 34.371C54.8932 33.8376 55.5155 33.571 56.2266 33.571C56.9377 33.571 57.5599 33.8376 58.0932 34.371C58.6266 34.9043 58.8932 35.5265 58.8932 36.2376C58.8932 36.9487 58.6266 37.571 58.0932 38.1043C57.5599 38.6376 56.9377 38.9043 56.2266 38.9043ZM72.2266 9.57096C71.5155 9.57096 70.8932 9.30429 70.3599 8.77096C69.8266 8.23763 69.5599 7.6154 69.5599 6.9043C69.5599 6.19318 69.8266 5.57096 70.3599 5.03763C70.8932 4.5043 71.5155 4.23763 72.2266 4.23763C72.9377 4.23763 73.5599 4.5043 74.0932 5.03763C74.6266 5.57096 74.8932 6.19318 74.8932 6.9043C74.8932 7.6154 74.6266 8.23763 74.0932 8.77096C73.5599 9.30429 72.9377 9.57096 72.2266 9.57096ZM78.8932 70.9043H1.5599C1.20434 70.9043 0.893229 71.0376 0.626563 71.3043C0.359896 71.571 0.226562 71.8821 0.226562 72.2376V77.571C0.226562 77.9265 0.359896 78.2376 0.626563 78.5043C0.893229 78.771 1.20434 78.9043 1.5599 78.9043H78.8932C79.2488 78.9043 79.5599 78.771 79.8266 78.5043C80.0932 78.2376 80.2266 77.9265 80.2266 77.571V72.2376C80.2266 71.8821 80.0932 71.571 79.8266 71.3043C79.5599 71.0376 79.2488 70.9043 78.8932 70.9043ZM77.5599 76.2376H2.89323V73.571H77.5599V76.2376Z" fill="#2C3587"/>
</svg>
